<?xml version="1.0" encoding="UTF-8"?><svg id="_圖層_2" xmlns="http://www.w3.org/2000/svg" viewBox="0 0 582.73 36.29"><defs><style>.cls-1{fill:#f9d3e3;}.cls-2{fill:#fff;}</style></defs><g id="_主視覺"><path class="cls-1" d="m5.24,13.25c1.89-.57,3.83-.79,5.94-.79,7.44,0,12.02,3.39,12.02,9.46,0,6.74-5.46,10.39-12.94,10.39-6.16,0-9.9-3.04-10.26-7.84.53-1.32,1.67-1.98,2.86-1.98,1.81,0,2.82.97,3.13,3.57l.62,4.36c.7.26,1.41.35,2.38.35,4.01,0,6.69-2.99,6.69-8.06s-2.38-7.88-6.3-7.88c-1.85,0-3.39.22-5.06.75l-1.28-.84L4.09,0h17.92v5.41H5.81l-.57,7.84Z"/><path class="cls-2" d="m42.32,10.8c1.08,5.8,4.95,11.35,13.51,14.52l-.03.38c-2.35.48-3.71,2-4.09,4.66-6.66-4.28-8.94-12.05-9.77-18.39-1.01,7.64-4.28,14.05-16.14,18.39l-.25-.41c8.62-5.55,10.94-11.86,11.57-19.15h-11.03l-.25-.89h11.35c.19-3.01.16-6.18.16-9.54l6.31.57c-.1.51-.41.79-1.17.92-.06,2.79-.1,5.49-.32,8.05h6.12l2.63-3.33s2.95,2.22,4.72,3.71c-.1.35-.48.51-.95.51h-12.37Z"/><path class="cls-2" d="m65.09,12.29c0,5.68-.38,13.22-7.51,17.95l-.29-.19c3.08-5.23,3.3-11.92,3.3-17.76V2.56l4.22,1.43c5.71-.89,12.49-2.44,16.17-3.71l4.06,4.12c-.41.32-1.21.35-2.31-.1-4.53.44-11.57.67-17.63.48v2.19h14.17l2-2.19,4.22,3.14c-.19.25-.57.54-1.24.67v3.74c-.03.25-2.31,1.05-3.84,1.05h-.82v-1.11h-14.49v.03Zm17.69,1.62s2.28,1.74,3.68,2.98c-.1.35-.44.51-.89.51h-10.72c-.13,1.05-.25,2.09-.54,3.11h4.72l2.22-2.03,3.81,3.11c-.22.29-.6.48-1.24.57-.38,3.93-1.08,6.02-2.66,6.94-1.01.6-2.25.89-4.12.89,0-1.21-.1-2.25-.6-2.85-.51-.6-1.36-1.08-2.66-1.36v-.35c1.11.1,2.89.19,3.49.19.48,0,.7-.06.92-.19.48-.35.82-1.74,1.08-4.03h-5.2c-1.2,3.52-4.06,6.63-11.51,8.81l-.25-.38c6.88-3.87,7.23-8.12,7.39-12.43h-4l-.25-.89h8.59c-.09-.03-.19-.1-.29-.16-.19-1.27-.98-2.6-1.59-3.33l.19-.16c6.06-.6,5.99,2.63,4.15,3.65h4.28l2-2.6Zm-17.69-6.06v3.52h14.49v-3.52h-14.49Z"/><path class="cls-2" d="m100.39.37h2.63v35.92h-2.63V.37Z"/><path class="cls-2" d="m141.8,3.44s2.79,2.12,4.44,3.55c-.1.35-.44.51-.92.51h-29.04l-.25-.89h17.06c.73-1.93,1.46-4.57,1.87-6.37l6.21,1.49c-.1.41-.44.67-1.21.67-1.4,1.21-3.74,2.89-5.87,4.22h5.26l2.44-3.17Zm-14.21,5.23l3.96,3.08c-.19.25-.6.54-1.27.67v13.25c0,2.73-.57,4.22-4.76,4.57-.03-1.3-.13-2.25-.44-2.89-.29-.57-.7-1.05-1.81-1.27v-.41s1.65.13,2.22.13c.41,0,.51-.22.51-.54v-3.65h-3.39c-.38,3.17-1.65,6.34-5.99,8.62l-.25-.22c2.03-3.14,2.06-7.26,2.06-11.32v-9.54l4.98,1.68h2.28l1.9-2.16ZM122.81.43c10.24.19,6.53,8.18,2.31,5.33-.32-1.9-1.43-3.87-2.54-5.17l.22-.16Zm3.2,20.29v-4.28h-3.27v2.25c0,.67,0,1.33-.06,2.03h3.33Zm-3.27-9v3.84h3.27v-3.84h-3.27Zm13.82,11.35c0,.29-1.81.95-3.39.95h-.73v-14.05l5.3.48c-.06.41-.29.76-1.17.89v11.73Zm2.28-14.17l5.45.48c-.06.48-.38.76-1.11.86v15.28c0,2.89-.67,4.44-5.45,4.82-.1-1.33-.29-2.28-.82-2.95-.54-.6-1.2-1.08-2.95-1.4v-.38s3.55.19,4.25.19c.48,0,.63-.13.63-.51V8.9Z"/><path class="cls-2" d="m161.76,6.39c1.46,6.28-6.56,4.09-2.98-.22.63-.29,1.11-.89,1.4-1.74-.29.16-.63.22-1.17.22-1.08,1.97-2.98,5.23-4.63,7.26,3.23,2.03,4.66,5.23,4.69,7.9,0,3.14-1.17,5.07-4.76,5.14,0-1.11-.13-2.66-.41-3.2-.16-.29-.44-.51-.82-.7v8.02c0,.29-1.24,1.3-3.33,1.3h-.76V1l4.5,1.68h1.08l2.03-1.97,3.68,3.33c.03-.16.03-.32.06-.51h.35c.35.73.63,1.36.82,1.97h5.07c-.32-.13-.63-.35-.92-.6.1-1.68-.44-3.46-1.2-4.6l.22-.16c6.56.73,6.21,4.34,4.15,5.36h4.25l1.9-1.9,3.33,3.17c-.25.25-.57.32-1.2.35-.95.67-2.44,1.59-3.61,2.19.63.57,1.33,1.17,1.87,1.68-.06.35-.41.51-.86.51h-14.17l-.25-.89h9.58l2.03-2.79s.48.38,1.11.92c.16-.73.35-1.59.48-2.35h-11.51Zm-7.61,14.11c.29,0,.44-.03.63-.16.35-.25.57-.76.57-1.68,0-2.22-.48-4.66-1.78-6.66.44-2.12,1.01-5.9,1.27-8.43h-1.78v16.93h1.08Zm22.89,4.72c.95.48,1.14,1.01,1.14,1.81,0,1.65-1.3,2.57-4.95,2.57h-1.78c-2.92,0-3.33-.82-3.33-3.52v-9.73h-1.81c-.41,5.29-1.87,10.34-10.56,13.7l-.29-.38c5.74-4.19,6.06-8.78,6.18-13.32h-2.6l-.25-.89h13.13l2.16-2.95s2.44,2,3.87,3.33c-.1.35-.44.51-.89.51h-4.69v8.56c0,.38.06.51.51.51h1.71c.25,0,.44-.06.63-.35.32-.44.82-1.87,1.4-3.46h.32l.1,3.61Z"/><path class="cls-2" d="m205.58,20.34c-.22.35-.6.44-1.46.51-1.36,1.52-2.98,2.82-4.79,3.96,3.33.54,6.88.73,10.31.73v.41c-1.93.6-2.98,2.16-3.39,4.38-4.38-.57-8.34-1.49-11.67-3.11-4.31,1.74-9.39,2.73-14.84,3.04l-.16-.38c4.38-.98,8.59-2.44,12.14-4.34-2.09-1.46-3.84-3.33-5.14-5.71h-5.52l-.29-.89h18.36l2.44-2.03h-2.54v.19c0,.29-1.17,1.14-3.17,1.14h-.7v-10.02c-.29.22-.57.44-.86.63-.1.32-.38.48-.79.48l-.13.06-.1-.06h-2.95v2.7l1.3-1.68s1.65,1.3,2.66,2.25c-.1.35-.38.51-.82.51h-3.14v2.92l1.68-2.19s1.97,1.49,3.14,2.57c-.09.35-.41.51-.86.51h-8.91v.35c0,.25-1.17,1.11-3.11,1.11h-.7v-10.11c-.67.54-1.36.98-2.06,1.4l-.38-.29c1.59-2.19,3.14-5.68,4-9.2l3.55,1.3c-.19-.35-.38-.63-.6-.89l.25-.16c7.42.38,4,5.99,1.05,3.65,0-.54-.13-1.14-.32-1.68-.16.06-.35.06-.6.06-.44.76-.89,1.49-1.4,2.16l.73.29h4.22l1.65-1.97s1.87,1.36,3.04,2.35c-.06.35-.38.51-.82.51h-3.55v2.47l1.3-1.68s1.01.79,1.97,1.62c1.24-2.12,2.38-5.04,2.95-8.02l4.28,1.43c-.19-.44-.44-.86-.73-1.17l.25-.16c7.42.38,4,5.99,1.05,3.65,0-.63-.16-1.27-.38-1.87-.19.22-.54.35-1.05.32-.41.79-.86,1.55-1.33,2.22l.79.32h4.57l1.68-2s1.9,1.36,3.11,2.38c-.1.35-.41.51-.86.51h-3.77v2.57l1.49-1.87s1.74,1.36,2.79,2.35c-.06.35-.38.51-.82.51h-3.46v2.79l1.49-1.87s1.74,1.36,2.79,2.35c-.06.35-.38.51-.82.51h-3.46v2.92h.38l1.78-2.28s2.03,1.55,3.23,2.66c-.1.35-.41.51-.86.51h-6.66l3.52,3.42Zm-20.17-14.55v2.66h1.4v-2.66h-1.4Zm1.4,3.55h-1.4v2.89h1.4v-2.89Zm0,3.77h-1.4v2.92h1.4v-2.92Zm.57,6.72c1.78,1.78,4.31,3.04,7.26,3.93,1.74-1.17,3.2-2.5,4.34-3.93h-11.6Zm11.67-14.05v2.66h1.49v-2.66h-1.49Zm1.49,3.55h-1.49v2.89h1.49v-2.89Zm-1.49,6.69h1.49v-2.92h-1.49v2.92Z"/><path class="cls-2" d="m236.66,20.31s2.82,2.06,4.57,3.49c-.1.35-.48.51-.95.51h-11.83v4.72c0,.38-2,1.3-3.8,1.3h-.95v-6.02h-12.18l-.25-.89h12.43v-3.84h-4.25v.82c0,.44-2.03,1.46-3.93,1.46h-.67V6.74l4.88,1.87h3.96v-3.27h-11.1l-.25-.89h11.35V.24l5.93.57c-.06.44-.29.79-1.17.92v2.73h4.85l2.47-3.04s2.82,2.03,4.53,3.42c-.1.35-.48.51-.95.51h-10.91v3.27h4.09l2.06-2.25,4.19,3.2c-.22.25-.6.54-1.27.67v9.29c-.03.29-2.25,1.24-3.87,1.24h-.79v-1.17h-4.41v3.84h5.71l2.5-3.11Zm-17.22-10.81v4.06h4.25v-4.06h-4.25Zm4.25,9.2v-4.25h-4.25v4.25h4.25Zm4.76-9.2v4.06h4.41v-4.06h-4.41Zm4.41,9.2v-4.25h-4.41v4.25h4.41Z"/><path class="cls-2" d="m252.02,9.91c-.09.29-.35.51-.98.63v18.49c-.06.35-1.93,1.3-3.74,1.3h-.86V14.03c-1.17,1.14-2.47,2.16-3.84,3.08l-.32-.22c2.57-4.03,5.17-10.46,6.31-16.71l6.37,1.93c-.16.41-.57.67-1.3.67-.98,2.44-2.09,4.6-3.33,6.5l1.68.63Zm16.68,14.11s2.82,2.25,4.47,3.74c-.1.35-.44.51-.92.51h-20.71l-.25-.89h10.88c1.11-5.23,2-12.4,2.41-17.34l6.21,1.52c-.13.44-.44.76-1.24.79-1.36,4.06-3.87,10.18-6.82,15.03h3.46l2.5-3.36Zm-16.71-15.92h14.01l2.38-3.14s2.7,2.09,4.28,3.52c-.1.35-.48.51-.92.51h-19.5l-.25-.89Zm2.41,2.5c11.6,10.27,4.44,18.99,1.65,14.05.16-3.65-.06-9.42-2-13.86l.35-.19Zm3.52-10.34c10.65,1.78,6.25,9.99,2.03,6.53-.16-2.28-1.14-4.66-2.25-6.37l.22-.16Z"/><path class="cls-2" d="m285.99.37h2.63v35.92h-2.63V.37Z"/><path class="cls-2" d="m327.3,14.29c-.03.25-1.58.92-2.95,1.08,5.77.67,6.37,2.82,5.33,4.03.73.63,1.65,1.43,2.31,2.06-.1.35-.41.51-.86.51h-6.79v3.55c0,2.89-.63,4.41-5.29,4.82-.1-1.33-.25-2.31-.76-2.95-.51-.63-1.17-1.11-2.79-1.4v-.41s3.36.22,4,.22c.44,0,.57-.16.57-.48v-3.36h-18.17l-.25-.89h18.42v-2.44l5.33.41c-.06.48-.38.73-1.05.82v1.2h2.12l.67-.92c-.41-.13-.86-.35-1.21-.73-.35-.63-.86-1.33-1.62-2-4.03.79-9.61,1.65-17.72,2.76-.25.38-.6.6-.95.67l-2.16-4.31c2.32.06,6.25.06,11.04.06v-2.12h-4.09c0,.35-1.87,1.24-3.58,1.24h-.57V4.9l4.41,1.68h3.84v-2.22h-12.08l-.25-.89h12.33V.21l5.45.48c-.06.44-.32.76-1.17.89v1.9h6.59l2.06-2.76s2.38,1.87,3.77,3.14c-.1.35-.44.51-.89.51h-11.54v2.22h3.96l1.87-2.06,3.93,2.95c-.19.25-.63.54-1.27.7v6.12Zm-20.45,8.15c10.24-.54,7.55,7.58,3.3,5.33-.54-1.93-2.06-3.96-3.52-5.14l.22-.19Zm3.58-14.97v2.63h4.09v-2.63h-4.09Zm4.09,6.12v-2.6h-4.09v2.6h4.09Zm4.28-6.12v2.63h4.28v-2.63h-4.28Zm4.28,3.52h-4.28v2.6h4.28v-2.6Zm.09,5.58c-.6-.38-1.27-.73-2.03-1.01l.13-.38c.63,0,1.24.03,1.81.06v-.76h-4.28v2.12l4.38-.03Z"/><path class="cls-2" d="m362.82,19.36c-.22.25-.63.48-1.21.57-.35,5.61-.86,8.31-2.38,9.42-.86.63-1.93.82-3.33.86,0-.89-.09-1.68-.41-2.22-.41.92-1.71,1.4-2.85.38.06-.57-.03-1.17-.19-1.74-2.22.63-5.33,1.4-9.67,2.38-.22.41-.54.6-.89.67l-1.84-3.87c1.49.03,4.06.06,7.13.03v-1.3h-1.4c-.19.32-1.65.95-2.92.95h-.48v-3.61c-.98.54-2,.98-3.08,1.33l-.25-.29c1.52-1.4,2.88-3.46,3.71-5.2-.35.06-.7.1-1.05.1h-.51v-5.96l-.92-1.74v.89c0,6.06-.25,14.11-6.69,19.37l-.32-.22c2.73-5.64,2.85-12.84,2.85-19.15V.5l4.79,1.65h15.76l1.81-2,3.93,2.89c-.19.25-.63.54-1.3.7v2.69c-.03.1-.7.35-1.55.54l1.55,1.43c-.16.19-.51.22-.98.03-.6.16-1.49.35-2.44.51,5.96,1.11,4.6,3.96,2.76,3.42-.25-.13-.57-.29-.92-.41l1.9,1.4c-.16.19-.48.41-1.01.54v2.6c0,.1-.29.22-.67.35l3.04,2.54Zm-22.51-16.33v2.38h16.71v-2.38h-16.71Zm0,6.75c.89-.1,2.28-.32,3.93-.57-.89-.79-2.19-1.62-3.14-2.06l.22-.32c4.34-1.14,5.68.76,5.2,2l2.12-.38v-1.93l5.26.44c-.06.32-.22.57-.92.7v.86c.54,0,1.08.03,1.55.06.82-.44,1.71-.95,2.47-1.43v-.86h-16.71v3.49Zm17.31,1.36c-1.49-.57-3.14-1.14-4.63-1.59v1.62c0,.22-1.97.79-3.58.79h-.76v-2.5c-1.3.7-2.95,1.49-4.95,2.44l1.62.6h10.97l1.33-1.36Zm-4.5,13.95c1.08.32,1.74.76,2.12,1.21.29.03.51.03.67.03.22,0,.38-.03.54-.22.51-.54.86-2.69,1.08-6.85h-11.38c-.51.44-1.05.92-1.68,1.33l1.52.6h1.21v-1.74l4.44.41c-.06.29-.19.51-.73.6v.73h1.59l1.49-1.46,3.01,2.19c-.13.13-.35.29-.7.35v1.93c-.03.22-1.81.89-2.95.89h-.22Zm-6.47-11.7h-1.55v2.7h1.55v-2.7Zm11.86,3.77c-.41.1-.86.16-1.24.16h-.7v-.35h-11.22l3.27.63c-.13.38-.51.6-1.49.67l-.1.1h10.21l1.27-1.21Zm-11.32,6.47v-1.55h-1.36v1.55h1.36Zm4.38-10.24h-1.39v2.7h1.39v-2.7Zm1.14,8.69h-1.81v1.55h1.81v-1.55Zm-.57,3.71c-.13-.29-.29-.54-.48-.76l.32-.19c.25.03.51.1.73.16v-.48h-1.81v1.3l1.24-.03Zm4.44-12.4h-1.62v2.7h1.62v-2.7Z"/><path class="cls-2" d="m376.88,1.83s2.28,1.93,3.58,3.23c-.1.35-.44.51-.89.51h-5.07l.32,2.6c-.63.86-2.35,1.2-4.41,1.14l-.41-3.74h-4.88l-.25-.89h5.04l-.44-4.28,5.55.38c-.03.41-.29.76-.95.92l.35,2.98h.48l2-2.85Zm-11.8,19.44c2.92-2.66,6.25-7.2,8.18-11.99l5.8,2.47c-.16.38-.6.63-1.36.54-.89,1.17-1.81,2.22-2.79,3.17l1.3.48c-.1.29-.38.51-.98.6v12.65c-.06.32-1.9,1.11-3.61,1.11h-.82v-11.54c-1.78,1.14-3.58,2.06-5.45,2.79l-.25-.29Zm28.09,3.49c1.17.51,1.49,1.01,1.49,1.84,0,1.9-1.65,2.76-7.07,2.76h-3.04c-3.61,0-4.6-.76-4.6-3.84v-15.66l5.58.51c-.03.41-.32.73-1.08.82v5.74h3.3l2.19-3.11s2.47,2.09,3.9,3.49c-.09.35-.44.51-.92.51h-8.47v6.47c0,.57.25.76,1.14.76h2.54c.76,0,1.49,0,1.93-.03.41-.03.7-.13.95-.44.44-.6,1.05-2.16,1.71-4.06h.32l.13,4.25Zm-1.27-22.92s2.28,1.93,3.58,3.23c-.06.35-.41.51-.86.51h-6.34l-.44,2.95c-.82.63-2.63.92-4.53.54l.51-3.49h-2.47l-.25-.89h2.85l.6-4.28,5.45,1.01c-.1.38-.35.73-1.21.79l-.38,2.47h1.49l2-2.85Z"/><path class="cls-2" d="m426.48,3.7c-.22.29-.6.54-1.27.7v24.32c-.03.32-2.16,1.4-3.87,1.4h-.73v-2.6h-17.98v1.08c0,.57-1.81,1.68-3.74,1.68h-.76V.84l4.88,1.93h17.28l2.12-2.35,4.06,3.27Zm-23.84,22.92h4.95l-1.71-2.76c1.05-.67,1.21-.92,1.21-1.49v-1.01c-1.27.54-2.63.98-4.06,1.33l-.25-.48c2.35-1.11,4.34-2.73,5.71-4.47h-.29c-.38.35-1.81.92-3.04.92h-.51v-7.13l3.8,1.46h6.5l1.59-1.62,3.27,2.38c-.13.19-.41.38-.86.48v3.23c0,.1-.25.22-.57.35l2.25,2v-8.85c-.16.1-.32.13-.54.13h-17.09l-.25-.89h6.91v-2.25h-5.33l-.25-.89h5.58v-2.82l4.92.41c-.03.35-.22.6-.89.73v1.68h1.43l1.71-2.06s1.93,1.4,3.14,2.44c-.06.35-.38.51-.82.51h-5.45v2.25h2.19l1.78-2.19s1.71,1.27,2.98,2.31V3.67h-17.98v22.96Zm17.98,0v-6.75c-.16.22-.48.29-1.05.06-.57.22-1.43.44-2.31.67,5.07,2.63,3.04,6.28.67,4.95-.79-1.49-3.11-4.12-6.18-6.21l.22-.41c1.43.29,2.66.6,3.68.98.51-.54,1.01-1.17,1.43-1.71-.41.1-.86.16-1.21.16h-.67v-.6h-2.44c-.6.67-1.33,1.27-2.16,1.81v3.08c1.08-.29,2.28-.63,3.49-.98l.09.38c-1.11.86-3.49,2.6-5.99,4.28-.09.13-.22.22-.32.32h12.75Zm-5.42-12.75h-6.91v2.98h6.91v-2.98Z"/><path class="cls-2" d="m439.87.37h2.63v35.92h-2.63V.37Z"/><path class="cls-2" d="m482.96,2.46s2.82,2.12,4.53,3.58c-.1.35-.44.51-.92.51h-11.89v4.19h3.81l2-2.25,4.25,3.2c-.22.25-.6.54-1.27.67v9.01c0,2.85-.63,4.47-5.39,4.88-.06-1.46-.19-2.47-.6-3.14-.41-.63-.89-1.17-2.32-1.43v-.38s2.35.13,3.08.13c.44,0,.57-.19.57-.54v-9.26h-4.12v17.57c-.03.29-1.46,1.24-3.93,1.24h-.92V11.62h-4.22v12.78c0,.48-2,1.49-3.93,1.49h-.67V8.87l4.88,1.87h3.93v-4.19h-12.33l-.25-.89h23.21l2.5-3.2Zm-14.59-2.31c10.43-.67,6.72,7.55,2.25,4.85-.38-1.78-1.49-3.55-2.44-4.69l.19-.16Z"/><path class="cls-2" d="m493.24,9.69c2.89,5.87,2.22,9.92.57,12.27-1.14,1.78-3.23,1.78-4.38.54-.89-1.11-.63-2.47.32-3.46,1.59-1.4,3.2-5.1,3.14-9.32l.35-.03Zm9.16-3.14c-.03.41-.32.76-1.11.86v15.79c0,.76.41.98,1.62.98h3.58c1.08,0,2.06-.03,2.66-.06.54-.03.89-.16,1.17-.54.51-.7,1.17-2.38,2-4.72h.32l.13,4.91c1.33.54,1.71,1.08,1.71,1.97,0,2.09-1.81,3.11-8.47,3.11h-3.8c-4.12,0-5.52-.7-5.52-4.22V6.01l5.71.54Zm3.46,3.27c-.54-3.11-2.32-6.47-4.19-8.88l.25-.19c12.27,3.14,8.53,12.59,3.93,9.07Zm8.62,12.75c-.03-3.27-.7-8.21-3.14-11.86l.25-.22c13.19,7.32,6.34,16.9,2.89,12.08Z"/><path class="cls-2" d="m534.69,14.19l3.68,3.08c-.22.29-.63.51-1.27.6-.32,7.2-.92,9.86-2.6,11.07-1.05.79-2.28,1.14-4.06,1.14,0-1.27-.09-2.25-.51-2.82-.44-.6-1.11-1.01-2.22-1.33v-.35c.86.06,2.28.13,2.85.13.44,0,.7-.06.92-.25.7-.57,1.11-3.11,1.33-8.31h-4c-.73,5.07-2.41,10.18-8.05,13.22l-.32-.38c3.93-4.25,4.34-11.13,4.44-17.31-.41.13-.89.19-1.43.19h-.76V.69l4.5,1.68h4.66l1.9-2.09,3.96,3.01c-.19.22-.6.54-1.27.67v7.48c-.03.25-2.19.95-3.55.95h-.73v-1.3h-5.42v.41c0,.19-.44.63-1.24.98l4.79.41c-.06.44-.35.76-1.11.86-.06.82-.16,1.65-.25,2.5h3.55l2.19-2.06Zm-7.93-10.94v6.94h5.42V3.25h-5.42Zm15.82,18.2c0,.32-1.81,1.14-3.42,1.14h-.76V2.84l5.36.48c-.06.44-.32.79-1.17.92v17.22Zm7.8-20.29c-.06.48-.38.76-1.17.89v22.96c0,3.08-.7,4.72-5.68,5.17-.13-1.49-.29-2.54-.86-3.23-.54-.7-1.24-1.17-2.98-1.52v-.41s3.52.22,4.28.22c.51,0,.67-.16.67-.54V.62l5.74.54Z"/><path class="cls-2" d="m578.45,25.54s2.5,1.93,4,3.23c-.09.35-.44.51-.92.51h-28.95l-.25-.89h12.68v-4.25h-8.85l-.25-.89h9.1v-3.2l5.74.44c-.06.44-.25.76-1.14.89v1.87h3.87l2.16-2.79s2.41,1.87,3.87,3.17c-.09.35-.44.51-.89.51h-9v4.25h6.66l2.19-2.85Zm4.28-15.06c-.25.29-.57.38-1.24.41-1.17,1.17-3.14,2.76-4.66,3.68l-.25-.19c.29-1.17.6-2.95.79-4.31h-1.36v6.63c0,2.6-.6,4.19-4.88,4.5-.06-1.21-.16-2.09-.57-2.63-.38-.54-.92-.95-2.38-1.2v-.41s2.57.16,3.14.16c.44,0,.57-.19.57-.51v-6.53h-3.74l-.29-.89h5.36c-.63-1.52-2-3.14-3.17-4.09l.22-.22c2.06-.1,3.55.22,4.53.7.48-.7.98-1.49,1.36-2.19h-7.36c-.16.22-.57.44-1.08.54v7.39c-.03.16-.89.6-1.87.89.7.51,2,1.52,2.89,2.28-.06.35-.41.51-.86.51h-5.14v1.81c1.78-.13,3.68-.25,5.58-.38l.03.41c-2.63,1.08-6.53,2.38-12.56,4.19-.22.41-.57.67-.92.73l-2.09-4.44c1.3-.03,3.42-.13,5.99-.29v-2.03h-5.01l-.25-.89h5.26v-2.73h-1.17v.7c0,.22-1.14,1.05-3.08,1.05h-.67V.94l4.15,1.55h5.55l1.74-1.84,3.36,2.5-.22-.67h7.83l2.09-2.03,3.55,3.36c-.29.25-.6.35-1.27.38-1.24.67-3.14,1.49-4.82,2.09.92.95.86,2.16.22,2.89h1.08l2.03-2.06,3.55,3.36Zm-25.11-7.1v3.04h1.17v-3.04h-1.17Zm1.17,7.1v-3.17h-1.17v3.17h1.17Zm3.96-7.1v3.04h1.14v-3.04h-1.14Zm1.14,3.93h-1.14v3.17h1.14v-3.17Zm1.05,5.04c-.13.03-.25.03-.38.03h-.67v-1.01h-1.14v2.73h.79l1.39-1.74Z"/></g></svg>