<?xml version="1.0" encoding="UTF-8"?><svg xmlns="http://www.w3.org/2000/svg" viewBox="0 0 138.74 138.74"><defs><style>.cls-1{fill:#f9d3e3;}.cls-2{fill:#231815;mix-blend-mode:multiply;opacity:.6;}.cls-3{isolation:isolate;}</style></defs><g class="cls-3"><g id="_圖層_2"><g id="_主視覺"><g><g><circle class="cls-2" cx="69.37" cy="69.37" r="68.75" transform="translate(-28.73 69.37) rotate(-45)"/><path class="cls-1" d="M69.37,138.74C31.12,138.74,0,107.62,0,69.37S31.12,0,69.37,0s69.37,31.12,69.37,69.37-31.12,69.37-69.37,69.37ZM69.37,1.24C31.8,1.24,1.24,31.8,1.24,69.37s30.57,68.13,68.13,68.13,68.13-30.56,68.13-68.13S106.94,1.24,69.37,1.24Z"/></g><g><path class="cls-1" d="M68.49,40.53c-.27,.34-.8,.61-1.63,.76-.38,14.55-1.03,21.72-3.19,24.04-1.41,1.41-3.11,2.05-5.73,2.05,0-1.52-.23-2.62-.91-3.3-.72-.72-2.28-1.33-4.21-1.71v-.53c1.94,.19,4.78,.38,5.77,.38,.72,0,1.1-.15,1.52-.53,1.44-1.29,1.94-8.96,2.24-21.19h-10.9c-1.71,3-3.84,5.81-6.27,7.82l-.04-.04v10.9c-.08,.27-1.97,1.14-3.38,1.14h-.65v-3.15h-3.34v3.83c0,.3-1.22,1.25-3.19,1.25h-.68v-28.14l4.37,1.71h2.47l1.97-2.16,3.95,3.15c-.27,.3-.8,.64-1.52,.8v9.57c2.09-4.14,3.72-10.18,4.52-15.42l6.15,1.41c-.15,.49-.61,.83-1.4,.87-.65,1.75-1.44,3.61-2.39,5.39h9.91l2.47-2.55,4.1,3.65Zm-30.72-3.61v8.89h3.34v-8.89h-3.34Zm3.34,19.14v-9.19h-3.34v9.19h3.34Zm15.68-4.71s2.58,2.2,4.14,3.65c-.11,.42-.53,.61-1.06,.61h-12.72l-.3-1.06h7.67l2.28-3.19Zm-.57-7.4s2.58,2.13,4.06,3.57c-.08,.42-.49,.61-1.06,.61h-10.78l-.3-1.06h5.89l2.2-3.11Z"/><path class="cls-1" d="M103.64,54.89s2.85,2.28,4.56,3.87c-.11,.42-.53,.61-1.06,.61h-33.95l-.34-1.1h6.46v-19.1l4.82,1.82h3.68c.04-1.02,.11-2.2,.19-3.53h-13.52l-.34-1.06h13.9c.08-1.63,.11-3.34,.15-4.78l5.96,.57c-.07,.61-.57,1.03-1.37,1.14-.11,.91-.26,1.97-.46,3.07h7.1l2.55-3.15s2.85,2.13,4.56,3.61c-.08,.42-.49,.61-1.06,.61h-13.29l-.53,3.53h4.71l2.01-2.5,4.78,3.26c-.26,.38-.72,.61-1.71,.8v15.3l2.2-2.96Zm-30.76,12.19c4.25-1.82,8.96-5.09,11.13-7.52l5.13,3.3c-.34,.42-1.1,.57-2.28,.3-3.23,1.82-8.62,3.57-13.82,4.37l-.15-.46Zm10.9-25.03v3.3h12.99v-3.3h-12.99Zm12.99,4.41h-12.99v3.15h12.99v-3.15Zm-12.99,4.22v3.15h12.99v-3.15h-12.99Zm0,7.59h12.99v-3.34h-12.99v3.34Zm9.8,2.16c20.2,.99,12.84,9.15,9.04,5.96-1.56-1.71-4.56-3.91-9.15-5.47l.11-.49Z"/><path class="cls-1" d="M46.5,90.38c-.27,.42-.61,.53-1.44,.65-.57,3.87-1.52,7.56-3.42,10.86,4.14,2.24,9.8,2.73,17.66,2.73,1.97,0,6.57,0,8.96-.04v.46c-1.75,.38-2.58,1.94-2.7,3.72h-6.61c-8.81,0-14.77-.91-18.95-4.6-1.78,2.2-4.18,4.18-7.44,5.66l-.27-.46c2.66-1.97,4.56-4.44,5.81-7.21-1.75-2.32-3.11-5.43-4.18-9.45l.42-.23c1.22,3.34,2.73,5.74,4.67,7.52,1.06-2.96,1.59-6.19,1.9-9.53h-2.28l-1.33,1.37-3.72-2.39c.34-.3,.84-.61,1.37-.8,1.37-2.55,3.27-6.76,4.29-9.42h-6.3l-.34-1.1h6.61l1.9-1.9,3.8,3.42c-.3,.34-.91,.53-1.63,.61-1.03,2.35-2.96,6.45-4.33,9.11h1.67l2.09-2.17,3.8,3.19Zm19.18-9.95s2.09,2.09,3.15,3.42c-.11,.42-.49,.61-.99,.61h-4.25v5.24c-.04,.3-2.09,1.03-3.46,1.03h-.65v-1.29h-3.38v3.88h3.61l2.13-2.81s2.47,1.9,3.91,3.27c-.11,.42-.46,.61-1.03,.61h-8.62v3.95h4.56l2.39-3s2.73,2.01,4.4,3.49c-.11,.42-.53,.61-1.06,.61h-10.29v3.53c0,.34-1.75,1.14-3.42,1.14h-.84v-4.67h-7.75l-.3-1.1h8.05v-3.95h-6l-.3-1.06h6.3v-3.88h-5.54l-.34-1.1h5.89v-3.87h-8.35l-.3-1.1h8.66v-3.83h-5.92l-.34-1.06h6.27v-4.18l5.66,.53c-.08,.57-.38,.95-1.41,1.1v2.55h3l1.9-2.05,4.06,3.04c-.23,.26-.76,.61-1.48,.76v3.15h.27l1.82-2.92Zm-9.57,2.92h3.38v-3.83h-3.38v3.83Zm3.38,1.1h-3.38v3.87h3.38v-3.87Z"/><path class="cls-1" d="M85.64,79.14s2.17,1.71,3.49,2.96c-.07,.42-.49,.61-1.02,.61h-15.34l-.3-1.1h11.28l1.9-2.47Zm8.28,.84c0,3.11-.69,8.24-7.06,11.2,.23,.23,.49,.46,.72,.68-.11,.42-.49,.61-1.03,.61h-12.23l-.3-1.1h8.36l1.82-2.32s1.06,.83,2.13,1.71c3.19-3.3,3.61-7.44,3.61-10.78v-4.71l4.67,1.71h3.23l2.01-2.16,3.68,3.04c-.23,.27-.68,.46-1.37,.57v6.26c0,.38,.11,.53,.61,.53h1.97c.23,0,.61-.04,.8-.04,.23-.04,.61-.11,.87-.15h.34l.15,.04c.91,.46,1.25,.84,1.25,1.59,0,1.52-1.29,2.35-4.94,2.35h-1.82c-2.85,0-3.19-.8-3.19-3.27v-7.71h-4.29v1.94Zm-11.54,6.49l1.82-2.39s2.05,1.67,3.34,2.89c-.11,.42-.49,.61-1.03,.61h-12.15l-.3-1.1h8.32Zm.3,21.49v-2.05h-4.29v2.28c0,.38-1.67,1.25-3.3,1.25h-.57v-14.73l4.03,1.63h3.8l1.82-1.94,3.87,2.89c-.23,.27-.72,.57-1.44,.72v8.81c-.04,.3-1.94,1.14-3.27,1.14h-.64Zm-6.15-33.19c10.02,.49,6.42,8.09,2.39,5.43-.27-1.9-1.52-3.95-2.66-5.2l.27-.23Zm6.15,30.08v-7.44h-4.29v7.44h4.29Zm23.28-11.85c-.27,.38-.68,.49-1.59,.57-1.33,3.23-3.15,6.04-5.58,8.47,2.77,1.56,6.04,2.58,9.49,3.27l-.04,.42c-1.75,.38-3.04,1.71-3.61,3.76-3.42-1.29-6.3-2.85-8.62-5.09-3.23,2.43-7.4,4.21-12.53,5.39l-.23-.49c4.44-1.75,8.09-4.1,10.86-7.06-1.82-2.43-3.19-5.47-4.06-9.38h-1.82l-.34-1.1h11.7l2.43-2.32,3.95,3.57Zm-15.23-.15c1.14,3.07,2.89,5.43,5.16,7.25,1.67-2.2,2.92-4.6,3.8-7.25h-8.96Z"/></g></g></g></g></g></svg>