<?xml version="1.0" encoding="UTF-8"?><svg id="_圖層_2" xmlns="http://www.w3.org/2000/svg" viewBox="0 0 350.14 110.46"><defs><style>.cls-1{stroke-linecap:round;stroke-linejoin:round;}.cls-1,.cls-2{stroke-width:1.42px;}.cls-1,.cls-2,.cls-3{fill:none;stroke:#fff;}.cls-2{stroke-miterlimit:22.93;}.cls-4{fill:#fff;}.cls-3{stroke-miterlimit:10;stroke-width:.99px;}</style></defs><g id="_圖片"><g><g><line class="cls-1" x1="66.71" y1="26.55" x2="66.71" y2="73.15"/><line class="cls-1" x1="6.14" y1="73.15" x2="6.14" y2="26.55"/><polygon class="cls-1" points="14.21 4.49 58.64 4.49 72.14 26.13 47.89 26.13 36.42 15.26 24.96 26.13 .71 26.13 14.21 4.49 14.21 4.49"/><path class="cls-1" d="M28.56,73.15v-17.05c0-4.12,3.54-7.5,7.87-7.5h0c4.33,0,7.87,3.37,7.87,7.5v17.05"/><polygon class="cls-1" points="14.05 35.15 20.53 35.15 20.53 44.32 14.05 44.32 14.05 35.15 14.05 35.15"/><polygon class="cls-1" points="14.05 52.99 20.53 52.99 20.53 64.53 14.05 64.53 14.05 52.99 14.05 52.99"/><polygon class="cls-1" points="52.32 52.99 58.79 52.99 58.79 64.53 52.32 64.53 52.32 52.99 52.32 52.99"/><polygon class="cls-1" points="52.32 35.15 58.79 35.15 58.79 44.32 52.32 44.32 52.32 35.15 52.32 35.15"/><path class="cls-2" d="M36.42,27.34c2.77,0,5.02,2.25,5.02,5.02s-2.25,5.02-5.02,5.02-5.02-2.25-5.02-5.02,2.25-5.02,5.02-5.02h0Z"/><line class="cls-1" x1="2.01" y1="73.15" x2="70.84" y2="73.15"/></g><g><path class="cls-1" d="M340.3,44.12l4.66-4.65c8.02-8.01,4.06-18.84-2.41-25.78-2.13-2.29-4.56-4.28-7.08-5.69-3.28-1.84-13.58-4.54-20.31,2.02l-13.97,13.9c-3.77,3.75,5.74,7.38,10.56,2.64l3.52-3.47c5.2-4.71,11.73,4.73,19.87-1.69"/><path class="cls-1" d="M285.92,41.92l-4.65-4.64c-15.49-15.47,11.34-42.02,27.06-26.72l3.13,3.12"/><path class="cls-1" d="M322.7,26.45l17.99,18.86c3.67,3.85-1.78,11.18-6.49,6.32l-8.43-8.69"/><path class="cls-1" d="M318.42,48.79l9.27,9.52c3.71,3.81,11.22-1.82,6.51-6.69l-9.06-9.35"/><path class="cls-1" d="M315.6,59.32l4.63,4.67c3.75,3.78,11.02-1.61,6.35-6.52"/><path class="cls-2" d="M296.96,38.1l.49,.49c1.67,1.67,1.67,4.42,0,6.09l-6.41,6.41c-1.67,1.67-4.42,1.67-6.08,0l-.49-.49c-1.67-1.67-1.67-4.41,0-6.09l6.41-6.41c1.67-1.67,4.42-1.67,6.09,0h0Zm10.78,2.93l.49,.49c1.67,1.67,1.67,4.42,0,6.08l-10.2,10.2c-1.67,1.67-4.42,1.67-6.08,0l-.49-.49c-1.67-1.67-1.67-4.41,0-6.08l10.2-10.2c1.67-1.67,4.41-1.67,6.09,0h0Zm4.17,9.54l.49,.49c1.67,1.67,1.67,4.41,0,6.09l-7,7c-1.67,1.67-4.41,1.67-6.09,0l-.49-.49c-1.67-1.67-1.67-4.41,0-6.08l7-7c1.67-1.67,4.41-1.67,6.08,0h0Zm4.5,9.1l.49,.49c1.67,1.67,1.67,4.42,0,6.08l-4.3,4.3c-1.67,1.67-4.42,1.67-6.08,0l-.49-.49c-1.67-1.67-1.67-4.41,0-6.09l4.3-4.3c1.67-1.67,4.41-1.67,6.09,0h0Z"/></g><g><path class="cls-1" d="M128.75,8.41c18.54,0,33.58,13.37,33.58,29.85,0,.53-.02,1.05-.05,1.57-1.26-4.44-5.68-7.72-11.16-7.72s-9.65,3.53-10.7,8.21c-1.06-4.68-6.29-8.21-11.87-8.21s-10.23,3.53-11.29,8.21c-1.06-4.68-5.71-8.21-11.29-8.21-4.95,0-9.17,2.78-10.8,6.67,0-.18,0-.35,0-.53,0-16.49,15.03-29.85,33.58-29.85h0Z"/><line class="cls-1" x1="128.75" y1="2.48" x2="128.75" y2="8.15"/><path class="cls-1" d="M128.75,32.33v32.78c0,3.91-3.27,8.36-7.26,8.36h0c-3.99,0-7.26-4.43-7.26-8.36v-2.65"/><path class="cls-1" d="M117.09,38.79c0-.18,0-.35,0-.53,0-16.49,5.2-29.85,11.61-29.85s11.61,13.37,11.61,29.85c0,.53,0,1.05-.02,1.57"/></g><g><path class="cls-1" d="M233.99,23.65c-.02,11.01-6.12,19.92-13.63,19.92s-13.61-8.91-13.63-19.92"/><path class="cls-1" d="M239.14,19.44v.04c0,.08-.02,.15-.06,.23-.72,1.55-8.29,2.55-17.76,2.62h0c-.64,0-1.29,0-1.93,0h0c-9.47-.06-17.04-1.07-17.76-2.62-.04-.07-.06-.15-.06-.23v-.04c-.04-1.71,1.42-2.86,3.77-2.78v-2.16c0-18.43,30.03-18.35,30.03,0v2.16c2.35-.08,3.81,1.07,3.77,2.78h0Z"/><path class="cls-1" d="M194.44,50.39l4.03-1.75,.88,24.51h-12.24l2.37-17.81c.18-1.35,.74-2.59,1.59-3.49,.85-.89,2.11-.92,3.36-1.46h0Z"/><path class="cls-1" d="M242.01,48.64l4.27,1.75c2.52,1.03,4.59,2.27,4.95,4.95l2.37,17.81h-12.47l.88-24.51h0Z"/><polyline class="cls-1" points="199.84 47.98 206.95 44.26 208 63.11 232.71 63.11 233.77 44.26 240.88 47.98"/><line class="cls-1" x1="240.65" y1="73.15" x2="200.06" y2="73.15"/><line class="cls-1" x1="217.49" y1="1.06" x2="217.49" y2="11.12"/><line class="cls-1" x1="223.23" y1="1.06" x2="223.23" y2="11.12"/></g><g><path class="cls-4" d="M101.39,102.88c0,.11-.08,.17-.22,.17h-.54c-.14,0-.21-.06-.21-.17v-11.88c0-.1,.07-.15,.21-.15h3.65c.14,0,.25,.03,.32,.07,.22,.18,.33,.31,.33,.36l-1.53,3.51c-.03,.08-.04,.14-.04,.19s.03,.11,.08,.18c.4,.43,.75,.95,1.03,1.53,.27,.63,.4,1.25,.4,1.87,0,.53-.1,1-.28,1.39-.21,.42-.5,.7-.88,.86-.25,.17-.66,.25-1.24,.25-.22,0-.33-.07-.33-.22-.04-.31-.11-.54-.21-.7,0-.07,.06-.11,.17-.11l.6,.06c.45,0,.77-.15,.96-.47,.19-.25,.29-.61,.29-1.06s-.11-.93-.33-1.49c-.29-.61-.71-1.2-1.25-1.77-.08-.06-.11-.11-.11-.17,0-.04,.01-.11,.04-.19l1.59-3.29h-2.5v11.22Zm8.06-12.25c0,.13-.06,.19-.14,.21-.08,.01-.13,.11-.13,.28v1.59h3.32c.11,0,.17,.07,.17,.21v.43c0,.15-.06,.22-.17,.22h-4.7s-.01,.04-.01,.06c-.01,.75-.04,1.42-.07,2.01h4.07c.11,0,.17,.08,.17,.22-.03,1.92-.1,3.29-.19,4.13-.14,1-.31,1.74-.52,2.23-.21,.52-.75,.78-1.63,.78-.81,0-1.23-.13-1.25-.35-.06-.25-.22-.56-.49-.91v-.11c.63,.22,1.21,.33,1.74,.33,.45,0,.74-.18,.88-.54,.14-.29,.26-.86,.36-1.71,.08-.64,.15-1.71,.19-3.19h-3.4c-.06,.53-.11,.99-.18,1.38-.22,1.14-.52,2.08-.88,2.8-.39,.78-.91,1.49-1.55,2.13-.14,0-.24-.01-.29-.03-.19-.11-.38-.24-.56-.35-.1-.01-.14-.06-.14-.11s.03-.1,.1-.15c.71-.59,1.28-1.34,1.7-2.27,.38-.89,.64-1.84,.78-2.87,.13-.81,.18-1.97,.18-3.47h-1.77c-.11,0-.17-.07-.17-.22v-.43c0-.14,.06-.21,.17-.21h3.15v-2.08c0-.11,.07-.17,.22-.17,.68,0,1.03,.06,1.03,.17Z"/><path class="cls-4" d="M119.3,93.62c.08,0,.18,.03,.28,.08,.17,.13,.26,.22,.26,.29-.11,.78-.21,1.41-.32,1.91-.14,.54-.31,1.07-.5,1.59-.13,.33-.31,.71-.53,1.13-.22,.42-.47,.79-.78,1.16-.22,.28-.5,.56-.86,.84-.28,.24-.68,.5-1.2,.79-.1,0-.18-.04-.24-.15-.2-.14-.4-.29-.6-.43-.06-.06-.08-.1-.08-.13,0-.04,.01-.07,.06-.1,.56-.22,1-.49,1.37-.77,.38-.28,.71-.6,.99-.98,.33-.39,.59-.78,.77-1.16,.22-.45,.4-.93,.56-1.44,.11-.45,.24-1.03,.36-1.73h-3.4c-.11,0-.15-.07-.15-.21v-.54c0-.11,.04-.17,.15-.17h3.88Zm3.09-2.91c.11,.06,.17,.11,.17,.14,0,.1-.07,.14-.18,.14-.21,.08-.31,.33-.31,.72v1.45c.18,.75,.39,1.39,.61,1.94,1.03-.78,1.92-1.53,2.66-2.26,.17-.13,.31-.19,.43-.19,.06,0,.13,.04,.21,.1,.58,.42,.88,.68,.88,.77,0,.19-.06,.28-.17,.28l-.32-.11c-.17,0-.35,.08-.57,.24-.75,.56-1.66,1.27-2.72,2.13,.14,.33,.31,.66,.49,.93,.52,.82,1.13,1.53,1.85,2.15,.66,.57,1.39,1,2.2,1.28,.06,.06,.1,.1,.1,.13,0,.08-.04,.17-.13,.22-.17,.17-.33,.35-.47,.54-.06,.11-.13,.15-.21,.15-.07,0-.26-.11-.59-.36-1.09-.7-1.98-1.48-2.69-2.37-.56-.71-.99-1.45-1.28-2.22-.1-.17-.2-.4-.29-.7v6.15c0,.72-.52,1.09-1.52,1.09h-1.42c-.08,0-.11-.1-.11-.27-.04-.2-.13-.42-.26-.67,0-.11,.03-.15,.11-.15,.59,.1,1.1,.15,1.57,.15,.39,0,.6-.17,.6-.49v-9.97c0-.29-.01-.52-.03-.68-.03-.11-.03-.21-.03-.29,0-.07,.07-.11,.22-.11l1.18,.14Z"/><path class="cls-4" d="M134.22,91.17c0,.08-.04,.13-.11,.13-.17,.01-.28,.07-.32,.15-.42,1.02-.84,1.85-1.25,2.51v9.03c0,.11-.08,.17-.22,.17h-.54c-.15,0-.22-.06-.22-.17v-7.71c-.32,.39-.72,.84-1.2,1.34-.11,0-.19-.04-.28-.13-.14-.11-.29-.24-.43-.36-.07-.04-.1-.1-.1-.17,.4-.42,.81-.88,1.23-1.35,.53-.61,1-1.31,1.39-2.06,.33-.67,.61-1.32,.81-1.98,.01-.07,.06-.11,.11-.11,.75,.4,1.14,.64,1.14,.71Zm7.24-.11c.14,0,.22,.06,.22,.17v4.68c0,.11-.08,.17-.22,.17h-.54c-.14,0-.21-.06-.21-.17v-.6h-2.08v2.02h3.71c.11,0,.17,.07,.17,.21v.43c0,.15-.06,.22-.17,.22h-3.51c.42,.59,.78,1.05,1.1,1.35,.4,.45,.89,.86,1.46,1.23,.47,.31,.95,.54,1.44,.68,0,.08-.06,.13-.14,.15-.19,.19-.36,.38-.49,.56-.06,.07-.11,.11-.14,.11-.72-.38-1.32-.75-1.77-1.14-.53-.43-.96-.91-1.32-1.41-.11-.14-.22-.28-.33-.43v3.69c0,.11-.07,.17-.21,.17h-.54c-.15,0-.22-.06-.22-.17v-3.47c-.15,.19-.29,.36-.4,.5-.39,.47-.81,.89-1.25,1.28-.53,.43-1.05,.78-1.56,1.09-.11,0-.18-.04-.24-.1-.18-.17-.36-.33-.53-.47-.03-.06-.04-.11-.04-.14,.49-.24,.89-.47,1.21-.71,.46-.29,.93-.71,1.44-1.25,.28-.31,.68-.81,1.18-1.52h-3.29c-.11,0-.17-.07-.17-.22v-.43c0-.14,.06-.21,.17-.21h3.49v-2.02h-2.02v.66c0,.11-.07,.17-.21,.17h-.54c-.15,0-.22-.06-.22-.17v-4.68c0-.14,.07-.22,.22-.22h6.58Zm-.75,3.39v-2.51h-5.07v2.51h5.07Z"/><path class="cls-4" d="M156.42,90.96c.14,0,.22,.06,.22,.15v11.71c0,.11-.08,.17-.22,.17h-.54c-.14,0-.21-.06-.21-.17v-.38h-9.21v.38c0,.11-.07,.17-.21,.17h-.54c-.15,0-.22-.06-.22-.17v-11.65c0-.14,.07-.21,.22-.21h10.72Zm-.75,10.61v-9.74h-9.21v9.74h9.21Zm-5.19-7.63v-1.41c0-.11,.07-.17,.22-.17,.68,0,1.03,.06,1.03,.17,0,.13-.04,.19-.13,.19-.1,.03-.14,.13-.14,.29v.92h3.15c.11,0,.17,.08,.17,.22v.43c0,.15-.06,.22-.17,.22h-3.15v1.74h2.29c.14,0,.21,.06,.21,.17v3.75c0,.11-.07,.17-.21,.17h-.54c-.15,0-.22-.06-.22-.17v-.43h-3.92v.43c0,.11-.08,.17-.22,.17h-.54c-.14,0-.21-.06-.21-.17v-3.75c0-.11,.07-.17,.21-.17h2.17v-1.74h-2.93c-.11,0-.17-.07-.17-.22v-.43c0-.14,.06-.22,.17-.22h2.93Zm2.51,5.23v-1.8h-3.92v1.8h3.92Z"/></g><g><path class="cls-4" d="M11.94,90.96c.04,.1,.07,.15,.07,.15,0,.08-.08,.13-.24,.13-.22,0-.36,.06-.42,.15-.66,.72-1.27,1.38-1.85,1.97,.33,.28,.67,.59,1,.91,.56-.61,1.02-1.17,1.39-1.67,.64,.56,.98,.86,.98,.92s-.07,.08-.18,.08c-.25,0-.4,.04-.46,.1-.86,.98-1.7,1.88-2.54,2.69,.7-.06,1.55-.14,2.55-.22-.17-.38-.35-.75-.57-1.12,0-.06,.24-.21,.71-.45,.31,.6,.57,1.14,.77,1.64,.19,.46,.35,.95,.49,1.46,0,.03-.28,.13-.82,.27-.06-.31-.15-.7-.32-1.17l-1.58,.31v5.77c0,.11-.08,.17-.22,.17h-.54c-.15,0-.22-.06-.22-.17v-5.58l-1.84,.35c-.26,.29-.42,.43-.45,.43-.04,0-.13-.45-.26-1.35,0-.04,.33-.11,1-.2,.66-.67,1.21-1.25,1.66-1.76-.52-.39-.91-.67-1.17-.85-.4-.22-.84-.43-1.28-.63,0-.08,.19-.32,.59-.74,.03-.06,.07-.08,.13-.08,.17,.11,.33,.22,.5,.33,.36-.38,.7-.74,.99-1.1,.5-.6,.85-1.05,1.07-1.35l1.07,.6Zm-2.65,7.67c0,.11-.06,.18-.17,.22-.08,.07-.13,.15-.13,.25-.07,.84-.15,1.52-.25,2.05-.06,.31-.13,.6-.21,.91-.03,.07-.06,.11-.07,.11-.31-.1-.59-.17-.81-.2-.08-.03-.11-.07-.11-.13,.13-.39,.24-.84,.35-1.31,.1-.47,.18-1.16,.24-2.08,0-.1,.03-.15,.11-.15,.7,.14,1.05,.25,1.05,.32Zm3.09-.27c.26,.67,.57,1.74,.93,3.21,0,.11-.28,.19-.82,.28-.13,0-.18-.04-.18-.14-.15-1-.38-2.06-.68-3.18,0-.08,.22-.18,.7-.28,.03,0,.04,.04,.06,.11Zm3.97-5.94v-1.74c0-.11,.07-.17,.22-.17,.68,0,1.03,.06,1.03,.17,0,.13-.06,.2-.14,.21-.08,.01-.13,.11-.13,.28v1.25h2.94c.1,0,.15,.08,.15,.22v.43c0,.15-.06,.22-.15,.22h-2.94v2.44h2.5c.11,0,.17,.08,.17,.22v.43c0,.15-.06,.22-.17,.22h-5.72c-.11,0-.15-.07-.15-.22v-.43c0-.14,.04-.22,.15-.22h2.23v-2.44h-2.72c-.11,0-.17-.07-.17-.22v-.43c0-.14,.06-.22,.17-.22h2.72Zm3.39,5.51c.14,0,.21,.06,.21,.15v4.8c0,.11-.07,.17-.21,.17h-.54c-.15,0-.22-.06-.22-.17v-.54h-3.86v.54c0,.11-.08,.17-.22,.17h-.54c-.15,0-.22-.06-.22-.17v-4.74c0-.14,.07-.21,.22-.21h5.39Zm-.77,3.53v-2.66h-3.86v2.66h3.86Z"/><path class="cls-4" d="M24.21,93.13v-2.51c0-.11,.07-.17,.21-.17,.68,0,1.03,.06,1.03,.17,0,.13-.04,.19-.13,.21-.1,.01-.14,.11-.14,.28v2.02h1.41c.07,0,.11,.06,.11,.17v.43c0,.14-.04,.21-.11,.21h-1.27c.17,.56,.32,.99,.47,1.3,.19,.46,.52,.98,.99,1.56,.06,.04,.08,.08,.08,.14,0,.03-.04,.07-.1,.13-.11,.14-.24,.28-.4,.42-.07,.08-.13,.11-.15,.11-.04,0-.1-.03-.15-.08-.32-.45-.6-.95-.84-1.51-.03-.03-.04-.07-.04-.11v7.04c0,.11-.08,.17-.22,.17h-.54c-.14,0-.21-.06-.21-.17v-5.7c-.06,.19-.13,.39-.18,.56-.19,.56-.4,1.07-.64,1.55-.11,0-.18-.01-.22-.07-.2-.1-.39-.2-.59-.29-.08,0-.11-.01-.11-.07,.32-.61,.59-1.2,.79-1.77,.2-.54,.36-1.07,.47-1.6,.1-.33,.21-.86,.32-1.59h-1.1c-.08,0-.11-.07-.11-.21v-.43c0-.11,.03-.17,.11-.17h1.25Zm4.57-1.58v-.82c0-.07,.04-.11,.15-.11,.66,0,.99,.06,.99,.17s-.04,.18-.11,.18c-.08,.01-.11,.1-.11,.25v.33h2.23v-.82c0-.07,.06-.11,.17-.11,.64,0,.98,.06,.98,.17s-.04,.18-.11,.18c-.07,.01-.1,.1-.1,.25v.33h1.74c.06,0,.1,.06,.1,.15v.43c0,.15-.04,.22-.1,.22h-1.74v.98h1.2c.06,0,.1,.06,.1,.17v.43c0,.11-.04,.17-.1,.17h-1.2v.88h2.12c.07,0,.11,.06,.11,.15v.45c0,.14-.04,.21-.11,.21h-3.81v.77h2.5c.18,0,.28,.06,.28,.17v3.32h1.09c.07,0,.11,.06,.11,.17v.43c0,.14-.04,.21-.11,.21h-1.09v1.59c0,.22-.17,.42-.5,.56-.33,.1-.74,.17-1.24,.2-.11,0-.17-.06-.18-.15-.01-.19-.11-.49-.31-.88,0-.03,.03-.04,.08-.04,.56,0,.88-.03,.99-.07,.11-.06,.17-.14,.17-.25v-.95h-4.57v2.08c0,.11-.07,.17-.21,.17h-.54c-.15,0-.22-.06-.22-.17v-2.08h-1.03c-.08,0-.11-.07-.11-.21v-.43c0-.11,.03-.17,.11-.17h1.03v-3.32c0-.11,.07-.17,.22-.17h2.61v-.77h-3.49c-.08,0-.11-.07-.11-.21v-.45c0-.1,.03-.15,.11-.15h2.02v-.88h-1.2c-.08,0-.11-.06-.11-.17v-.43c0-.11,.03-.17,.11-.17h1.2v-.98h-1.63c-.08,0-.11-.07-.11-.22v-.43c0-.1,.03-.15,.11-.15h1.63Zm1.46,6.8v-.99h-1.85v.99h1.85Zm0,1.69v-.93h-1.85v.93h1.85Zm1.69-7.68h-2.23v.98h2.23v-.98Zm0,2.62v-.88h-2.23v.88h2.23Zm-.75,3.37h1.78v-.99h-1.78v.99Zm1.78,1.69v-.93h-1.78v.93h1.78Z"/><path class="cls-4" d="M44.66,94.23c.04,.08,.07,.14,.07,.15,0,.1-.06,.15-.17,.17-.27,.01-.4,.07-.43,.15-.27,.45-.56,.92-.86,1.42h6.58c.11,0,.17,.06,.17,.15v.54c0,.15-.06,.22-.17,.22h-2.73c-.17,.49-.36,.93-.59,1.35-.29,.61-.63,1.14-1,1.56-.08,.1-.17,.18-.24,.27,.15,.07,.29,.14,.42,.2,1.44,.72,2.65,1.38,3.65,1.97,0,0-.03,.04-.07,.13-.31,.42-.47,.64-.47,.64-1.37-.84-2.8-1.59-4.29-2.27-.14,.1-.26,.18-.4,.26-.5,.35-1.11,.67-1.83,.98-.89,.36-1.95,.71-3.16,1.03-.11,0-.17-.04-.18-.1-.13-.17-.26-.39-.42-.66-.08-.07-.11-.13-.11-.18,.24,0,.56-.07,.98-.18,.53-.11,1.1-.24,1.71-.43,.81-.29,1.51-.6,2.09-.92,.13-.08,.25-.17,.36-.25-1.06-.45-1.97-.79-2.72-1.03-.21,.25-.42,.5-.63,.75-.08,0-.15-.03-.2-.08-.18-.08-.36-.15-.56-.22-.06-.01-.07-.06-.07-.14,.84-1,1.48-1.85,1.95-2.52,.03-.06,.07-.1,.1-.14h-3.68c-.11,0-.17-.07-.17-.22v-.54c0-.1,.06-.15,.17-.15h4.31c.33-.5,.63-1,.88-1.49,.22-.42,.39-.77,.47-1.02,.03-.07,.07-.11,.11-.11l1.13,.72Zm.01-3.56c0,.13-.06,.2-.14,.21-.1,.01-.14,.11-.14,.28v.71h4.8c.14,0,.22,.06,.22,.17v2.72c0,.11-.08,.17-.22,.17h-.54c-.14,0-.21-.06-.21-.17v-2.02h-9.48v2.02c0,.11-.08,.17-.22,.17h-.54c-.14,0-.21-.06-.21-.17v-2.66c0-.14,.07-.22,.21-.22h5.17v-1.2c0-.11,.07-.17,.22-.17,.73,0,1.09,.06,1.09,.17Zm-2.02,6.37s-.03,.04-.03,.04c-.33,.47-.72,1-1.18,1.59,1.1,.4,2.08,.78,2.91,1.13,.03-.01,.04-.03,.06-.04,.4-.39,.75-.85,1.05-1.37,.22-.35,.45-.8,.64-1.35h-3.44Z"/><path class="cls-4" d="M55.78,91.71c-.11,0-.17-.07-.17-.21v-.54c0-.11,.06-.17,.17-.17h3.15c.13,0,.24,.06,.32,.14,.61,1.24,1.24,2.11,1.88,2.61,.78,.78,2.04,1.32,3.76,1.65,.19,.03,.29,.1,.29,.18,0,.06-.03,.1-.08,.15-.2,.17-.35,.32-.49,.46-.07,.11-.15,.15-.24,.15-.5-.14-.96-.29-1.37-.46v.4c0,.14-.06,.21-.17,.21h-3.64v2.19h3.54c.1,0,.15,.06,.15,.15v.54c0,.15-.06,.22-.15,.22h-3.54v2.4h5.12c.11,0,.17,.06,.17,.17v.54c0,.14-.06,.21-.17,.21h-11.39c-.11,0-.15-.07-.15-.21v-.54c0-.11,.04-.17,.15-.17h5.23v-2.4h-3.64c-.11,0-.17-.07-.17-.22v-.54c0-.1,.06-.15,.17-.15h3.64v-2.19h-3.81c-.11,0-.17-.07-.17-.21v-.31c-.72,.39-1.14,.57-1.25,.57-.06,0-.13-.06-.18-.18-.14-.15-.29-.32-.46-.52-.08-.07-.11-.13-.11-.17,.89-.31,1.67-.64,2.31-.99,.64-.36,1.27-.82,1.91-1.39,.31-.31,.7-.77,1.16-1.38h-1.78Zm6.5,3.65c-.81-.36-1.44-.74-1.9-1.16-.57-.5-1.16-1.31-1.77-2.41-.32,.5-.66,.92-.99,1.25-.46,.54-.93,1.02-1.42,1.41-.4,.33-.84,.63-1.3,.91h7.37Z"/></g><g><path class="cls-4" d="M195.38,90.96c.04,.1,.07,.15,.07,.15,0,.08-.08,.13-.24,.13-.22,0-.36,.06-.42,.15-.53,.89-1.02,1.71-1.49,2.45,.31,.31,.6,.61,.88,.93,.17-.22,.31-.42,.45-.6,.56-.75,1.03-1.42,1.42-2.04,.64,.53,.98,.82,.98,.88,0,.07-.07,.1-.18,.1-.24,0-.38,.04-.43,.11-.88,1.23-1.74,2.34-2.58,3.36,.6-.06,1.32-.13,2.16-.21-.14-.33-.31-.68-.49-1.02,0-.06,.22-.2,.7-.43,.17,.31,.31,.59,.45,.85,0,.03,.01,.06,.03,.06,.11,.24,.22,.46,.31,.67,.18,.45,.33,.92,.47,1.42,0,.03-.29,.13-.86,.26-.06-.32-.18-.72-.35-1.2h-.01s-1.32,.28-1.32,.28v5.6c0,.11-.08,.17-.22,.17h-.54c-.15,0-.22-.06-.22-.17v-5.38l-1.69,.38c-.22,.25-.35,.38-.38,.38-.04,0-.14-.43-.28-1.31,0-.04,.35-.11,1.06-.21,.42-.5,.79-.98,1.13-1.39-.47-.43-.84-.74-1.09-.93-.39-.28-.78-.52-1.2-.73,0-.08,.18-.32,.57-.72,.03-.06,.07-.1,.13-.1,.17,.13,.32,.25,.47,.38,.29-.42,.56-.84,.78-1.24,.4-.72,.7-1.27,.88-1.63l1.07,.6Zm-1.84,7.89c0,.1-.06,.17-.17,.22-.11,.07-.17,.15-.18,.27-.1,.89-.22,1.62-.36,2.19-.1,.31-.21,.63-.32,.96-.06,.07-.08,.11-.11,.11-.31-.1-.59-.17-.81-.19-.08-.03-.11-.07-.11-.13,.19-.42,.36-.88,.52-1.39,.14-.5,.26-1.23,.35-2.2,0-.1,.06-.15,.17-.15,.68,.14,1.03,.25,1.03,.32Zm2.72-.22c.28,.64,.61,1.66,.99,3.05,0,.08-.26,.14-.77,.22-.14,0-.19-.06-.19-.14-.17-.95-.4-1.95-.72-3.03,0-.06,.21-.13,.64-.21,.03,0,.04,.04,.06,.1Zm3.72-7.97c.1,.08,.15,.14,.15,.19,0,.08-.04,.14-.11,.15-.13,0-.19,.07-.21,.21-.18,.64-.33,1.17-.47,1.59h1.95c.28-.63,.56-1.39,.85-2.29,.03-.07,.08-.11,.17-.11l.75,.2c.11,.03,.17,.1,.17,.19,0,.14-.06,.2-.17,.2-.08,.03-.13,.1-.15,.18-.22,.61-.45,1.16-.67,1.63h1.76c.11,0,.17,.08,.17,.22v.43c0,.15-.06,.22-.17,.22h-1.85v2.12h1.63c.11,0,.17,.08,.17,.22v.43c0,.15-.06,.22-.17,.22h-1.63v1.9h1.63c.11,0,.17,.08,.17,.22v.43c0,.15-.06,.22-.17,.22h-1.63v2.01h2.02c.1,0,.15,.08,.15,.22v.43c0,.14-.06,.22-.15,.22h-4.96v.54c0,.11-.07,.17-.21,.17h-.54c-.11,0-.17-.06-.17-.17v-7.75c-.24,.38-.47,.71-.71,1-.13,0-.22-.01-.29-.06-.18-.07-.36-.14-.54-.2-.03,0-.06-.01-.06-.04-.03,0-.03-.01-.03-.04h0c0-.07,.03-.1,.06-.13,.45-.52,.84-1.14,1.2-1.9,.19-.42,.38-.88,.54-1.37,.17-.52,.32-1.19,.49-1.99,.03-.07,.06-.11,.11-.11l.93,.35Zm1.24,3.02h-2.02v2.12h2.02v-2.12Zm0,4.89v-1.9h-2.02v1.9h2.02Zm0,2.89v-2.01h-2.02v2.01h2.02Z"/><path class="cls-4" d="M210.24,90.75c.11,.08,.18,.15,.18,.21,0,.11-.06,.18-.17,.21-.14,0-.24,.08-.26,.22-.33,1.14-.61,1.98-.85,2.54-.06,.11-.1,.22-.14,.31v8.64c0,.11-.08,.17-.22,.17h-.54c-.14,0-.21-.06-.21-.17v-6.8c-.25,.36-.5,.68-.77,.98-.14,0-.25-.01-.33-.06-.19-.08-.4-.15-.6-.22-.07-.03-.1-.07-.1-.1,0-.07,.01-.13,.07-.15,.54-.59,1.03-1.31,1.46-2.17,.25-.49,.47-1.02,.67-1.58,.21-.59,.42-1.35,.61-2.27,.03-.08,.07-.14,.13-.14l1.07,.39Zm.93,2.38c0,.11-.04,.18-.1,.18-.08,.01-.11,.1-.11,.25v7.63c0,.11-.08,.17-.22,.17h-.54c-.11,0-.17-.06-.17-.17v-8.11c0-.07,.06-.11,.17-.11,.64,0,.98,.06,.98,.17Zm7.96,6.55c.1,.06,.15,.13,.15,.2,0,.06-.06,.08-.17,.08-.1,0-.17,.06-.21,.14-.43,.43-.86,.78-1.28,1.05-.59,.39-1.24,.72-1.99,1.02-.68,.25-1.44,.49-2.24,.7-.54,.13-.99,.22-1.34,.29-.14,0-.22-.04-.24-.11-.13-.25-.28-.49-.47-.71,.67-.11,1.35-.25,2.04-.42,.78-.19,1.51-.43,2.15-.71,.66-.25,1.23-.56,1.71-.92,.35-.25,.67-.56,.96-.89,.01-.07,.03-.11,.06-.11l.88,.4Zm-4.67-8.94c.13,.06,.19,.13,.19,.21,0,.1-.07,.17-.21,.21-.18,0-.29,.08-.33,.22-.06,.13-.11,.24-.15,.32h4.78c.11,0,.17,.08,.17,.22v.43c0,.15-.06,.22-.17,.22h-.91c-.08,.22-.17,.45-.25,.64-.18,.42-.4,.78-.67,1.09-.19,.25-.42,.49-.68,.74,.31,.21,.7,.39,1.17,.56,.46,.19,1.06,.36,1.81,.5,.08,.03,.13,.04,.13,.07,0,.06-.03,.11-.07,.14-.17,.14-.32,.31-.49,.49-.07,.08-.13,.13-.15,.13s-.11-.01-.24-.07c-.36-.08-.75-.21-1.17-.36-.5-.2-.98-.4-1.39-.66-.13-.07-.24-.14-.32-.21-.22,.17-.45,.29-.67,.4-.45,.24-.86,.42-1.28,.56-.39,.13-.8,.24-1.24,.33-.08,0-.14-.03-.2-.1-.15-.2-.31-.39-.47-.57-.06-.06-.08-.1-.08-.14,0-.03,.03-.04,.08-.07,.47-.07,.92-.17,1.31-.28,.38-.11,.72-.25,1.05-.4,.25-.11,.49-.24,.68-.38-.01,0-.01-.01-.01-.01-.36-.33-.63-.68-.79-1.05-.19-.28-.38-.63-.52-1.03-.25,.43-.49,.8-.72,1.1-.11,.14-.21,.21-.26,.21-.07,0-.14-.03-.22-.08-.19-.08-.36-.17-.53-.24-.08-.03-.11-.04-.11-.06,0-.03,.03-.08,.08-.15,.47-.54,.82-1.02,1.07-1.44,.35-.53,.61-1.07,.78-1.6,.06-.17,.11-.25,.18-.25l.84,.35Zm2.27,6.47c0,.08-.08,.11-.22,.11-.11,0-.19,.04-.28,.1-.24,.14-.56,.32-.96,.53-.46,.25-.95,.46-1.46,.63-.31,.11-.74,.24-1.27,.38-.13,0-.21-.04-.27-.14-.14-.15-.26-.31-.38-.45-.08-.03-.13-.07-.13-.13,0-.01,.01-.03,.07-.04,.64-.14,1.17-.28,1.59-.43,.49-.17,.92-.36,1.28-.56,.35-.19,.67-.42,.95-.64,.06-.04,.13-.07,.19-.07,.59,.4,.88,.64,.88,.71Zm1.35,1.35c0,.08-.07,.11-.21,.11s-.28,.06-.39,.14c-.31,.19-.72,.45-1.28,.75-.61,.33-1.27,.63-1.95,.88-.42,.17-.99,.33-1.71,.52-.13,0-.21-.04-.27-.13-.14-.17-.26-.31-.38-.45-.08-.03-.13-.07-.13-.13,0-.03,.03-.04,.08-.07,.86-.18,1.57-.38,2.13-.6,.64-.22,1.21-.49,1.7-.77,.47-.26,.91-.56,1.27-.88,.08-.06,.18-.08,.26-.08,.57,.4,.86,.64,.86,.7Zm-3.61-5.35c.19,.39,.43,.72,.74,1.03,.07,.08,.14,.15,.22,.22,.25-.2,.47-.4,.67-.66,.22-.24,.42-.49,.56-.77,.07-.14,.14-.29,.21-.46h-2.68c.08,.25,.17,.46,.28,.63Z"/><path class="cls-4" d="M225.83,91.17c0,.08-.04,.13-.11,.13-.17,.01-.28,.07-.32,.15-.42,1.02-.84,1.85-1.25,2.51v9.03c0,.11-.08,.17-.22,.17h-.54c-.15,0-.22-.06-.22-.17v-7.71c-.32,.39-.72,.84-1.2,1.34-.11,0-.19-.04-.28-.13-.14-.11-.29-.24-.43-.36-.07-.04-.1-.1-.1-.17,.4-.42,.81-.88,1.23-1.35,.53-.61,1-1.31,1.39-2.06,.33-.67,.61-1.32,.81-1.98,.01-.07,.06-.11,.11-.11,.75,.4,1.14,.64,1.14,.71Zm7.24-.11c.14,0,.22,.06,.22,.17v4.68c0,.11-.08,.17-.22,.17h-.54c-.14,0-.21-.06-.21-.17v-.6h-2.08v2.02h3.71c.11,0,.17,.07,.17,.21v.43c0,.15-.06,.22-.17,.22h-3.51c.42,.59,.78,1.05,1.1,1.35,.4,.45,.89,.86,1.46,1.23,.47,.31,.95,.54,1.44,.68,0,.08-.06,.13-.14,.15-.19,.19-.36,.38-.49,.56-.06,.07-.11,.11-.14,.11-.72-.38-1.32-.75-1.77-1.14-.53-.43-.96-.91-1.32-1.41-.11-.14-.22-.28-.33-.43v3.69c0,.11-.07,.17-.21,.17h-.54c-.15,0-.22-.06-.22-.17v-3.47c-.15,.19-.29,.36-.4,.5-.39,.47-.81,.89-1.25,1.28-.53,.43-1.05,.78-1.56,1.09-.11,0-.18-.04-.24-.1-.18-.17-.36-.33-.53-.47-.03-.06-.04-.11-.04-.14,.49-.24,.89-.47,1.21-.71,.46-.29,.93-.71,1.44-1.25,.28-.31,.68-.81,1.18-1.52h-3.29c-.11,0-.17-.07-.17-.22v-.43c0-.14,.06-.21,.17-.21h3.49v-2.02h-2.02v.66c0,.11-.07,.17-.21,.17h-.54c-.15,0-.22-.06-.22-.17v-4.68c0-.14,.07-.22,.22-.22h6.58Zm-.75,3.39v-2.51h-5.07v2.51h5.07Z"/><path class="cls-4" d="M240.58,92.74c.11,0,.17,.08,.17,.22v.43c0,.15-.06,.22-.17,.22h-4.03c-.11,0-.17-.07-.17-.22v-.43c0-.14,.06-.22,.17-.22h4.03Zm-.49,5.88c.14,0,.22,.06,.22,.17v4.08c0,.11-.08,.17-.22,.17h-.54c-.11,0-.17-.06-.17-.17v-.66h-1.8v.66c0,.11-.07,.17-.21,.17h-.54c-.11,0-.17-.06-.17-.17v-4.03c0-.14,.06-.22,.17-.22h3.26Zm.06-3.92c.11,0,.17,.08,.17,.22v.43c0,.15-.06,.22-.17,.22h-3.28c-.11,0-.15-.07-.15-.22v-.43c0-.14,.04-.22,.15-.22h3.28Zm0,1.97c.11,0,.17,.07,.17,.21v.45c0,.14-.06,.21-.17,.21h-3.28c-.11,0-.15-.07-.15-.21v-.45c0-.14,.04-.21,.15-.21h3.28Zm0-5.88c.11,0,.17,.07,.17,.21v.45c0,.14-.06,.21-.17,.21h-3.11c-.11,0-.17-.07-.17-.21v-.45c0-.14,.06-.21,.17-.21h3.11Zm-.77,10.57v-1.85h-1.8v1.85h1.8Zm5.34-10.62c.08,0,.17,.03,.22,.07,.17,.2,.26,.32,.26,.36-.17,.6-.33,1.06-.49,1.38-.18,.42-.36,.75-.56,1.02-.17,.24-.38,.46-.6,.66h3.44c-.14-.17-.26-.35-.38-.54-.32-.45-.75-1.28-1.31-2.51l.6-.54c.17,.38,.33,.71,.49,1,.03-.03,.06-.04,.08-.07,.17-.14,.33-.29,.49-.47,.14-.17,.25-.36,.35-.56,.03-.04,.04-.07,.06-.07l.63,.46c.08,.06,.14,.11,.14,.2s-.06,.11-.17,.11c-.08,0-.14,.03-.17,.07-.39,.45-.75,.77-1.06,.98,.1,.18,.2,.33,.28,.45,.11,.17,.21,.31,.31,.43,.06-.03,.1-.07,.14-.11,.2-.14,.39-.32,.57-.53,.15-.2,.29-.39,.4-.61,.03-.04,.04-.07,.07-.07l.63,.45c.08,.06,.14,.13,.14,.21s-.06,.11-.17,.11c-.08,0-.15,.03-.2,.08-.4,.45-.78,.8-1.13,1.05,.11,.14,.22,.25,.33,.36,.4,.43,.81,.71,1.21,.85,0,.07-.04,.11-.1,.14-.28,.22-.46,.4-.57,.54-.04,.06-.11,.07-.21,.07-.46-.29-.89-.71-1.3-1.24v.43c0,.14-.06,.21-.17,.21h-3.65c-.11,0-.15-.07-.15-.21v-.35c-.26,.19-.54,.36-.84,.5-.26,.15-.6,.28-1.02,.39-.11,0-.19-.03-.24-.11-.11-.14-.21-.28-.29-.42-.06-.06-.07-.1-.07-.13s.01-.04,.06-.07c.25-.06,.49-.14,.74-.24,.45-.17,.82-.39,1.13-.66h.01c-.17-.18-.33-.35-.5-.49-.24-.19-.43-.32-.57-.4,0-.04,.13-.22,.39-.56,.03-.06,.07-.1,.1-.1,.31,.22,.57,.42,.77,.59,.14,.15,.28,.28,.39,.39,.07-.08,.14-.17,.2-.25,.19-.28,.35-.6,.49-.96,.06-.14,.13-.32,.19-.52h-2.3c-.08,0-.11-.06-.11-.17v-.43c0-.11,.03-.17,.11-.17h2.89Zm2.84,9.33c.14,.06,.21,.13,.21,.21,0,.06-.04,.1-.11,.11-.08,0-.14,.06-.15,.14-.24,.66-.47,1.16-.7,1.49h1.94c.11,0,.17,.07,.17,.21v.43c0,.14-.06,.22-.17,.22h-7.29c-.11,0-.17-.08-.17-.22v-.43c0-.14,.06-.21,.17-.21h4.84c-.14-.06-.26-.11-.38-.17-.08-.03-.11-.04-.11-.06,0-.03,.01-.06,.04-.1,.2-.32,.35-.61,.46-.86,.15-.32,.26-.64,.35-.96,.01-.1,.04-.15,.07-.15l.84,.35Zm.15-3.83c.14,0,.21,.06,.21,.17v2.83c0,.11-.07,.17-.21,.17h-5.28c-.15,0-.22-.06-.22-.17v-2.83c0-.11,.07-.17,.22-.17h5.28Zm-3.57,4.53c.17,.29,.29,.6,.4,.92,0,.03-.29,.13-.86,.28-.06-.21-.14-.46-.28-.77-.15-.33-.35-.68-.6-1.03,0-.06,.24-.21,.71-.45,.25,.39,.46,.74,.63,1.05Zm2.86-3.71h-3.86v1.52h3.86v-1.52Z"/></g><g><path class="cls-4" d="M291.43,94.23c.04,.08,.07,.14,.07,.15,0,.1-.06,.15-.17,.17-.27,.01-.4,.07-.43,.15-.27,.45-.56,.92-.86,1.42h6.58c.11,0,.17,.06,.17,.15v.54c0,.15-.06,.22-.17,.22h-2.73c-.17,.49-.36,.93-.59,1.35-.29,.61-.63,1.14-1,1.56-.08,.1-.17,.18-.24,.27,.15,.07,.29,.14,.42,.2,1.44,.72,2.65,1.38,3.65,1.97,0,0-.03,.04-.07,.13-.31,.42-.47,.64-.47,.64-1.37-.84-2.8-1.59-4.29-2.27-.14,.1-.26,.18-.4,.26-.5,.35-1.11,.67-1.83,.98-.89,.36-1.95,.71-3.16,1.03-.11,0-.17-.04-.18-.1-.13-.17-.26-.39-.42-.66-.08-.07-.11-.13-.11-.18,.24,0,.56-.07,.98-.18,.53-.11,1.1-.24,1.71-.43,.81-.29,1.51-.6,2.09-.92,.13-.08,.25-.17,.36-.25-1.06-.45-1.97-.79-2.72-1.03-.21,.25-.42,.5-.63,.75-.08,0-.15-.03-.2-.08-.18-.08-.36-.15-.56-.22-.06-.01-.07-.06-.07-.14,.84-1,1.48-1.85,1.95-2.52,.03-.06,.07-.1,.1-.14h-3.68c-.11,0-.17-.07-.17-.22v-.54c0-.1,.06-.15,.17-.15h4.31c.33-.5,.63-1,.88-1.49,.22-.42,.39-.77,.47-1.02,.03-.07,.07-.11,.11-.11l1.13,.72Zm.01-3.56c0,.13-.06,.2-.14,.21-.1,.01-.14,.11-.14,.28v.71h4.8c.14,0,.22,.06,.22,.17v2.72c0,.11-.08,.17-.22,.17h-.54c-.14,0-.21-.06-.21-.17v-2.02h-9.48v2.02c0,.11-.08,.17-.22,.17h-.54c-.14,0-.21-.06-.21-.17v-2.66c0-.14,.07-.22,.21-.22h5.17v-1.2c0-.11,.07-.17,.22-.17,.73,0,1.09,.06,1.09,.17Zm-2.02,6.37s-.03,.04-.03,.04c-.33,.47-.72,1-1.18,1.59,1.1,.4,2.08,.78,2.91,1.13,.03-.01,.04-.03,.06-.04,.4-.39,.75-.85,1.05-1.37,.22-.35,.45-.8,.64-1.35h-3.44Z"/><path class="cls-4" d="M301.67,95.41c.14,.07,.22,.14,.22,.22,0,.17-.07,.28-.18,.33-.15,0-.25,.13-.28,.35-.42,1.7-.82,3.03-1.23,3.96-.1,.22-.17,.32-.22,.32-.08,0-.17-.03-.27-.1-.21-.1-.4-.18-.6-.26-.08-.03-.11-.06-.11-.07,0-.06,.01-.13,.07-.22,.39-.81,.68-1.53,.88-2.15,.28-.8,.5-1.59,.64-2.4,.04-.22,.1-.35,.15-.35l.92,.36Zm2.43-1.67c.13,.03,.19,.06,.19,.11,0,.08-.04,.14-.1,.15-.08,.03-.13,.08-.13,.17v6.8c0,.45,.25,.66,.77,.66h2.61c.77,0,1.23-.13,1.38-.39,.18-.21,.42-1.02,.7-2.44,.13,.21,.33,.39,.61,.56,.13,.06,.2,.13,.2,.21-.38,1.53-.66,2.36-.85,2.52-.21,.33-.63,.52-1.27,.52h-3.49c-1.13,0-1.69-.35-1.69-1.03v-7.78c0-.11,.01-.17,.06-.17l1,.11Zm-.1-3.14c1.05,.47,2.12,1.09,3.23,1.83,.1,.06,.15,.14,.15,.22,0,.06-.01,.1-.04,.13l-.31,.39c-.1,.06-.18,.08-.25,.08-.08,0-.18-.06-.29-.17-1.05-.66-2.05-1.2-3.03-1.63-.19-.06-.28-.14-.28-.22,0-.04,.01-.1,.04-.15l.35-.5c.06-.03,.11-.06,.17-.06,.04,0,.13,.03,.25,.08Zm6.38,5.72c.6,.56,1.1,1.06,1.52,1.51,0,.01-.03,.06-.08,.13-.33,.46-.5,.68-.52,.68-.64-.7-1.32-1.34-2.05-1.92-.6-.47-1.09-.82-1.48-1.02,0-.06,.17-.28,.5-.7,.06-.07,.1-.11,.14-.11,.8,.52,1.45,.99,1.97,1.44Z"/><path class="cls-4" d="M318.28,91.17c0,.08-.04,.13-.11,.13-.17,.01-.26,.07-.32,.15-.39,1.02-.77,1.85-1.14,2.52v8.96c0,.11-.08,.17-.22,.17h-.54c-.14,0-.21-.06-.21-.17v-7.5c-.31,.39-.68,.86-1.14,1.39-.11,0-.21-.04-.29-.13-.14-.11-.29-.24-.43-.35-.07-.06-.1-.11-.1-.17,.39-.45,.78-.91,1.17-1.41,.5-.64,.95-1.35,1.32-2.15,.33-.7,.59-1.39,.77-2.06,.03-.07,.06-.11,.11-.11,.75,.4,1.14,.64,1.14,.71Zm8.34,1.91c.11,0,.17,.08,.17,.22v.43c0,.14-.06,.21-.17,.21h-8.5c-.11,0-.15-.07-.15-.21v-.43c0-.14,.04-.22,.15-.22h8.5Zm-.98,5.88c.14,0,.21,.06,.21,.15v3.76c0,.11-.07,.17-.21,.17h-.56c-.14,0-.21-.06-.21-.17v-.38h-5.02v.38c0,.11-.07,.17-.21,.17h-.54c-.15,0-.22-.06-.22-.17v-3.71c0-.14,.07-.21,.22-.21h6.54Zm-.39-3.88c.11,0,.17,.08,.17,.22v.43c0,.15-.06,.22-.17,.22h-5.77c-.11,0-.17-.07-.17-.22v-.43c0-.14,.06-.22,.17-.22h5.77Zm.06,1.91c.11,0,.17,.08,.17,.22v.43c0,.15-.06,.22-.17,.22h-5.83c-.11,0-.17-.07-.17-.22v-.43c0-.14,.06-.22,.17-.22h5.83Zm-.17-5.94c.11,0,.17,.08,.17,.22v.43c0,.15-.06,.22-.17,.22h-5.6c-.11,0-.17-.07-.17-.22v-.43c0-.14,.06-.22,.17-.22h5.6Zm-.27,10.57v-1.8h-5.02v1.8h5.02Z"/><path class="cls-4" d="M331.73,91.88v-1.42c0-.06,.04-.1,.15-.1,.66,0,.99,.06,.99,.15,0,.11-.04,.18-.11,.18-.08,.01-.11,.1-.11,.27v.92h2.4c.07,0,.11,.06,.11,.17v.43c0,.15-.04,.22-.11,.22h-2.4v1.19h1.97c.14,0,.21,.06,.21,.17v3.82c0,.11-.07,.15-.21,.15h-1.78c.22,.43,.45,.77,.64,1.02,.26,.39,.74,.84,1.41,1.32,.07,.03,.11,.07,.11,.11,0,.03-.04,.07-.1,.11-.08,.13-.21,.25-.36,.39-.06,.07-.11,.1-.14,.1-.06,0-.13-.01-.21-.07-.46-.38-.86-.81-1.2-1.3-.11-.15-.22-.32-.33-.52v3.68c0,.11-.08,.17-.22,.17h-.54c-.11,0-.15-.06-.15-.17v-3.35c-.07,.14-.13,.26-.18,.36-.24,.46-.49,.89-.77,1.28-.33,.45-.66,.8-.96,1.1-.1,0-.18-.03-.24-.08-.17-.18-.32-.33-.49-.47-.03-.06-.04-.11-.04-.15,.31-.25,.54-.49,.74-.71,.28-.31,.56-.74,.86-1.27,.17-.32,.42-.84,.72-1.56h-1.56c-.15,0-.22-.04-.22-.15v-3.82c0-.11,.07-.17,.22-.17h1.91v-1.19h-2.51c-.08,0-.11-.07-.11-.22v-.43c0-.11,.03-.17,.11-.17h2.51Zm0,2.83h-1.2v2.51h1.2v-2.51Zm2.17,0h-1.25v2.51h1.25v-2.51Zm3.93,7.07c.06,.06,.1,.13,.1,.18,0,.01-.04,.03-.1,.03-.1,0-.17,.03-.21,.06-.25,.19-.52,.38-.78,.54-.33,.18-.75,.38-1.25,.57-.11,0-.18-.04-.21-.11-.18-.15-.33-.28-.46-.39-.07-.03-.1-.07-.1-.1s.01-.04,.06-.04c.24-.06,.43-.13,.59-.21,.33-.14,.63-.31,.88-.47,.21-.14,.45-.32,.7-.54,.01-.03,.04-.04,.07-.04l.72,.53Zm3.36-10.82c.14,0,.22,.07,.22,.21-.07,.75-.17,1.37-.28,1.84-.11,.43-.24,.77-.36,1-.14,.25-.31,.42-.52,.5-.22,.1-.56,.14-1.02,.14l-.33-.06c-.15,0-.22-.07-.21-.21-.01-.18-.07-.4-.17-.66,0-.07,.06-.11,.17-.11,.22,.08,.43,.11,.6,.11,.18,0,.33-.03,.46-.1,.11-.06,.19-.14,.26-.25,.06-.11,.14-.31,.22-.58,.08-.24,.15-.59,.21-1.03h-2.26c-.03,.53-.08,.92-.15,1.17-.11,.39-.27,.72-.46,.98-.17,.22-.38,.4-.61,.54-.22,.15-.5,.29-.84,.42-.25-.24-.47-.46-.66-.66,.17-.04,.36-.13,.6-.27,.25-.14,.46-.29,.63-.46,.2-.24,.33-.5,.42-.81,.06-.21,.11-.52,.14-.92h-1.67c-.11,0-.17-.07-.17-.21v-.45c0-.1,.06-.15,.17-.15h5.6Zm-.15,4.08c.14,0,.21,.06,.21,.15v5.66c0,.11-.07,.17-.21,.17h-5.23c-.15,0-.22-.06-.22-.17v-5.66c0-.1,.07-.15,.22-.15h5.23Zm-.71,1.74v-.88h-3.82v.88h3.82Zm0,1.69v-.88h-3.82v.88h3.82Zm0,.81h-3.82v.88h3.82v-.88Zm1.31,3.16s-.03,.08-.08,.15c-.25,.39-.39,.6-.42,.6-.71-.35-1.42-.79-2.12-1.35,0-.01,.15-.18,.47-.54,.06-.07,.1-.11,.13-.11,.64,.52,1.32,.92,2.02,1.25Z"/></g><line class="cls-3" x1=".24" y1="109.97" x2="73.35" y2="109.97"/><line class="cls-3" x1="92.87" y1="109.97" x2="165.97" y2="109.97"/><line class="cls-3" x1="184.01" y1="109.97" x2="257.11" y2="109.97"/><line class="cls-3" x1="276.64" y1="109.97" x2="349.74" y2="109.97"/></g></g></svg>