<?xml version="1.0" encoding="UTF-8"?><svg id="_圖層_2" xmlns="http://www.w3.org/2000/svg" viewBox="0 0 1918.8 466.84"><defs><style>.cls-1{fill:#e5bfcf;}</style></defs><g id="_圖片"><path class="cls-1" d="M1918.8,0V1.41c-124.93,46.55-243.93,108.4-354.36,183.16-119.09,80.63-230.11,175.17-362.84,233.54-63.74,28.03-131.47,46.16-201.28,48.44-78.55,2.57-156.52-12.46-232.11-32.52-77.85-20.65-154.22-46.73-232.73-64.92-77.12-17.87-154.41-22.5-232.9-11.25-105.45,15.12-205.29,52.83-302.58,95.87v-1.42c111.04-49.06,226.26-91.77,347.79-100.81,76.48-5.68,150.12,5.86,223.97,25.11,77.96,20.31,154.32,46.44,232.72,65.12,80.63,19.21,164.65,30.62,247.31,19.03,70.1-9.82,136.9-35.39,199.33-68.15,129.92-68.16,240.81-165.62,364.73-243.21,95.7-59.93,197.26-110.02,302.95-149.4Z"/></g></svg>