<?xml version="1.0" encoding="UTF-8"?><svg id="_圖層_2" xmlns="http://www.w3.org/2000/svg" viewBox="0 0 314.15 36.79"><defs><style>.cls-1{fill:#fff;}</style></defs><g id="_圖片"><g><g><path class="cls-1" d="M.23,13.28c7.25,1.02,4.77,6.31,2.02,4.36-.29-1.46-1.32-3.1-2.25-4.15l.23-.2Zm7.13,1.72c-.82,3.19-1.78,7.13-2.02,8.27-.2,.85-.35,1.87-.32,2.6,.06,1.58,1.23,2.69,1.11,5.29-.06,1.49-.99,2.43-2.34,2.43-.64,0-1.29-.44-1.49-1.52,.53-3.07,.41-5.85-.23-6.29-.41-.29-.85-.41-1.46-.47v-.58H1.87c.38,0,.53,0,.82-.59q.56-1.02,4.76-11.58l.47,.09-.5,2.13c.76-.03,1.9-.09,3.24-.2v-2.1h-2.19l-.23-.82h2.43v-2.1h-2.95l-.23-.85h3.19v-2.57l3.98,.38c-.06,.41-.29,.7-1.08,.82v1.37h.91l1.14-1.43s1.32,1.02,2.08,1.81c-.06,.32-.35,.47-.7,.47h-3.42v2.1h.58l1.14-1.46s1.32,1.05,2.1,1.81c-.09,.32-.32,.47-.73,.47h-3.1v1.87c1.37-.15,2.84-.32,4.24-.5l.06,.41c-1.14,.5-2.57,1.05-4.3,1.67v2.02c0,.26-1.26,.76-2.37,.76h-.53v-1.81l-1.46,.47c-.15,.35-.47,.59-.76,.64l-1.08-3.01ZM2.16,6.38c7.63,1.08,5.03,6.64,2.16,4.59-.32-1.52-1.46-3.24-2.4-4.36l.23-.23Zm18.53,15.84c7.95-.15,6.64,5.82,3.6,4.44-.23-.61-.64-1.26-1.17-1.87-1.08,.2-2.4,.47-3.89,.73v4.74c0,1.99-.5,3.1-3.86,3.36-.06-.79-.15-1.43-.53-1.84-.35-.35-.88-.67-2.16-.85v-.41s2.4,.15,2.95,.15c.44,0,.53-.15,.53-.44v-4.15c-1.08,.18-2.22,.35-3.42,.53l2.75,1.61c-.18,.26-.44,.38-1.11,.29-1.7,1.52-4.5,3.1-7.42,3.98l-.26-.35c1.93-1.4,3.83-3.6,4.88-5.35l-1.55,.23c-.15,.2-.29,.32-.44,.41l-1.55-2.92s.67-.06,1.05-.18c2.4-.56,5.32-1.84,7.78-3.19-1.78,.47-4.06,1.02-6.43,1.52-.09,.12-.2,.23-.32,.29l-1.37-2.34s.47-.09,.73-.18c2.28-.64,5.26-2.86,6.43-3.98l2.75,2.02c-.18,.23-.64,.41-1.26,.15-1.17,.61-2.87,1.29-4.59,1.84,1.7-.09,3.74-.2,5.82-.35,.99-.58,1.81-1.17,2.4-1.64l3.13,2.4c-.18,.23-.64,.41-1.32,.15-2.28,1.11-6.37,2.49-10.23,3.48,2.69-.06,6.26-.2,10-.38-.67-.67-1.43-1.26-2.13-1.67l.23-.23Zm7.13-13.27c-.2,.23-.56,.38-1.11,.47-.15,5.38-.5,7.31-1.64,8.21-.73,.58-1.73,.76-2.95,.76,0-.76-.06-1.32-.38-1.7-.35-.41-.91-.64-1.7-.85v-.38c.67,.06,1.78,.12,2.25,.12,.41,0,.58-.06,.76-.23,.44-.44,.64-2.28,.76-6.37h-1.52c-.26,2.87-1.35,6.2-4.56,8.57l-.38-.38c1.67-2.75,1.87-5.73,1.93-8.19h-1.58l-.26-.82h6.11l1.49-1.46,2.78,2.25Zm-7.83,17.45c9.15,1.29,7.75,7.25,4.68,5.76-.91-1.87-3.13-4.18-4.91-5.53l.23-.23Z"/><path class="cls-1" d="M32.28,13.22c7.69,.44,5.23,6.14,2.22,4.24-.32-1.49-1.46-3.07-2.4-4.06l.18-.18Zm9.18-1.55c-1.17,3.48-3.27,10-3.65,11.52-.26,.96-.5,1.99-.47,2.75,.06,1.58,1.26,2.6,1.14,5.23-.06,1.49-1.02,2.46-2.43,2.46-.67,0-1.37-.44-1.58-1.55,.56-3.07,.41-5.79-.26-6.26-.44-.29-.94-.41-1.55-.47v-.58h1.34c.41,0,.56,0,.88-.58q.67-1.11,6.11-12.66l.47,.15Zm-6.87-5.15c8.13,.73,5.5,6.64,2.4,4.56-.38-1.55-1.61-3.27-2.6-4.38l.2-.18Zm23.18,11.72s1.43,1.46,2.19,2.43c-.09,.32-.35,.47-.76,.47h-2.81v5.2c-.03,.2-1.52,.79-2.54,.79h-.53v-1.52h-3.01v3.92c0,2.19-.53,3.74-4.18,4.01-.06-.99-.23-1.78-.64-2.28-.44-.47-1.08-.85-2.57-1.08v-.38s2.98,.2,3.62,.2c.44,0,.58-.2,.58-.56v-3.83h-5.5l-.26-.85h5.76v-3.62h-6.96l-.23-.85h7.19v-3.48h-5.5l-.26-.82h11.72l1.37-1.46,2.84,2.13c-.15,.18-.47,.38-.91,.47v3.16h.15l1.23-2.05Zm-.18-9.18c-.35,.29-.99,.38-1.9,.03-3.65,.56-9.73,.88-14.65,.76l-.06-.41c4.53-.73,10.29-2.28,13.21-3.48l3.39,3.1Zm-15.29,1.37c6.37,1.75,3.48,6.43,1.08,4.36-.06-1.46-.73-3.13-1.37-4.18l.29-.18Zm4.62-.47c6.49,1.84,3.57,6.87,1.14,4.68,.12-1.58-.58-3.42-1.43-4.53l.29-.15Zm3.39,10.32h3.01v-3.48h-3.01v3.48Zm3.01,.85h-3.01v3.62h3.01v-3.62Zm-2.28-5.67c.79-1.46,1.78-3.8,2.57-6.02l4.01,1.81c-.15,.29-.56,.53-1.2,.47-1.52,1.58-3.39,3.07-5.03,4l-.35-.26Z"/><path class="cls-1" d="M87.95,21.76s2.19,1.64,3.48,2.78c-.06,.32-.38,.47-.79,.47h-11.43c-.96,4.06-3.62,6.9-14.24,8.62l-.18-.47c7.37-2.22,9.73-4.77,10.58-8.16h-9.38l-.23-.85h9.79c.18-1.05,.23-2.16,.29-3.42l4.85,.35c-.06,.41-.35,.73-1.02,.82-.09,.79-.18,1.52-.29,2.25h6.64l1.93-2.4Zm-11.78-2.16v-3.48h-8.04l-.23-.85h8.27v-3.3h-9.62l-.26-.85h7.4c-.32-.09-.64-.23-.96-.47-.15-1.52-1.05-3.13-1.96-4.15l.23-.18c6.17,.53,5.64,4.27,3.63,4.79h5.41c.61-1.46,1.23-3.45,1.61-4.91l4.59,1.02c-.12,.38-.44,.61-1.11,.58-.99,.96-2.63,2.28-4.15,3.3h4.56l1.87-2.34s2.13,1.58,3.39,2.72c-.09,.32-.38,.47-.82,.47h-10.09v3.3h4.01l1.75-2.16s2.02,1.46,3.25,2.54c-.09,.32-.41,.47-.82,.47h-8.19v3.48h6.26l1.9-2.43s2.16,1.64,3.39,2.81c-.06,.32-.38,.47-.76,.47h-25.43l-.23-.85h11.17Zm4.06,6.37c12.98,1.08,12.34,8.62,8.36,7.34-1.84-2.48-5.67-5.41-8.59-7.05l.23-.29Z"/><path class="cls-1" d="M100.77,18.1c.26,1.7-.23,3.04-1.55,3.62-2.22,.94-3.71-1.87-1.26-3.16,.82-.41,1.61-1.52,1.58-3.19l.35-.03c.32,.67,.56,1.32,.73,1.93h.41l-.29-9.85,2.66,.53c.91-.64,1.81-1.37,2.31-1.84l2.34,1.78,.09-.09c.88,.03,1.64,.15,2.25,.29,.44-.58,.79-1.2,1.05-1.75l2.69,1.37c-.12,.26-.41,.32-.94,.2-.26,.35-.61,.67-.99,1.02,1.46,1.17,.79,2.72-.58,2.25-.23-.32-.58-.7-.96-1.05-.96,.64-2.05,1.23-3.07,1.64l-.06-.09c-.09,.23-.35,.32-.67,.32h-2.98l.09,2.25h.67l1.08-1.43s1.23,1.02,1.99,1.81c-.09,.32-.35,.47-.73,.47h-3.01l.09,2.16h12.57l.09-2.16h-2.4l-.23-.85h2.69l.09-2.25h-2.43l-.26-.82h2.75l.12-2.28h-2.89l-.23-.85h2.86l1.29-1.52,3.07,2.34c-.23,.23-.47,.35-1.02,.41l-.38,7.69,1.49-1.46,3.04,2.92c-.23,.23-.53,.29-1.11,.32-1.11,.67-2.98,1.64-4.21,2.19l-.26-.2c.23-.67,.58-1.78,.85-2.66h-18.74Zm19.41,5.09s2.05,1.7,3.25,2.84c-.09,.32-.38,.47-.82,.47h-10.41v3.04c0,2.4-.53,3.71-4.47,4.06-.09-1.08-.26-1.84-.73-2.4-.47-.53-1.14-.91-2.69-1.14v-.41s3.3,.2,3.95,.2c.44,0,.58-.12,.58-.5v-2.87h-11.2l-.23-.85h11.43v-2.34l2.6,.23c.73-.64,1.49-1.37,2.1-2.02h-10.44l-.26-.85h11.17l1.84-1.75,3.16,2.78c-.26,.23-.56,.32-1.2,.35-1.29,.5-2.98,1.14-4.65,1.64-.06,.44-.35,.64-.96,.73v1.23h6.14l1.84-2.46Zm-14.56-13.33s.99,.76,1.73,1.46c.76-.58,1.52-1.34,2.19-2.13-.47-.35-.96-.67-1.4-.94-.18,.06-.44,.03-.73-.06-.82,.26-2.19,.56-3.62,.76l.06,2.25h.73l1.05-1.34Zm8.95,2.92c-.15,.29-.47,.35-.94,.23-.29,.41-.7,.79-1.14,1.2,1.49,1.34,.7,3.04-.79,2.43-.2-.38-.5-.82-.88-1.23-1.11,.7-2.37,1.29-3.6,1.67l-.23-.44c.96-.61,1.93-1.4,2.75-2.28-.58-.5-1.23-.96-1.78-1.32l.29-.29c.99,.09,1.81,.23,2.48,.47,.47-.56,.82-1.17,1.11-1.72l2.72,1.29Z"/><path class="cls-1" d="M136.73,34.5h-1.17V5.27h1.17v29.23Z"/></g><g><path class="cls-1" d="M294.31,0c3.45,.05,6.8,.54,9.97,1.93,5.24,2.29,8.43,6.25,9.48,11.86,.81,4.35,.39,8.62-1.32,12.71-1.78,4.26-4.93,7.18-9.29,8.68-5.54,1.9-11.18,1.98-16.74,.13-6.46-2.15-10.24-6.77-11.54-13.39-.76-3.84-.64-7.65,.87-11.32,1.72-4.19,4.8-7,8.92-8.75,3.08-1.31,6.33-1.81,9.65-1.85Zm9.93,17.8c-.04-2.06-.36-4.11-.88-6.16-.54-2.14-1.82-3.66-3.73-4.66-2.57-1.34-5.29-1.58-8.09-.9-3.05,.75-5.14,2.51-6.08,5.61-.94,3.08-1.27,6.19-.82,9.37,.23,1.64,.47,3.31,1.24,4.8,1.87,3.64,4.94,5.35,9,5.32,3.85-.03,7.15-2.47,8.25-6.12,.7-2.35,1.06-4.77,1.11-7.27Z"/><path class="cls-1" d="M213.59,.13c3.54,.07,7.1,.61,10.44,2.21,4.99,2.4,7.96,6.35,8.9,11.78,.75,4.31,.31,8.53-1.39,12.57-1.81,4.28-4.98,7.21-9.37,8.67-5.82,1.94-11.71,1.98-17.47-.22-6.22-2.37-9.66-7.1-10.79-13.57-.58-3.35-.5-6.69,.62-9.94,1.51-4.37,4.46-7.43,8.62-9.36,3.27-1.52,6.74-2.09,10.43-2.13Zm.06,31.2c4.13,.01,7.54-2.35,8.62-6.06,1.31-4.46,1.5-8.96,.27-13.49-.58-2.15-1.84-3.69-3.78-4.69-2.64-1.36-5.43-1.57-8.28-.82-2.9,.77-4.89,2.49-5.84,5.45-1.32,4.14-1.28,8.25-.26,12.44,1.05,4.28,5.01,7.2,9.27,7.17Z"/><path class="cls-1" d="M168.74,18.78c0-3.78,0-7.55,0-11.33,0-.83,0-.84-.85-.84-1.01,0-2.01,.12-2.99,.36-2.73,.66-4.33,2.4-4.8,5.17-.12,.69-.16,1.39-.15,2.09,.01,.52-.18,.76-.73,.75-1.16-.02-2.32-.02-3.48,0-.49,0-.75-.16-.75-.67,0-.2-.03-.39-.03-.59-.07-3.62,.04-7.25-.13-10.87-.04-.96,.02-.99,.98-.99,6.23,0,12.46-.05,18.69,.04,5.4,.08,10.8,.03,16.2,.07,.88,0,.95,.04,.96,.91,.02,3.82,.03,7.64,.05,11.46,0,.45-.17,.63-.62,.63-1.27,0-2.54-.01-3.8,0-.5,0-.63-.24-.62-.69,.02-1.01-.11-2-.35-2.98-.62-2.57-2.32-3.96-4.87-4.41-1-.18-2-.16-3.01-.17-.49,0-.65,.19-.65,.66,.02,1.4,0,2.79,0,4.19,0,6.11-.02,12.23-.03,18.34,0,1.03,0,1.04,.99,1.02,1.73-.03,3.45,.06,5.18-.08,.47-.04,.68,.15,.68,.64-.02,1.11,0,2.23,0,3.34,0,.87-.02,.89-.87,.89-3.89,0-7.78,0-11.67-.01-3.1,0-6.21,0-9.31-.01-.86,0-.88-.02-.88-.89,0-1.03,.02-2.05-.01-3.08-.02-.59,.18-.81,.79-.8,1.75,.03,3.5-.02,5.25,.02,.65,.01,.81-.22,.81-.83-.02-3.78-.01-7.55-.01-11.33h.03Z"/><path class="cls-1" d="M244.08,1.74c9.16,.11,18.31,.11,27.47,.11,.97,0,.97,0,.98,.99,0,3.71,.02,7.42,.02,11.13,0,.86-.02,.88-.88,.88-1.07,0-2.14,0-3.21,0-.89,0-.94-.04-.94-.91,0-.86-.08-1.7-.27-2.53-.65-2.75-2.28-4.22-5.08-4.65-.94-.14-1.87-.12-2.81-.16-.55-.02-.72,.2-.71,.73,.02,1.51,0,3.01,0,4.52,0,6.02-.01,12.05-.02,18.07,0,.9,0,.9,.91,.9,1.73,0,3.45,0,5.18-.03,.58-.01,.77,.19,.75,.76-.03,1.05,0,2.09,0,3.14,0,.99,0,1-.97,.99-2.69-.02-5.37-.07-8.06-.08-4.26-.02-8.52-.01-12.79-.02-.9,0-.92-.02-.92-.92,0-1,.03-2.01-.01-3.01-.02-.61,.18-.85,.82-.84,1.68,.04,3.37,.01,5.05,.01q.95,0,.96-.93c0-3.97,0-7.94,.02-11.92,.02-3.53,.06-7.07,.09-10.6,0-.87,0-.87-.87-.87-1.07,0-2.13,.14-3.18,.4-2.81,.7-4.23,2.6-4.68,5.36-.1,.62-.18,1.25-.14,1.89,.03,.49-.14,.73-.67,.72-1.2-.02-2.4-.01-3.61,0-.43,0-.63-.16-.63-.62-.04-3.95-.08-7.9-.14-11.85,0-.55,.27-.65,.73-.65,2.54,0,5.07,0,7.61,0Z"/></g></g></g></svg>