<?xml version="1.0" encoding="UTF-8"?><svg id="_圖層_2" xmlns="http://www.w3.org/2000/svg" viewBox="0 0 414.59 103.28"><defs><style>.cls-1{fill:#ebbccf;}</style></defs><g id="_圖片"><path class="cls-1" d="M414.59,0V1.91c-26.24,27.5-51.99,55.73-83.97,76.59-18.59,12.14-39.26,21.14-61.44,23.81-27.55,3.31-55.37-2.35-81.75-9.96-27.01-7.78-53.33-17.89-80.68-24.49-25.17-6.07-50.32-6.73-75.59-.78-10.68,2.51-21.05,5.92-31.16,9.99v-1.55c14.75-5.93,30.01-10.4,45.88-12.66,11.82-1.68,23.8-2.05,35.69-.92,12.87,1.23,25.52,4.32,37.95,7.79,27.11,7.56,53.43,17.7,80.72,24.64,27.13,6.9,55.93,10.69,83.47,3.85,22.09-5.48,42.1-17.07,60.08-30.76,26.05-19.84,48.22-43.86,70.8-67.46Z"/></g></svg>