<?xml version="1.0" encoding="UTF-8"?><svg id="_圖層_2" xmlns="http://www.w3.org/2000/svg" viewBox="0 0 435.61 63.16"><defs><style>.cls-1{fill:#00905e;}.cls-2{fill:#ed0000;}.cls-3{fill:#ea0001;}.cls-4{fill:#fff;}</style></defs><g id="_圖片"><g><g><path class="cls-4" d="M23.24,22.52s2.28,1.7,3.65,2.89c-.09,.32-.41,.47-.82,.47H12.07c-.67,1.26-1.43,2.48-2.34,3.68l.96,.35h8.1l1.61-1.9,3.51,2.69c-.2,.29-.64,.58-1.32,.7v11.96c0,2.31-.53,3.65-4.53,4.03-.12-1.14-.26-1.93-.73-2.48-.47-.53-1.11-.91-2.6-1.17v-.38s3.1,.18,3.74,.18c.5,0,.64-.2,.64-.58v-3.33H9.88c-.5,2.84-1.81,5.76-5.32,7.86l-.23-.26c2.19-3.3,2.31-7.54,2.31-11.46v-2.6c-1.81,1.78-3.92,3.36-6.4,4.59l-.23-.29c3.71-3.04,6.49-7.34,8.3-11.58H.61l-.26-.85H8.65c.7-1.78,1.26-3.48,1.64-5.12l4.77,1.37c-.12,.35-.38,.56-1.14,.56-.41,1.05-.88,2.1-1.4,3.19h8.68l2.05-2.51Zm-4.12,16.25v-3.62H10.14v.61c0,.96-.03,1.96-.15,3.01h9.12Zm-8.97-8.04v3.57h8.97v-3.57H10.14Z"/><path class="cls-4" d="M57.62,43.72c.88,1.87,1.05,2.92,.5,3.3-1.49,1.14-3.74-.35-4.76-1.73-1.84-2.34-3.1-5.15-3.95-8.21-1.29,.76-2.69,1.34-4.15,1.84l-.26-.35c1.4-.82,2.78-1.93,3.98-3.24-.7-3.27-1.02-6.78-1.14-10.55h-11.72v5.41c0,4.97-.18,12.19-4.82,16.95l-.35-.23c2.05-5.06,2.1-11.43,2.1-16.72v-7.54l3.57,1.29h11.2c-.03-1.32-.06-2.63-.06-3.95l4.24,.44-.18-.23,.29-.15c5.17,1.02,2.54,4.39,.7,2.69-.03-.7-.32-1.49-.67-2.08-.12,.26-.41,.5-1.02,.58-.03,.88-.03,1.78-.03,2.69h3.25l1.49-2.1s1.7,1.46,2.69,2.48c-.06,.32-.35,.47-.76,.47h-6.64c.03,2.4,.15,4.76,.47,7.05,.91-1.58,1.67-3.3,2.16-5.26l4.15,1.67c-.18,.35-.56,.58-1.23,.53-1.2,2.66-2.69,4.71-4.47,6.31,.67,2.81,1.72,5.23,3.33,7.07,.38,.5,.56,.5,.85-.03,.41-.76,1.14-2.25,1.64-3.51l.32,.06-.7,5.06Zm-21.02-4.5c1.05,2.81,.82,5,0,5.96-.56,.64-1.84,.73-2.28-.09-.38-.79,0-1.55,.73-2.05,.61-.67,1.29-2.4,1.08-3.83h.47Zm8.45-13.74s1.81,1.4,2.95,2.43c-.09,.32-.38,.47-.79,.47h-10.32l-.23-.85h6.78l1.61-2.05Zm-4.71,11.14c0,.23-1.32,.91-2.54,.91h-.44v-8.42l3.13,1.23h3.04l1.37-1.46,2.95,2.16c-.15,.2-.53,.44-1.02,.53v4.44c-.03,.18-1.55,.73-2.51,.73h-.53v-1.2h-3.45v1.08Zm6.17,7.28c.67,.29,.79,.61,.79,1.08,0,1.08-.96,1.64-4.47,1.64h-2.13c-2.25,0-2.6-.53-2.6-2.22v-6.31l3.42,.32c-.06,.38-.32,.64-.88,.73v4.59c0,.35,.09,.44,.76,.44h1.67c.7,0,1.26-.03,1.49-.06,.29,0,.38-.06,.53-.29,.26-.41,.58-1.7,.99-3.16h.35l.09,3.24Zm-6.17-12.75v3.57h3.45v-3.57h-3.45Zm1.26,5.91c5.58,2.57,2.78,6.75,.82,4.71,.12-1.52-.5-3.39-1.17-4.53l.35-.18Zm5.14,1.72c5.9,3.27,3.33,7.83,1.2,5.73,.03-1.84-.79-4.06-1.52-5.61l.32-.12Z"/><path class="cls-4" d="M68.95,31.64c0,4.97-.23,11.46-5.23,15.82l-.35-.2c2.37-4.59,2.48-10.38,2.48-15.61v-9.15l3.6,1.29h8.45l-.12-.06c-.35-1.32-1.4-2.78-2.31-3.62l.23-.18c5.35,0,5.58,2.92,4.18,3.86h6.14l1.75-2.37s2.02,1.61,3.16,2.75c-.09,.32-.38,.47-.76,.47h-21.22v7.02Zm12.77,10.99c-2.37,.94-5.85,2.22-10.93,3.89-.18,.38-.41,.61-.73,.7l-1.75-3.36c1.43-.12,3.95-.41,6.96-.79,.38-1.26,.76-2.98,.99-4.21l3.54,1.11c-.09,.35-.44,.58-1.08,.56-.58,.7-1.46,1.61-2.37,2.43,1.7-.23,3.48-.47,5.32-.73l.06,.41Zm7.48-14.35s1.43,1.52,2.19,2.51c-.06,.32-.35,.47-.73,.47h-2.63v12.57c0,2.16-.47,3.36-4.12,3.68-.06-.94-.2-1.64-.67-2.1-.47-.47-1.11-.79-2.57-1.02v-.41s3.07,.2,3.68,.2c.5,0,.64-.15,.64-.53v-12.39h-4.09l.03,.03c-.06,.32-.35,.47-.76,.47h-10.47l-.23-.85h3.65v-2.4h-3.65l-.23-.82h3.89v-2.69l4.01,.35c-.06,.38-.26,.64-.96,.76v1.58h1.14l1.43-1.78s1.61,1.23,2.6,2.13c-.09,.32-.35,.47-.76,.47h-4.41v2.4h.91l1.4-1.84s1.17,.99,2.08,1.87l-.12-.53h4.56v-5.09l4.09,.38c-.06,.44-.35,.7-1.05,.79v3.71l1.17-1.93Zm-11.61,4.03l2.78,2.08c-.18,.18-.53,.38-.99,.5v3.36c-.03,.2-1.43,.7-2.31,.7h-.5v-.99h-3.98v.44c0,.15-.58,.47-1.32,.64,5.2,1.99,2.1,5.73,.18,3.62,.12-1.17-.2-2.6-.67-3.54-.15,.03-.26,.03-.41,.03h-.38v-6.58l2.75,1.11h3.57l1.29-1.37Zm-1.02,4.82v-2.6h-3.98v2.6h3.98Zm3.92-4.47c6.29,3.65,3.16,8.62,.82,6.11,.06-1.99-.56-4.27-1.17-5.99l.35-.12Z"/><path class="cls-4" d="M118.91,36.47s2.16,1.93,3.42,3.22c-.09,.32-.38,.47-.82,.47h-26.72l-.23-.85h5.85V20.65l3.83,1.46h8.8l1.72-1.81,3.25,2.6c-.2,.23-.58,.5-1.2,.61v15.79h.18l1.93-2.84Zm-24.15,10.64c3.27-1.72,6.64-4.62,8.13-6.84l4.27,2.1c-.18,.35-.67,.53-1.58,.41-2.37,1.84-6.46,3.65-10.64,4.65l-.18-.32Zm9.09-24.15v3.48h9.47v-3.48h-9.47Zm9.47,4.33h-9.47v3.33h9.47v-3.33Zm-9.47,4.15v3.45h9.47v-3.45h-9.47Zm0,7.86h9.47v-3.6h-9.47v3.6Zm6.31,1.78c15.9,1.7,10.11,8.57,7.13,5.7-1.23-1.61-3.51-3.74-7.25-5.32l.12-.38Z"/><path class="cls-4" d="M134.69,48.36h-1.17V19.13h1.17v29.23Z"/></g><g><path class="cls-4" d="M435.61,50.82c-.76,0-1.44,0-2.12,0-1.62,0-3.25,0-4.87,.02-.4,0-.57-.14-.73-.5-1.01-2.4-2.06-4.77-3.06-7.17-.2-.49-.44-.63-.96-.62-5.16,.02-10.32,.02-15.49,0-.28,0-.42,.07-.54,.35-1.04,2.48-2.1,4.95-3.14,7.43-.16,.37-.35,.51-.77,.51-4.51-.02-9.02,0-13.52-.02-.21,0-.5-.09-.62-.24-1.64-2.08-3.26-4.17-4.89-6.26-3.01-3.85-6.02-7.71-9.04-11.56-.47-.61-.95-1.21-1.48-1.89,.2-.03,.38-.08,.55-.08,3.86,0,7.71-.07,11.57,.02,2.29,.05,4.2-2.14,3.83-4.49-.28-1.8-1.81-3.24-3.61-3.25-4.65-.02-9.29-.01-13.94-.02-.06,0-.12,.01-.23,.02v27.74c-.17,0-.28,.02-.4,.02-2.2,0-4.4-.01-6.6,0-.34,0-.41-.12-.41-.42,0-11.16,0-22.33,0-33.49,0-.85,0-.84,.87-.84,6.68,0,13.36,0,20.04,0,2.08,0,4.12,.26,5.97,1.33,3.54,2.04,6.47,6.38,5.53,11.51-.77,4.19-3.3,6.84-7.15,8.39-.41,.17-.87,.23-1.41,.38,2.89,3.77,5.75,7.5,8.67,11.31,.11-.22,.2-.35,.26-.49,2.08-4.66,4.16-9.33,6.24-13.99,2.24-5.02,4.48-10.05,6.72-15.07,.46-1.03,.91-2.08,1.4-3.09,.08-.16,.37-.3,.57-.31,.94-.03,1.88-.01,2.82-.01,1.23,0,2.46,.03,3.69,0,.59-.02,.88,.14,1.12,.72,1.41,3.27,2.89,6.52,4.34,9.78,3.54,7.96,7.09,15.93,10.63,23.89,.05,.11,.07,.22,.13,.4Zm-19.3-27.04c-1.72,3.99-3.39,7.87-5.09,11.82h10.29c-1.73-3.94-3.44-7.82-5.2-11.82Z"/><path class="cls-4" d="M249.03,16.15v6.9c-.64,0-1.26,0-1.88,0-6.01,0-12.02,.05-18.03-.03-1.88-.03-3.41,1.64-3.47,3.26-.07,1.86,1.35,3.52,3.25,3.58,2.46,.08,4.92,.03,7.38,.04,1.75,0,3.5-.05,5.23,.07,3.17,.22,5.83,1.51,7.74,4.08,1.69,2.26,2.29,4.83,1.93,7.62-.27,2.08-.95,3.99-2.33,5.61-1.61,1.88-3.67,2.93-6.08,3.36-.55,.1-1.11,.17-1.67,.17-7,.01-14,.01-20.99,.02-.34,0-.4-.14-.39-.43,.01-2,.01-3.99,0-5.99,0-.35,.11-.47,.47-.47,6.59,0,13.18,0,19.76,.01,1.23,0,2.23-.4,2.97-1.37,.84-1.1,1.18-2.34,.54-3.65-.68-1.39-1.83-2.18-3.4-2.19-3.49-.03-6.98,0-10.47,0-1.31,0-2.6-.06-3.88-.41-3.99-1.11-6.91-4.65-7.4-8.76-.48-3.94,1.73-8.41,5.56-10.35,1.65-.84,3.41-1.13,5.24-1.13,6.3,0,12.6,0,18.9,.01,.33,0,.66,.03,1.03,.05Z"/><path class="cls-4" d="M252.47,50.78c.37-.82,.71-1.59,1.05-2.36,1.67-3.74,3.34-7.48,5-11.22,3.08-6.93,6.15-13.86,9.22-20.8,.11-.25,.27-.37,.55-.37,2.28,0,4.55,.01,6.83,0,.43,0,.63,.14,.81,.53,2.95,6.67,5.92,13.34,8.88,20,2.1,4.72,4.2,9.44,6.32,14.21-.14,.02-.25,.06-.36,.06-2.25,0-4.49,0-6.74,0-.3,0-.45-.09-.57-.38-1.07-2.55-2.16-5.09-3.27-7.62-.06-.14-.32-.26-.48-.26-1.32-.02-2.64-.01-3.96-.01-3.9,0-7.8,0-11.7,0-.33,0-.52,.09-.65,.41-1.07,2.48-2.16,4.96-3.24,7.44-.11,.25-.22,.44-.55,.44-2.26,0-4.52,0-6.78,0-.09,0-.17-.03-.34-.05Zm14.25-15.19h10.22c-1.71-3.93-3.39-7.79-5.06-11.65-.04,0-.08,0-.13,0-1.66,3.86-3.33,7.72-5.03,11.65Z"/><path class="cls-4" d="M332.98,16.19c0,.62,0,1.23,0,1.83,0,6.81,0,13.61-.03,20.42,0,1.75,.54,3.22,1.81,4.43,.76,.71,1.65,1.13,2.7,1.14,3.16,0,6.32,0,9.47,0,2.71,.01,4.7-2.62,4.71-4.55,0-.86,.03-1.72,.03-2.58,0-6.84,0-13.68,0-20.51,0-.04,.01-.09,.03-.17h7.4v.48c0,7.2,0,14.4,0,21.6,0,4.97-3.22,9.8-7.83,11.7-1.52,.62-3.13,.84-4.77,.85-2.75,.02-5.5,.01-8.24,0-5.41-.01-9.1-2.66-11.41-7.41-.84-1.73-1.18-3.56-1.17-5.49,.03-7.11,.01-14.22,.02-21.33,0-.12,0-.24,0-.4h7.3Z"/><path class="cls-4" d="M308.21,32.55c5.24,6.07,10.47,12.12,15.76,18.24-.21,.02-.33,.03-.44,.03-2.79,0-5.59,.01-8.38,0-.23,0-.52-.17-.68-.35-1.33-1.52-2.62-3.06-3.93-4.59-2.49-2.91-4.99-5.82-7.48-8.73-.64-.74-1.27-1.49-1.97-2.32-.02,.25-.05,.4-.05,.56,0,4.98,0,9.95,.02,14.93,0,.4-.11,.52-.51,.51-2.16-.02-4.31-.01-6.47,0-.29,0-.47,0-.47-.4,.01-11,.01-21.99,.01-32.99v-1.25h7.43v13.77c.64-.73,1.18-1.35,1.73-1.97,3.46-3.88,6.91-7.75,10.38-11.62,.1-.11,.28-.21,.42-.21,2.96-.01,5.92,0,9.03,0-4.84,5.51-9.61,10.94-14.41,16.39Z"/></g><g><path class="cls-3" d="M181.17,49.18c-8.05,0-16.09,0-24.14,0q-.62,0-.62-.63c0-14.95,0-29.89,.01-44.84,0-1.09,.01-2.18,0-3.27,0-.39,.17-.45,.5-.45,2.81,0,5.62,0,8.43,0,13.21,0,26.41,0,39.62,0,1.18,0,.97-.1,.97,1,0,15.73,0,31.47,0,47.2,0,1.17,.12,.98-.99,.98-7.92,0-15.85,0-23.77,0Zm-18.75-31.85c.31,.17,.5,.27,.7,.38,.8,.42,1.5,.97,2.04,1.7,.74,1.01,.44,2.49-.62,2.95-.96,.42-1.95,.52-2.98,.36-.26-.04-.52-.06-.78-.09-.02,.06-.04,.11-.06,.17,1.81,4.89,5.36,7.11,10.63,6.76-2.09,1.13-3.62,2.75-4.49,4.94-.88,2.21-.82,4.44-.11,6.79,.21-.17,.36-.28,.5-.4,.75-.7,1.55-1.31,2.56-1.59,1.09-.29,2.25,.41,2.44,1.51,.19,1.1-.11,2.12-.59,3.11-.09,.18-.17,.37-.3,.65,1.61,.01,3.08-.23,4.45-.89,3.01-1.44,4.72-3.88,5.41-7.11,.41,2.37,1.47,4.35,3.35,5.86,1.88,1.5,4.02,2.16,6.49,2.11-.11-.24-.16-.37-.23-.48-.46-.77-.68-1.61-.77-2.49-.15-1.47,1.31-2.71,2.64-2.23,.94,.34,1.77,.86,2.45,1.61,.1,.11,.23,.21,.41,.38,.66-1.61,.8-3.2,.54-4.79-.53-3.23-2.41-5.49-5.26-7.07,2.41,.47,4.63-.06,6.68-1.26,2.08-1.23,3.4-3.07,4.15-5.44-.38,.02-.68,0-.97,.05-.83,.15-1.64,.03-2.42-.23-1.4-.47-1.86-1.91-.98-3.1,.56-.77,1.28-1.37,2.14-1.79,.54-.27,.55-.36,.04-.69-3.65-2.37-7.9-2.28-11.39,.46-.32,.25-.6,.54-.9,.81,2.83-5.71-.32-10.79-3.17-12.29-.04,.18-.09,.35-.11,.53-.12,.95-.46,1.81-1.02,2.59-.84,1.16-2.56,1.13-3.36-.06-.54-.8-.91-1.67-.97-2.65,0-.12-.07-.25-.13-.44-1.19,.71-2.08,1.63-2.76,2.72-1.89,3.04-2,6.19-.45,9.43-1.76-1.64-3.83-2.56-6.2-2.77-2.43-.22-4.55,.57-6.58,2.02Z"/><path class="cls-4" d="M162.43,17.33c2.04-1.45,4.16-2.24,6.58-2.02,2.37,.22,4.43,1.13,6.2,2.77-1.55-3.25-1.44-6.39,.45-9.43,.68-1.1,1.57-2.02,2.76-2.72,.06,.2,.12,.32,.13,.44,.06,.98,.44,1.85,.97,2.65,.8,1.19,2.52,1.21,3.36,.06,.56-.77,.9-1.64,1.02-2.59,.02-.17,.07-.34,.11-.53,2.85,1.5,6,6.58,3.17,12.29,.3-.27,.58-.56,.9-.81,3.49-2.74,7.74-2.83,11.39-.46,.52,.33,.5,.42-.04,.69-.86,.42-1.58,1.02-2.14,1.79-.87,1.19-.42,2.63,.98,3.1,.78,.26,1.59,.39,2.42,.23,.29-.05,.59-.03,.97-.05-.75,2.37-2.06,4.21-4.15,5.44-2.05,1.21-4.27,1.73-6.68,1.26,2.86,1.57,4.73,3.84,5.26,7.07,.26,1.6,.13,3.18-.54,4.79-.18-.17-.3-.27-.41-.38-.68-.75-1.51-1.27-2.45-1.61-1.33-.48-2.79,.77-2.64,2.23,.09,.88,.31,1.72,.77,2.49,.07,.11,.11,.24,.23,.48-2.47,.05-4.61-.61-6.49-2.11-1.89-1.5-2.95-3.48-3.35-5.86-.7,3.23-2.4,5.67-5.41,7.11-1.37,.65-2.83,.9-4.45,.89,.13-.28,.21-.47,.3-.65,.48-.98,.78-2.01,.59-3.11-.19-1.1-1.35-1.81-2.44-1.51-1.01,.27-1.81,.89-2.56,1.59-.14,.13-.29,.23-.5,.4-.7-2.35-.77-4.58,.11-6.79,.87-2.19,2.4-3.81,4.49-4.94-5.27,.35-8.82-1.87-10.63-6.76,.02-.06,.04-.11,.06-.17,.26,.03,.52,.05,.78,.09,1.03,.16,2.03,.06,2.98-.36,1.06-.46,1.37-1.95,.62-2.95-.54-.73-1.24-1.28-2.04-1.7-.2-.11-.39-.21-.7-.38Zm15.3,5.75c-.35-.02-.55-.05-.74-.04-.64,.04-1.31,0-1.92,.16-.89,.22-1.33,1.35-.77,1.98,.46,.52,1.03,.98,1.62,1.36,.51,.34,.58,.36,.07,.74-.69,.51-1.4,.98-2.04,1.42,.95-.02,2.01-.19,3.11,.06-.11,.19-.16,.29-.22,.39-.37,.64-.58,1.33-.55,2.08,.04,.85,.74,1.39,1.59,1.26,.69-.11,1.25-.44,1.74-.91,.18-.17,.36-.34,.67-.62,.34,1.06,.63,1.99,.95,2.99,.27-1.03,.43-2.04,1.06-3.03,.12,.18,.16,.31,.25,.38,.52,.38,1.01,.84,1.58,1.1,1.14,.53,2.17-.27,1.97-1.5-.12-.72-.38-1.41-.61-2.21,.45-.01,.96-.04,1.46-.03,.51,0,1.02,.04,1.62,.07-.92-.61-1.88-1.02-2.58-1.89,.15-.07,.28-.11,.38-.19,.53-.39,1.1-.75,1.58-1.2,.81-.75,.27-2.05-.66-2.26-.47-.11-.96-.12-1.44-.14-.32-.01-.65,.03-1.13,.06,.39-1.12,.74-2.11,1.03-2.95-.65,.48-1.42,1.07-2.2,1.62-.34,.24-.46,.17-.47-.23-.02-.72-.3-1.36-.69-1.94-.58-.85-1.79-.87-2.32,.02-.33,.54-.48,1.19-.7,1.79-.06,.16-.07,.34-.14,.64-.93-.69-1.78-1.31-2.55-1.88,.32,.88,.66,1.83,1.05,2.9Z"/><g><path class="cls-4" d="M195.98,60.11c.33-.71,.64-1.35,.93-1.99,.61-1.35,1.21-2.7,1.8-4.06,.17-.4,.41-.52,.86-.56,.76-.06,1.14,.24,1.42,.92,.66,1.6,1.38,3.18,2.09,4.77,.15,.33,.3,.66,.46,.98,.15,.29,.06,.41-.24,.47-.91,.17-1.21,.01-1.53-.82q-.33-.88-1.28-.88c-.67,0-1.34,0-2,0-.29,0-.43,.11-.56,.4-.66,1.54-.16,1.25-1.82,1.32-.05,0-.09,0-.14,0-1.66,0-1.65,0-2.62-1.33-.54-.74-1.13-1.46-1.69-2.19-.12-.15-.18-.35-.31-.61,.83,0,1.54,0,2.25,0,.52,0,.81-.23,.85-.63,.05-.48-.27-.85-.78-.86-.77-.02-1.55,0-2.32-.01-.33,0-.41,.14-.41,.44,0,1.54-.01,3.08,.02,4.63,0,.45-.15,.57-.57,.58-1,.02-1.01,0-1-.99,.03-1.87,.04-3.75,.04-5.62,0-.4,.12-.54,.52-.52,1.39,.04,2.79,.02,4.18,.09,.94,.05,1.64,.76,1.84,1.73,.2,.95-.22,1.93-1.02,2.38-.11,.06-.21,.12-.32,.17-.22,.1-.25,.24-.09,.42,.02,.02,.04,.05,.06,.07,.44,.54,.87,1.08,1.39,1.71Zm3.85-4.69c-.05,0-.11,0-.16,0-.27,.65-.55,1.3-.85,2.03h1.93c-.32-.71-.62-1.38-.91-2.04Z"/><path class="cls-4" d="M162.44,60.66c-.64,0-1.27,0-1.91,0-.42,0-.61-.15-.6-.59,.02-.92,0-.91,.94-.9,1.03,0,2.06,.01,3.1,0,.56,0,.87-.27,.87-.71,0-.37-.3-.62-.84-.64-.8-.03-1.61-.03-2.41-.08-1.1-.06-1.95-1.01-1.93-2.13,.01-1.05,.9-1.99,1.96-2.01,1.3-.03,2.61,0,3.91-.01,.36,0,.46,.15,.47,.49,.02,.94,.03,.94-.92,.94-1.02,0-2.03,0-3.05,0-.5,0-.74,.2-.76,.59-.02,.45,.19,.69,.68,.71,.83,.03,1.67,.07,2.5,.08,1.21,0,1.99,1.13,1.98,1.99-.02,1.19-.64,2.18-2.06,2.24-.64,.03-1.27,0-1.91,0h0Z"/><path class="cls-4" d="M166.57,60.58c.51-1.15,.98-2.21,1.45-3.27,.5-1.12,1-2.23,1.49-3.35,.13-.3,.33-.43,.66-.44,1.16-.02,1.17-.03,1.64,1.03,.82,1.83,1.64,3.67,2.45,5.5,.2,.45,.13,.58-.35,.6-.18,0-.36,0-.55,0-.35-.02-.57-.16-.7-.52-.41-1.18-.42-1.18-1.65-1.18-.59,0-1.18,0-1.77-.01-.27,0-.43,.08-.51,.34-.08,.23-.18,.45-.27,.67-.28,.7-.31,.72-1.06,.71-.25,0-.51-.04-.83-.07Zm3.02-3.13h1.86c-.2-.74-.51-1.4-.96-2.12-.32,.75-.59,1.38-.9,2.12Z"/><path class="cls-4" d="M188.21,56.08c0,.57,0,1.15,0,1.72-.02,1.67-.96,2.71-2.62,2.82-.65,.04-1.31,.02-1.95-.06-1.31-.14-2.26-1.19-2.29-2.51-.03-1.35,0-2.69-.01-4.04,0-.35,.16-.48,.5-.49,1.1-.05,1.1-.05,1.1,1.03,0,1.03,0,2.06,0,3.09,0,.25,.03,.51,.08,.76,.09,.45,.39,.72,.85,.74,.64,.03,1.27,.02,1.91,0,.45-.01,.74-.26,.82-.7,.05-.25,.09-.51,.09-.76,0-1.23,.01-2.45,0-3.68,0-.3,.09-.46,.4-.45,.03,0,.06,0,.09,0,.98-.07,1.04-.02,1.03,.93,0,.27,0,.54,0,.82,0,.26,0,.51,0,.77h0Z"/><path class="cls-4" d="M176.57,56.15c.09-.09,.2-.16,.28-.26,.6-.68,1.19-1.37,1.8-2.04,.1-.11,.27-.2,.42-.22,.41-.05,.82-.07,1.22-.07,.13,0,.26,.1,.4,.15-.06,.11-.1,.25-.18,.34-.75,.83-1.49,1.68-2.26,2.48-.31,.32-.27,.55,0,.84,.86,.94,1.71,1.88,2.56,2.83,.08,.09,.16,.2,.31,.39-.68,0-1.25,.02-1.81-.01-.15,0-.31-.17-.43-.3-.7-.81-1.4-1.63-2.09-2.46-.08-.09-.12-.21-.18-.31-.05,.03-.1,.06-.14,.09,0,.79,0,1.58,0,2.37,.01,.69,.02,.69-.69,.7-.09,0-.18,0-.27,0-.51,0-.63-.1-.62-.6,0-1.39,.04-2.78,.04-4.17,0-.56-.03-1.12-.03-1.68,0-.66,.07-.72,.74-.69,.11,0,.21,.02,.32,.03,.36,.03,.53,.19,.51,.58-.03,.65,0,1.3,0,1.94,.04,.02,.07,.04,.11,.06Z"/></g><path class="cls-2" d="M177.73,23.08c-.39-1.07-.73-2.03-1.05-2.9,.77,.57,1.62,1.19,2.55,1.88,.06-.3,.08-.48,.14-.64,.22-.6,.38-1.25,.7-1.79,.53-.88,1.74-.86,2.32-.02,.4,.58,.67,1.21,.69,1.94,.01,.4,.13,.47,.47,.23,.79-.55,1.55-1.14,2.2-1.62-.29,.83-.64,1.83-1.03,2.95,.48-.03,.81-.08,1.13-.06,.48,.02,.97,.04,1.44,.14,.93,.21,1.47,1.51,.66,2.26-.48,.45-1.05,.81-1.58,1.2-.1,.07-.23,.11-.38,.19,.7,.88,1.66,1.29,2.58,1.89-.59-.03-1.1-.06-1.62-.07-.5,0-1.01,.02-1.46,.03,.22,.8,.49,1.49,.61,2.21,.2,1.24-.83,2.03-1.97,1.5-.57-.27-1.06-.72-1.58-1.1-.09-.07-.13-.19-.25-.38-.64,.99-.8,2-1.06,3.03-.32-1-.62-1.93-.95-2.99-.31,.29-.5,.45-.67,.62-.49,.47-1.05,.8-1.74,.91-.85,.13-1.55-.41-1.59-1.26-.03-.74,.17-1.43,.55-2.08,.06-.1,.12-.21,.22-.39-1.11-.25-2.16-.09-3.11-.06,.64-.44,1.35-.91,2.04-1.42,.51-.38,.45-.41-.07-.74-.59-.39-1.16-.84-1.62-1.36-.56-.63-.12-1.76,.77-1.98,.62-.15,1.28-.12,1.92-.16,.19-.01,.39,.02,.74,.04Z"/><g><path class="cls-1" d="M181.13,63.15c-8.05,0-16.09,0-24.14,0-.58,0-.56-.02-.56-.58,.02-1.86,0-3.72,0-5.58,0-1.86,0-3.72-.02-5.58,0-.41,.15-.51,.54-.51,10.63,.02,21.25,.03,31.88,.03,5.53,0,11.05,0,16.58-.02,.42,0,.51,.16,.51,.53-.01,3.15,0,6.29-.01,9.44,0,.59-.02,1.18,.02,1.77,.02,.41-.15,.51-.53,.51-5.59-.01-11.17-.01-16.76-.01-2.5,0-5.01,0-7.51,0Zm14.85-3.04c-.51-.63-.95-1.17-1.39-1.71-.02-.02-.04-.05-.06-.07-.16-.18-.13-.32,.09-.42,.11-.05,.21-.11,.32-.17,.79-.44,1.21-1.42,1.02-2.38-.2-.97-.9-1.68-1.84-1.73-1.39-.07-2.79-.05-4.18-.09-.4-.01-.52,.13-.52,.52,0,1.87-.01,3.75-.04,5.62-.01,.99,0,1.01,1,.99,.42,0,.58-.13,.57-.58-.03-1.54,0-3.08-.02-4.63,0-.3,.08-.44,.41-.44,.77,.02,1.55,0,2.32,.01,.5,.01,.82,.38,.78,.86-.04,.4-.33,.63-.85,.63-.71,0-1.42,0-2.25,0,.13,.26,.19,.45,.31,.61,.56,.73,1.15,1.45,1.69,2.19,.97,1.33,.96,1.33,2.62,1.33,.05,0,.09,0,.14,0,1.66-.06,1.16,.22,1.82-1.32,.13-.29,.27-.41,.56-.4,.67,0,1.34,0,2,0q.94,0,1.28,.88c.32,.84,.62,1,1.53,.82,.3-.06,.39-.18,.24-.47-.17-.32-.32-.65-.46-.98-.7-1.59-1.43-3.17-2.09-4.77-.28-.68-.66-.98-1.42-.92-.44,.04-.68,.16-.86,.56-.58,1.36-1.19,2.71-1.8,4.06-.29,.64-.6,1.28-.93,1.99Zm-33.54,.55h0c.64,0,1.28,.02,1.91,0,1.42-.06,2.04-1.05,2.06-2.24,.02-.86-.76-1.98-1.98-1.99-.83,0-1.67-.04-2.5-.08-.48-.02-.7-.26-.68-.71,.02-.39,.26-.58,.76-.59,1.02,0,2.03,0,3.05,0,.95,0,.94,0,.92-.94,0-.34-.11-.5-.47-.49-1.3,.01-2.61-.01-3.91,.01-1.06,.02-1.95,.96-1.96,2.01-.01,1.12,.84,2.07,1.93,2.13,.8,.04,1.61,.05,2.41,.08,.53,.02,.84,.26,.84,.64,0,.44-.31,.7-.87,.71-1.03,0-2.06,0-3.1,0-.93,0-.92-.01-.94,.9,0,.44,.19,.6,.6,.59,.64-.01,1.27,0,1.91,0Zm4.13-.08c.32,.03,.58,.06,.83,.07,.75,.01,.78-.01,1.06-.71,.09-.22,.19-.44,.27-.67,.09-.25,.24-.34,.51-.34,.59,.02,1.18,.01,1.77,.01,1.23,0,1.25,0,1.65,1.18,.12,.36,.35,.5,.7,.52,.18,0,.36,0,.55,0,.48-.02,.55-.15,.35-.6-.82-1.83-1.63-3.67-2.45-5.5-.47-1.06-.48-1.05-1.64-1.03-.33,0-.53,.14-.66,.44-.49,1.12-.99,2.24-1.49,3.35-.47,1.06-.94,2.12-1.45,3.27Zm21.65-4.5h0c0-.26,0-.51,0-.77,0-.27,0-.54,0-.82,0-.96-.06-1.01-1.03-.93-.03,0-.06,0-.09,0-.31,0-.4,.15-.4,.45,.01,1.23,.01,2.45,0,3.68,0,.25-.04,.51-.09,.76-.09,.44-.38,.69-.82,.7-.64,.02-1.27,.03-1.91,0-.46-.02-.76-.29-.85-.74-.05-.25-.08-.51-.08-.76,0-1.03,0-2.06,0-3.09,0-1.09,0-1.08-1.1-1.03-.33,.01-.5,.14-.5,.49,.01,1.35-.01,2.69,.01,4.04,.03,1.32,.98,2.36,2.29,2.51,.64,.07,1.3,.1,1.95,.06,1.66-.11,2.6-1.15,2.62-2.82,0-.57,0-1.15,0-1.72Zm-11.64,.07s-.07-.04-.11-.06c0-.65-.02-1.3,0-1.94,.02-.39-.15-.56-.51-.58-.11,0-.21-.02-.32-.03-.67-.03-.74,.02-.74,.69,0,.56,.03,1.12,.03,1.68,0,1.39-.04,2.78-.04,4.17,0,.5,.12,.6,.62,.6,.09,0,.18,0,.27,0,.71,0,.7,0,.69-.7-.01-.79,0-1.58,0-2.37,.05-.03,.1-.06,.14-.09,.06,.1,.1,.22,.18,.31,.69,.82,1.39,1.64,2.09,2.46,.11,.13,.28,.29,.43,.3,.56,.04,1.13,.01,1.81,.01-.15-.19-.22-.3-.31-.39-.85-.94-1.7-1.89-2.56-2.83-.27-.3-.32-.52,0-.84,.78-.81,1.52-1.65,2.26-2.48,.08-.09,.12-.23,.18-.34-.13-.05-.26-.15-.4-.15-.41,0-.82,.02-1.22,.07-.15,.02-.32,.11-.42,.22-.61,.67-1.2,1.36-1.8,2.04-.08,.1-.19,.17-.28,.26Z"/><path class="cls-1" d="M199.83,55.41c.3,.67,.6,1.33,.91,2.04h-1.93c.31-.73,.58-1.38,.85-2.03,.05,0,.11,0,.16,0Z"/><path class="cls-1" d="M169.58,57.44c.31-.74,.58-1.37,.9-2.12,.45,.72,.76,1.38,.96,2.12h-1.86Z"/></g></g></g></g></svg>