<?xml version="1.0" encoding="UTF-8"?><svg id="_圖層_2" xmlns="http://www.w3.org/2000/svg" viewBox="0 0 318.13 29.23"><defs><style>.cls-1{fill:#fff;}</style></defs><g id="_圖片"><g><path class="cls-1" d="M4.03,6.58c.35,2.08-.18,3.57-1.08,4.27-.85,.7-2.37,.5-2.84-.61-.38-1.08,.2-1.96,1.08-2.46,.88-.61,1.84-2.22,1.64-3.77h.41c.26,.61,.47,1.17,.61,1.72H12.98c-.23-.12-.5-.26-.73-.47,.06-1.49-.7-3.16-1.72-4.12l.2-.2c6.2,.41,6.02,3.86,4.21,4.79h7.31l1.81-1.81,3.19,3.01c-.23,.23-.53,.32-1.14,.35-1.05,1.05-2.89,2.43-4.3,3.22l-.23-.2c.29-.99,.67-2.51,.85-3.71H4.03Zm19.44,5.09s2.13,1.58,3.45,2.72c-.09,.32-.41,.47-.82,.47h-5.93c-.67,2.78-1.78,5.17-3.74,7.22,11.31,3.07,6.9,7.51,3.8,5.85-1.52-1.17-3.68-2.46-6.4-3.71-2.95,1.9-7.13,3.27-13.1,4.09l-.18-.35c4.85-1.26,8.27-2.89,10.7-4.85-2.28-.91-4.79-1.78-7.6-2.54,.79-1.37,1.84-3.51,2.84-5.7H.64l-.26-.85H6.87c1.11-2.57,2.13-5.06,2.54-6.46l4.77,1.43c-.12,.32-.38,.61-1.32,.59-.56,1.11-1.32,2.72-2.16,4.44h5.7c.18-1.17,.29-2.37,.35-3.63l5.06,.96c-.09,.47-.47,.7-1.14,.67-.09,.67-.2,1.34-.32,1.99h1.29l1.84-2.34Zm-13.21,3.19c-.99,1.93-2.05,3.92-3.01,5.55,2.22,.26,4.15,.56,5.88,.91,1.67-1.96,2.57-4.09,3.1-6.46h-5.96Z"/><path class="cls-1" d="M34.64,9.71c2.19,5.32,1.34,9-.03,10.96-.94,1.43-2.6,1.61-3.51,.7-.67-.85-.47-1.9,.26-2.72,1.49-1.37,2.95-5,2.89-8.92l.38-.03Zm7.81-3.07c-.03,.38-.29,.7-1.02,.79v15.14c0,.73,.35,.97,1.67,.97h3.57c1.32,0,2.4-.03,2.92-.06,.5-.06,.76-.18,.99-.53,.38-.61,.94-2.34,1.58-4.56h.32l.12,4.76c1.05,.41,1.32,.82,1.32,1.49,0,1.64-1.46,2.37-7.57,2.37h-3.74c-3.48,0-4.62-.61-4.62-3.42V6.2l4.47,.44Zm3.95,2.87c-.56-2.72-2.37-5.88-4.12-8.01l.26-.18c10.2,3.39,7.42,10.9,3.86,8.19Zm8.36,11.58c-.18-2.84-.96-7.34-3.3-10.49l.26-.23c10.61,6.4,5.82,14.38,3.04,10.73Z"/><path class="cls-1" d="M72.04,11.14c-.23,.26-.56,.38-1.26,.44-1.05,5.61-3.65,11.14-9.12,14.53l-.29-.26c3.77-4.62,5.55-9.85,5.96-15.05h-5.06l-.26-.82h5l1.81-1.87,3.22,3.04Zm17.13-.64c-.2,.26-.47,.41-1.17,.26-1.52,.82-3.63,1.9-5.73,2.69,1.75,4.06,4.27,7.28,7.25,9.06l-.09,.29c-1.2,.29-2.28,1.29-2.78,2.92-1.52-1.43-2.69-3.16-3.65-5.23-.12,.26-.41,.38-.79,.38h-5.09v3.48c0,2.34-.56,3.63-4.71,4.01-.12-1.05-.26-1.81-.76-2.28-.56-.5-1.32-.88-3.01-1.14v-.38s3.62,.2,4.36,.2c.53,0,.67-.15,.67-.53v-3.36h-5.47l-.23-.82h5.7v-3.45h-3.45l-.23-.82h3.68v-3.16h-2.66l-.23-.82h2.89V6.72l2.78,.26c1.29-.99,2.63-2.25,3.57-3.3h-13.74l-.26-.85h14.38l1.9-1.84,3.22,2.81c-.23,.23-.58,.32-1.23,.35-1.84,1.02-4.18,2.13-6.49,2.95l.38,.03c-.09,.41-.35,.67-1.05,.76v3.92h.12l1.37-1.81s.99,.88,1.87,1.67c-.23-1.43-.44-2.95-.61-4.53l.41-.12c.41,2.02,.99,3.98,1.72,5.76,1.29-1.58,2.75-3.74,3.45-5.06l3.71,2.78Zm-12.04,5.29h.53l1.4-1.87s1.4,1.17,2.34,2.05c-.29-1.05-.53-2.19-.76-3.39-.12,.03-.23,.06-.38,.06h-3.13v3.16Zm3.01,2.13s1.67,1.34,2.78,2.37c-.56-1.23-1.02-2.54-1.43-3.95-.12,.18-.35,.26-.67,.26h-3.68v3.45h1.46l1.55-2.13Z"/><path class="cls-1" d="M102.08,4.88s1.58,1.23,2.51,2.13c-.09,.32-.35,.47-.76,.47h-9.85l-.23-.82h6.96l1.37-1.78Zm-.5,3.83s1.46,1.17,2.34,2.02c-.06,.32-.35,.47-.76,.47h-8.16l-.23-.82h5.53l1.29-1.67Zm0,3.77s1.46,1.17,2.34,2.02c-.06,.32-.35,.47-.76,.47h-8.16l-.23-.82h5.53l1.29-1.67Zm2.92,6.08c-.15,.18-.53,.41-1.02,.53v6.81c-.03,.23-1.46,.91-2.48,.91h-.5v-1.46h-2.51v1.81c0,.26-1.26,.94-2.51,.94h-.44v-11.49l3.04,1.26h2.16l1.37-1.46,2.89,2.16ZM96.11,1.49c7.51,.35,4.82,6.02,1.81,4.03-.26-1.4-1.23-2.95-2.1-3.86l.29-.18Zm4.38,23.04v-5.85h-2.51v5.85h2.51Zm17.63-14.09s2.02,1.61,3.16,2.75c-.09,.32-.38,.47-.79,.47h-8.59c-.7,1.43-1.52,2.66-2.4,3.83l.79,.29h4.74l1.52-1.67,3.22,2.46c-.2,.23-.61,.5-1.2,.61v7.83c-.03,.23-1.61,.91-2.72,.91h-.53v-2.1h-5.41v1.43c0,.23-.99,.99-2.66,.99h-.59v-7.81c-.82,.67-1.67,1.29-2.54,1.81l-.35-.29c1.87-2.05,3.62-4.97,4.91-8.3h-5.12l-.23-.85h5.67c.5-1.46,.94-3.01,1.26-4.59l4.24,1.58c-.15,.35-.53,.61-1.2,.53-.32,.88-.64,1.7-.99,2.48h4.06l1.75-2.37Zm-14.53-4.97h2.48l-.38-4.41,3.89,.7c-.09,.32-.32,.58-.91,.67l.29,2.92,1.17-1.58s1.4,1.2,2.25,2.08c-.09,.32-.35,.47-.76,.47h-2.57l.29,3.19c-.41,.53-1.49,.79-2.84,.76l-.35-3.95h-2.31l-.26-.85Zm6.31,13.16v6.37h5.41v-6.37h-5.41Zm9.09-15.03s1.55,1.32,2.43,2.25c-.06,.32-.35,.47-.7,.47h-3.33l-.29,2.84c-.53,.41-1.67,.59-2.92,.38l.35-3.22h-1.96l-.23-.85h2.28l.5-4.38,3.8,.82c-.12,.35-.35,.61-1.11,.64l-.32,2.92h.12l1.4-1.87Z"/><path class="cls-1" d="M133.82,29.23h-1.17V0h1.17V29.23Z"/><path class="cls-1" d="M148.74,13.48c1.17-.35,2.34-.53,3.68-.53,4.62,0,7.57,2.28,7.57,6.37,0,4.33-3.33,6.87-8.13,6.87-3.77,0-6.08-1.81-6.46-4.88,.29-.79,.96-1.17,1.72-1.17,1.05,0,1.64,.59,1.9,2.19l.5,2.51c.53,.18,1.05,.26,1.72,.26,2.89,0,4.68-2.02,4.68-5.35s-1.72-5.2-4.53-5.2c-1.14,0-2.19,.12-3.27,.5l-.85-.44,.7-9.73h11.31v3.1h-10.17l-.38,5.5Z"/><path class="cls-1" d="M188.9,17.48s2.25,1.72,3.68,2.92c-.09,.32-.41,.47-.85,.47h-9.09v6.43c0,.23-1.08,.99-3.01,.99h-.7v-7.42h-13.53l-.23-.85h4.97V10.58l4.03,1.52h4.76V6.34h-5.41c-2.37,3.13-5.12,5.5-8.13,7.16l-.29-.26c2.6-2.92,5.47-7.81,7.1-12.77l4.82,1.84c-.15,.35-.56,.58-1.23,.53-.53,.94-1.08,1.84-1.7,2.69h12.1l2.02-2.51s2.22,1.64,3.68,2.86c-.09,.32-.41,.47-.85,.47h-8.42v5.76h2.92l1.9-2.37s2.16,1.61,3.45,2.72c-.09,.32-.41,.47-.85,.47h-7.43v7.1h4.21l2.05-2.54Zm-9.97,2.54v-7.1h-5.15v7.1h5.15Z"/><path class="cls-1" d="M209,4.33c-.23,.26-.61,.38-1.32,.41-1.02,1.78-2.81,4.88-4.33,6.72,3.33,2.02,4.65,4.82,4.68,7.22,0,2.89-1.17,4.56-4.5,4.62,0-.91-.15-2.13-.38-2.54-.23-.32-.7-.58-1.4-.73v-.38h1.93c.29,0,.44-.03,.64-.18,.41-.23,.64-.76,.64-1.7,0-2.02-.64-4.27-2.34-6.23,.53-1.9,1.26-5.41,1.67-7.72h-2.89V27.3c0,.23-.96,1.02-2.6,1.02h-.58V1.64l3.6,1.37h2.25l1.72-1.67,3.22,2.98Zm12.51-.09s2.08,1.7,3.24,2.87c-.06,.32-.41,.47-.82,.47h-8.95c-.06,1.49-.15,2.95-.29,4.36h4.18l1.81-1.78,3.1,2.63c-.23,.26-.61,.44-1.26,.56-.32,8.27-1.02,12.25-2.66,13.62-.99,.88-2.22,1.26-3.98,1.26,.03-1.02-.12-1.84-.53-2.28-.5-.53-1.55-.97-2.75-1.23v-.38c1.2,.09,3.1,.23,3.74,.23,.5,0,.76-.09,1.05-.32,.94-.79,1.46-4.79,1.75-11.49h-4.59c-.88,6.61-3.22,12.16-10.2,15.55l-.2-.26c6.05-5.32,7.07-12.48,7.07-20.46h-4.36l-.23-.85h8.13c-.41-.09-.82-.29-1.23-.67,.09-1.7-.67-3.63-1.67-4.88l.23-.15c6.34,1.32,5.55,5.26,3.42,5.7h4.12l1.84-2.48Z"/><path class="cls-1" d="M240.37,10.35c-.2,.29-.5,.41-1.14,.47-1.34,5.73-4.3,11.37-10.76,14.7l-.26-.32c4.27-3.62,6.58-9.35,7.51-14.88h-6.55l-.26-.85h6.61l1.75-1.81,3.1,2.69Zm15.08-1.93c-.18,.29-.47,.47-1.17,.35-1.78,1.52-4.5,3.54-7.25,5.12,2.46,4.09,5.79,6.52,9.09,8.13l-.15,.32c-1.43,.26-2.51,1.49-2.98,3.1-4.65-3.8-7.63-8.62-9.06-18.18V24.09c0,2.48-.56,3.86-4.74,4.21-.12-1.14-.32-1.93-.82-2.48-.56-.56-1.29-.94-2.98-1.23v-.41s3.6,.23,4.33,.23c.53,0,.7-.18,.7-.56V.91l4.56,.47c-.09,.41-.29,.67-1.05,.79v3.01c.58,3.19,1.52,5.79,2.69,7.98,1.87-2.34,3.83-5.41,4.79-7.28l4.03,2.54Z"/><path class="cls-1" d="M266.95,9.59c-.12,.26-.35,.47-.91,.53V27.33c-.03,.26-1.46,.99-2.75,.99h-.64V12.8c-1.08,1.26-2.25,2.4-3.51,3.39l-.35-.23c2.37-3.68,4.76-9.44,5.96-15.05l4.71,1.4c-.15,.38-.53,.64-1.2,.61-.82,2.25-1.81,4.27-2.92,6.08l1.61,.59Zm16.69,3.95s2.16,1.69,3.45,2.84c-.09,.32-.41,.47-.82,.47h-7.75v10.49c-.03,.23-1.08,.96-2.84,.96h-.61v-8.36c-.15,.03-.29,.03-.47,0-2.16,2.98-4.97,5.29-7.72,6.75l-.32-.26c1.7-2.08,3.74-5.53,5.03-8.89l3.48,1.58v-2.28h-7.81l-.23-.82h8.04v-4.5h-2.13v1.11c0,.2-.99,.79-2.69,.79h-.58V1.84l3.6,1.37h7.37l1.58-1.81,3.07,2.34c-.18,.23-.47,.41-1.11,.53v7.89c0,.15-1.08,.73-2.84,.73h-.61v-1.37h-2.19v4.5h3.19l1.93-2.48Zm-10.7-2.87h7.78V4.06h-7.78v6.61Zm6.34,7.72c10.14,3.22,7.83,9.97,4.38,7.66-.82-2.46-2.98-5.41-4.68-7.48l.29-.18Z"/><path class="cls-1" d="M318.13,3.86c-.2,.23-.61,.5-1.2,.61V26.92c-.03,.29-1.58,1.08-2.84,1.08h-.5v-1.96h-17.51v.97c0,.44-1.32,1.29-2.75,1.29h-.56V1.61l3.6,1.49h16.93l1.61-1.81,3.22,2.57Zm-4.53,21.34V3.92h-17.51V25.2h17.51Zm-3.74-18.01s1.87,1.55,3.01,2.6c-.09,.32-.38,.47-.82,.47h-5.64v4.27h.88l1.4-1.52,2.98,2.22c-.15,.2-.53,.44-1.08,.56v6.58c-.03,.2-1.55,.76-2.48,.76h-.53v-1.84h-5.55v1.2c0,.29-1.29,.94-2.54,.94h-.41V13.27l3.1,1.26h1.02v-4.27h-5.76l-.23-.82h5.99V4.85l4.18,.38c-.06,.38-.26,.64-.96,.76v3.45h1.81l1.64-2.25Zm-7.83,8.16v5.12h5.55v-5.12h-5.55Z"/></g></g></svg>