<?xml version="1.0" encoding="UTF-8"?><svg id="_圖層_2" xmlns="http://www.w3.org/2000/svg" viewBox="0 0 274.28 66.47"><defs><style>.cls-1{fill:#fff;}</style></defs><g id="_主視覺"><g><path class="cls-1" d="M57.58,5.79s5.58,4.16,8.82,7.13c-.14,.78-.85,1.13-1.91,1.13h-27.1v9.46h10.8l3.74-4.31,8.26,6.21c-.49,.56-1.41,1.2-2.89,1.48v20.89c0,5.43-1.2,8.61-10.44,9.46-.14-2.61-.49-4.52-1.41-5.79-.99-1.13-2.26-2.12-5.36-2.61v-.99s5.72,.35,7.41,.35c1.06,0,1.41-.42,1.41-1.27V25.47h-11.5v38.67c-.07,.56-2.68,2.33-7.13,2.33h-1.62V25.47h-11.57v28.37c0,.92-3.6,2.75-7.13,2.75h-1.2V19.9l8.89,3.6h11.01V14.04H.56l-.56-1.97H52.64l4.94-6.28ZM25.05,0c20.53,.21,13.9,15.81,5.57,10.72-.85-3.81-3.67-7.76-6.07-10.3l.49-.42Z"/><path class="cls-1" d="M134.2,17.64c-.49,.56-1.41,1.27-2.89,1.55v23.21c-.07,.56-4.45,2.12-7.34,2.12h-1.48v-5.93h-15.88v24.7c0,.92-3.81,3.03-7.2,3.03h-1.62v-27.73h-15.73v4.16c0,.85-3.88,2.82-7.48,2.82h-1.27V11.99l9.38,3.67h15.1V.21l11.43,1.06c-.14,.99-.7,1.76-2.61,2.05V15.66h15.24l3.95-4.38,8.4,6.35Zm-36.41,18.91V17.71h-15.73v18.84h15.73Zm24.7,0V17.71h-15.88v18.84h15.88Z"/><path class="cls-1" d="M147.4,21.38c5.29,12.84,3.25,21.73-.07,26.46-2.26,3.46-6.28,3.88-8.47,1.69-1.62-2.05-1.13-4.59,.63-6.56,3.6-3.32,7.13-12.07,6.99-21.52l.92-.07Zm18.84-7.41c-.07,.92-.7,1.69-2.47,1.9V52.43c0,1.76,.85,2.33,4.02,2.33h8.61c3.18,0,5.79-.07,7.06-.14,1.2-.14,1.83-.42,2.4-1.27,.92-1.48,2.26-5.65,3.81-11.01h.78l.28,11.5c2.54,.99,3.17,1.98,3.17,3.6,0,3.95-3.53,5.72-18.27,5.72h-9.03c-8.4,0-11.15-1.48-11.15-8.26V12.91l10.79,1.06Zm9.53,6.92c-1.34-6.56-5.72-14.18-9.95-19.33l.63-.42c24.63,8.18,17.92,26.32,9.31,19.76Zm20.18,27.94c-.42-6.85-2.33-17.71-7.97-25.33l.63-.56c25.61,15.45,14.04,34.72,7.34,25.9Z"/><path class="cls-1" d="M239.85,15.52c-.49,.63-1.55,1.2-2.96,1.48V59.06c-.07,.56-3.81,2.33-6.56,2.33h-1.2v-5.57h-10.73v5.22c0,.92-2.96,2.68-6.35,2.68h-1.27V10.37l7.9,3.32h.42c.49-3.88,1.13-9.38,1.48-13.34l11.43,2.75c-.28,1.2-1.27,1.69-2.89,1.69-1.83,2.47-4.59,6.14-6.85,8.89h6.14l3.74-4.23,7.69,6.07Zm-21.45,.21v17.5h10.73V15.73h-10.73Zm10.73,38.1v-18.56h-10.73v18.56h10.73Zm45.16-38.31c-.56,.63-1.48,1.13-3.1,1.34-.49,28.44-1.48,41.35-5.36,45.51-2.54,2.68-5.65,3.81-10.3,3.81,0-2.68-.35-4.66-1.55-5.79-1.27-1.34-4.02-2.47-7.48-3.1l.07-.99c3.39,.28,8.25,.63,10.09,.63,1.27,0,1.91-.28,2.61-.92,2.61-2.4,3.32-16.44,3.81-40.5h-13.13c-3.39,6-7.41,11.01-11.92,14.82l-.92-.56c3.88-7.2,7.69-18.7,9.52-29.5l11.15,3.25c-.28,.92-1.13,1.41-2.75,1.41-1.2,3.03-2.47,5.86-3.95,8.54h11.22l4.45-4.59,7.55,6.63Zm-31.19,12.35c20.61,6.07,12.91,21.31,5.44,15.03-.35-5.01-3.18-10.73-6-14.61l.56-.42Z"/></g></g></svg>