<?xml version="1.0" encoding="UTF-8"?><svg id="_圖層_2" xmlns="http://www.w3.org/2000/svg" viewBox="0 0 580.23 56.21"><defs><style>.cls-1{fill:#f9d3e3;}.cls-2{fill:#5e318f;}</style></defs><g id="_主視覺"><g><g><path class="cls-1" d="M215.39,31.91c0-4.53,.68-8.43,2.05-11.7,1.37-3.27,3.18-5.7,5.45-7.3,1.76-1.27,3.57-1.9,5.44-1.9,3.05,0,5.78,1.55,8.2,4.65,3.02,3.85,4.54,9.06,4.54,15.64,0,4.61-.66,8.52-1.99,11.74-1.33,3.22-3.02,5.56-5.08,7.01-2.06,1.45-4.04,2.18-5.96,2.18-3.79,0-6.94-2.24-9.46-6.7-2.13-3.77-3.19-8.31-3.19-13.61Zm5.74,.73c0,5.47,.67,9.93,2.02,13.38,1.11,2.91,2.77,4.36,4.98,4.36,1.05,0,2.15-.47,3.28-1.42,1.13-.95,1.99-2.53,2.58-4.76,.9-3.36,1.35-8.09,1.35-14.2,0-4.53-.47-8.31-1.4-11.33-.7-2.25-1.61-3.84-2.72-4.77-.8-.64-1.77-.97-2.9-.97-1.33,0-2.51,.6-3.54,1.79-1.41,1.62-2.36,4.17-2.87,7.64-.51,3.47-.76,6.9-.76,10.28Z"/><path class="cls-1" d="M244.61,19.38c1.13-2.68,2.56-4.74,4.29-6.19,1.73-1.45,3.88-2.18,6.46-2.18,3.18,0,5.62,1.03,7.32,3.1,1.29,1.54,1.93,3.19,1.93,4.95,0,2.89-1.82,5.88-5.45,8.96,2.44,.96,4.28,2.32,5.53,4.1,1.25,1.78,1.87,3.86,1.87,6.26,0,3.44-1.09,6.41-3.28,8.93-2.85,3.28-6.98,4.92-12.39,4.92-2.67,0-4.49-.33-5.46-1-.97-.66-1.45-1.38-1.45-2.14,0-.57,.23-1.06,.69-1.49,.46-.43,1.01-.64,1.66-.64,.49,0,.99,.08,1.49,.23,.33,.1,1.08,.45,2.25,1.07,1.17,.61,1.98,.98,2.43,1.1,.72,.22,1.49,.32,2.31,.32,1.99,0,3.72-.77,5.2-2.31,1.47-1.54,2.21-3.37,2.21-5.48,0-1.54-.34-3.04-1.03-4.51-.51-1.09-1.06-1.92-1.67-2.49-.84-.78-1.99-1.49-3.46-2.12-1.46-.63-2.96-.95-4.48-.95h-.94v-.88c1.54-.19,3.09-.75,4.64-1.67,1.55-.92,2.68-2.02,3.38-3.31,.7-1.29,1.06-2.7,1.06-4.25,0-2.01-.63-3.63-1.89-4.87-1.26-1.24-2.83-1.86-4.7-1.86-3.03,0-5.55,1.62-7.58,4.86l-.97-.47Z"/><path class="cls-1" d="M274.02,35.87h15.14v4.42h-15.14v-4.42Z"/><path class="cls-1" d="M325.16,44.83l-3.79,10.42h-31.94v-1.48c9.39-8.57,16.01-15.57,19.84-21,3.83-5.43,5.75-10.39,5.75-14.89,0-3.43-1.05-6.25-3.15-8.46-2.1-2.21-4.62-3.31-7.54-3.31-2.66,0-5.05,.78-7.17,2.33-2.12,1.56-3.68,3.84-4.69,6.85h-1.48c.67-4.92,2.38-8.7,5.13-11.34,2.75-2.63,6.19-3.95,10.32-3.95,4.39,0,8.06,1.41,11,4.23,2.94,2.82,4.41,6.15,4.41,9.98,0,2.74-.64,5.48-1.92,8.22-1.97,4.31-5.16,8.88-9.58,13.69-6.63,7.24-10.77,11.6-12.42,13.09h14.13c2.87,0,4.89-.11,6.05-.32,1.16-.21,2.2-.65,3.14-1.3,.93-.65,1.74-1.58,2.43-2.77h1.48Z"/><path class="cls-1" d="M342.36,27.99c-4.28-3.51-7.05-6.33-8.28-8.46-1.24-2.13-1.86-4.34-1.86-6.63,0-3.51,1.36-6.54,4.07-9.08,2.71-2.54,6.32-3.81,10.82-3.81s7.88,1.19,10.54,3.55c2.66,2.37,3.99,5.07,3.99,8.1,0,2.02-.72,4.09-2.16,6.19-1.44,2.1-4.43,4.58-8.98,7.43,4.69,3.62,7.79,6.47,9.3,8.54,2.02,2.71,3.03,5.58,3.03,8.58,0,3.81-1.45,7.06-4.35,9.76-2.9,2.7-6.71,4.05-11.42,4.05-5.13,0-9.14-1.61-12.02-4.83-2.29-2.58-3.43-5.4-3.43-8.46,0-2.4,.8-4.77,2.41-7.13,1.61-2.35,4.39-4.96,8.32-7.8Zm1.88,1.52c-2.21,1.86-3.85,3.89-4.91,6.09-1.06,2.19-1.6,4.57-1.6,7.13,0,3.43,.94,6.18,2.82,8.24,1.87,2.06,4.26,3.09,7.16,3.09s5.18-.81,6.91-2.43c1.73-1.62,2.59-3.59,2.59-5.91,0-1.92-.51-3.63-1.52-5.15-1.89-2.82-5.71-6.51-11.45-11.06Zm4.39-5.79c3.19-2.87,5.22-5.14,6.07-6.81,.85-1.66,1.28-3.55,1.28-5.65,0-2.79-.78-4.98-2.36-6.57-1.57-1.58-3.71-2.38-6.43-2.38s-4.92,.79-6.62,2.36c-1.71,1.57-2.55,3.41-2.55,5.51,0,1.38,.35,2.77,1.06,4.15,.7,1.38,1.71,2.7,3.01,3.95l6.55,5.43Z"/><path class="cls-1" d="M402.59,44.83l-3.79,10.42h-31.94v-1.48c9.39-8.57,16.01-15.57,19.84-21,3.83-5.43,5.75-10.39,5.75-14.89,0-3.43-1.05-6.25-3.15-8.46-2.1-2.21-4.62-3.31-7.55-3.31-2.66,0-5.05,.78-7.16,2.33-2.12,1.56-3.68,3.84-4.69,6.85h-1.48c.67-4.92,2.38-8.7,5.13-11.34,2.75-2.63,6.19-3.95,10.32-3.95,4.39,0,8.05,1.41,11,4.23,2.94,2.82,4.41,6.15,4.41,9.98,0,2.74-.64,5.48-1.92,8.22-1.97,4.31-5.16,8.88-9.58,13.69-6.62,7.24-10.77,11.6-12.42,13.09h14.13c2.87,0,4.89-.11,6.05-.32,1.16-.21,2.2-.65,3.13-1.3,.93-.65,1.74-1.58,2.44-2.77h1.48Z"/><path class="cls-1" d="M407.99,33.89h20.64v6.03h-20.64v-6.03Z"/><path class="cls-1" d="M436.41,28.5c0-6.17,.93-11.49,2.8-15.95,1.86-4.46,4.33-7.78,7.42-9.96,2.4-1.73,4.87-2.6,7.43-2.6,4.15,0,7.88,2.12,11.18,6.35,4.12,5.24,6.18,12.35,6.18,21.32,0,6.28-.9,11.62-2.71,16.01-1.81,4.39-4.12,7.58-6.93,9.56-2.81,1.98-5.51,2.97-8.12,2.97-5.16,0-9.46-3.05-12.9-9.14-2.9-5.14-4.35-11.32-4.35-18.56Zm7.82,1c0,7.45,.92,13.53,2.75,18.24,1.52,3.97,3.78,5.95,6.79,5.95,1.44,0,2.93-.65,4.47-1.94,1.54-1.29,2.71-3.45,3.51-6.49,1.22-4.58,1.83-11.03,1.83-19.36,0-6.18-.64-11.32-1.92-15.45-.96-3.06-2.19-5.23-3.71-6.51-1.09-.88-2.41-1.32-3.95-1.32-1.81,0-3.42,.81-4.83,2.44-1.92,2.21-3.22,5.68-3.91,10.42-.69,4.74-1.04,9.41-1.04,14.01Z"/><path class="cls-1" d="M477.74,28.5c0-6.17,.93-11.49,2.79-15.95,1.86-4.46,4.34-7.78,7.43-9.96,2.4-1.73,4.87-2.6,7.42-2.6,4.15,0,7.88,2.12,11.18,6.35,4.12,5.24,6.19,12.35,6.19,21.32,0,6.28-.91,11.62-2.71,16.01-1.81,4.39-4.12,7.58-6.92,9.56-2.81,1.98-5.52,2.97-8.12,2.97-5.16,0-9.46-3.05-12.9-9.14-2.9-5.14-4.35-11.32-4.35-18.56Zm7.82,1c0,7.45,.92,13.53,2.75,18.24,1.52,3.97,3.78,5.95,6.78,5.95,1.44,0,2.93-.65,4.47-1.94,1.55-1.29,2.71-3.45,3.51-6.49,1.23-4.58,1.84-11.03,1.84-19.36,0-6.18-.64-11.32-1.92-15.45-.96-3.06-2.2-5.23-3.71-6.51-1.09-.88-2.41-1.32-3.95-1.32-1.81,0-3.42,.81-4.83,2.44-1.92,2.21-3.22,5.68-3.91,10.42-.69,4.74-1.04,9.41-1.04,14.01Z"/><path class="cls-1" d="M530.18,27.99c-4.28-3.51-7.05-6.33-8.28-8.46-1.24-2.13-1.86-4.34-1.86-6.63,0-3.51,1.36-6.54,4.07-9.08,2.71-2.54,6.32-3.81,10.82-3.81s7.88,1.19,10.54,3.55c2.66,2.37,3.99,5.07,3.99,8.1,0,2.02-.72,4.09-2.16,6.19-1.44,2.1-4.43,4.58-8.98,7.43,4.69,3.62,7.79,6.47,9.3,8.54,2.02,2.71,3.03,5.58,3.03,8.58,0,3.81-1.45,7.06-4.35,9.76-2.9,2.7-6.71,4.05-11.42,4.05-5.13,0-9.14-1.61-12.02-4.83-2.29-2.58-3.43-5.4-3.43-8.46,0-2.4,.8-4.77,2.41-7.13,1.61-2.35,4.39-4.96,8.32-7.8Zm1.88,1.52c-2.21,1.86-3.85,3.89-4.91,6.09-1.06,2.19-1.6,4.57-1.6,7.13,0,3.43,.94,6.18,2.82,8.24,1.87,2.06,4.26,3.09,7.16,3.09s5.18-.81,6.91-2.43c1.73-1.62,2.59-3.59,2.59-5.91,0-1.92-.51-3.63-1.52-5.15-1.89-2.82-5.71-6.51-11.45-11.06Zm4.39-5.79c3.19-2.87,5.22-5.14,6.07-6.81,.85-1.66,1.28-3.55,1.28-5.65,0-2.79-.78-4.98-2.36-6.57-1.57-1.58-3.71-2.38-6.43-2.38s-4.92,.79-6.62,2.36c-1.71,1.57-2.56,3.41-2.56,5.51,0,1.38,.35,2.77,1.06,4.15,.7,1.38,1.71,2.7,3.01,3.95l6.55,5.43Z"/><path class="cls-1" d="M558.91,6.43l13.17-6.43h1.32V45.71c0,3.03,.13,4.92,.38,5.67,.25,.74,.78,1.32,1.58,1.72,.8,.4,2.42,.63,4.87,.68v1.48h-20.36v-1.48c2.56-.05,4.2-.27,4.95-.66,.74-.39,1.26-.9,1.55-1.56,.3-.65,.44-2.6,.44-5.85V16.49c0-3.94-.13-6.47-.4-7.59-.19-.85-.53-1.48-1.02-1.88-.49-.4-1.08-.6-1.78-.6-.99,0-2.36,.41-4.11,1.24l-.6-1.24Z"/></g><rect class="cls-1" y="9.67" width="206.6" height="43.32"/><g><path class="cls-2" d="M41.9,43.59s3.09,2.33,5,3.97c-.11,.42-.53,.61-1.11,.61H11.35l-.31-1.11h5.5V27.13l6.22,.53c-.08,.54-.38,.92-1.41,1.11v18.29h5.8V19.34H13.3l-.31-1.11h24.78l2.71-3.44s3.02,2.33,4.89,3.93c-.11,.42-.5,.61-1.07,.61h-12.26v12.33h4.54l2.63-3.4s2.98,2.29,4.74,3.86c-.11,.38-.53,.57-1.07,.57h-10.84v14.36h7.1l2.75-3.48Z"/><path class="cls-2" d="M81.64,24.61s2.75,2.25,4.35,3.82c-.08,.42-.5,.61-1.03,.61h-3.29v19.97c0,.27-1.34,1.18-3.63,1.18h-.76V29.04h-3.66v1.37c0,6.84-.65,14.78-9.17,19.78l-.42-.42c4.73-5.5,5.27-12.49,5.27-19.44v-1.07c-.19,.19-.5,.27-.84,.27h-7.26v4.54h1.79l1.99-2.71s2.21,1.87,3.51,3.17c-.11,.42-.46,.61-.99,.61h-6.3v14.05c0,.23-1.3,.95-3.51,.95h-.76v-11.07h-.11c-1.41,2.71-3.63,6.15-6.57,8.44l-.38-.42c1.79-3.05,2.94-7.71,3.4-10.77l3.67,1.6v-2.79h-6.19l-.3-1.07h6.49v-4.54h-6.91l-.31-1.11h10.23c.69-2.18,1.38-5.04,1.72-7.18h-8.1c7.79,3.47,3.82,9.28,.96,6.34,.04-2.1-.8-4.55-1.57-6.26l.23-.08h-2.6l-.3-1.11h8.02c-.31-.11-.61-.31-.92-.53-.11-1.8-1.11-3.82-2.02-5.12l.3-.19c6.91,.99,6.57,4.92,4.47,5.84h2.44l1.95-2.71s2.29,1.87,3.67,3.21c-.11,.42-.5,.61-1.03,.61h-4.85l4.58,1.41c-.15,.46-.61,.76-1.41,.69-1.11,1.49-2.75,3.44-4.47,5.08h2.63l2.1-2.83s2.14,1.8,3.55,3.13v-11.23l4.47,1.41c2.6-1.38,5.31-3.21,6.8-4.55l4.7,3.74c-.42,.38-1.18,.46-2.33,.12-2.33,.76-5.88,1.53-9.32,1.98v7.71h5.58l2.44-3.32Zm-19.9,12.22c8.52,3.59,4.74,10.2,1.64,7.22,.04-2.41-.96-5.16-2.02-7.03l.38-.19Z"/><path class="cls-2" d="M122.76,31.37c-.27,.38-.69,.54-1.6,.61-1.3,3.74-3.13,7.03-5.73,9.81,2.64,1.91,5.73,3.28,9.05,4.28l-.08,.42c-1.87,.34-3.29,1.64-4.01,3.78-3.09-1.6-5.65-3.51-7.71-6-3.32,2.6-7.6,4.55-13.14,5.81l-.23-.5c4.85-1.83,8.67-4.47,11.57-7.79-1.72-2.83-2.98-6.3-3.78-10.62h-1.64c-.34,6.3-2.21,14.09-10.69,19.02l-.34-.38c3.82-4.09,5.54-8.82,6.3-13.56-2.25,1.83-5.58,4.32-10.16,7.3-.08,.5-.46,.92-.88,1.11l-2.44-5c1.03-.27,2.71-.76,4.77-1.37v-11.95h-3.78l-.31-1.11h4.09V15.18l5.81,.5c-.11,.53-.38,.92-1.41,1.07v8.48h.34l1.91-3.17s1.45,1.49,2.6,2.83v-5.73l4.97,2.22h3.55v-6.57l5.73,.5c-.04,.53-.34,.92-1.37,1.11v4.97h3.78l2.33-2.33,4.09,3.86c-.3,.31-.69,.38-1.53,.42-1.53,1.37-4.2,3.32-6.15,4.35l-.34-.27c.57-1.3,1.3-3.36,1.76-4.93h-3.93v7.6h2.18l2.44-2.37,4.01,3.66Zm-26.35,5.5c1.45-.46,2.94-.95,4.43-1.45,.34-2.44,.42-4.85,.42-7.14v-1.99c-.08,.04-.19,.04-.27,.04h-4.58v10.54Zm9.13-8.59c0,.57,0,1.18-.04,1.79h4.28v-7.6h-4.24v5.81Zm2.29,2.9c1.03,3.4,2.71,6.11,4.85,8.25,1.68-2.44,2.94-5.23,3.78-8.25h-8.63Z"/><path class="cls-2" d="M161.69,18.01c-.27,.34-.8,.65-1.57,.84v29.79c-.08,.34-1.99,1.37-3.59,1.37h-.65v-2.75h-23.83v1.41c0,.54-1.68,1.57-3.44,1.57h-.69V15.14l4.47,1.87h23.1l2.06-2.29,4.12,3.28Zm-5.81,28.14V18.12h-23.83v28.03h23.83Zm-11.84-9.09c-1.72,1.11-4.39,2.71-8.13,4.7-.19,.46-.54,.8-.96,.92l-2.18-4.39c2.02-.19,6.61-.88,11.19-1.68l.08,.46Zm11.3-8.82c-.19,.46-.69,.73-1.57,.61-1.11,3.06-2.48,5.61-4.12,7.79,.57,1.11,1.22,2.14,2.06,2.98,.42,.5,.61,.46,.92-.11,.46-.8,1.11-2.44,1.57-3.78l.42,.08-.61,5.23c1.03,1.72,1.22,2.63,.69,3.21-1.34,1.37-3.82,.11-5.04-1.18-.99-1.07-1.83-2.25-2.56-3.55-2.48,2.4-5.42,4.12-8.75,5.42l-.34-.46c2.94-1.83,5.65-4.35,7.87-7.56-.99-2.56-1.6-5.38-1.99-8.4-.15,.19-.57,.42-1.07,.5v5.65c-.04,.27-1.53,1.03-2.63,1.03h-.5v-1.18h-2.33v.92c0,.23-1.37,.95-2.6,.95h-.46v-10.04l3.21,1.34h1.91l1.45-1.49,3.02,2.25c-.15-1.15-.23-2.33-.31-3.51h-10.35l-.31-1.11h10.58c-.08-1.64-.11-3.36-.15-5.08l5.08,.88c-.11,.46-.46,.88-1.34,.95,0,1.07,0,2.18,.04,3.25h3.02l.84-1.11-.15-.08c-.38-1.3-1.45-2.79-2.37-3.63l.34-.27c5.08,.23,5.5,2.75,4.35,3.82,.65,.54,1.45,1.18,2.02,1.76-.11,.42-.5,.61-1.03,.61h-6.95c.11,2.75,.42,5.46,1.03,7.87,.96-2.03,1.76-4.2,2.29-6.57l4.81,2.02Zm-15.66,5.19v-4.7h-2.33v4.7h2.33Z"/><path class="cls-2" d="M177.49,25.6c-.15,.46-.5,.73-1.49,.73-2.06,5.42-5.69,12.45-11.61,16.95l-.38-.34c3.78-5.54,6.18-13.9,7.1-19.55l6.38,2.21Zm8.52-10.08c-.11,.57-.46,.92-1.41,1.07v27.99c0,3.21-.8,5.08-6.53,5.61-.15-1.57-.42-2.63-1.22-3.32-.76-.77-1.79-1.3-4.16-1.68v-.54s5.19,.31,6.22,.31c.73,0,.96-.23,.96-.76V14.91l6.15,.61Zm8.71,25.4c-.61-5.5-3.67-11.84-6.72-16.54l.5-.23c15.54,8.9,11.65,21.58,6.23,16.77Z"/></g></g></g></svg>