<?xml version="1.0" encoding="UTF-8"?><svg id="_圖層_2" xmlns="http://www.w3.org/2000/svg" viewBox="0 0 461.27 150.43"><defs><style>.cls-1{fill:#f9d3e3;}</style></defs><g id="_主視覺"><g><path class="cls-1" d="M33.01,66.33c0,26.66-1.59,61.09-31.42,84.1l-1.59-1.27c13.49-24.44,14.28-55.06,14.28-82.83V18.09l21.58,7.77h43.8c-.63-.32-1.11-.64-1.74-.95-1.75-8.41-7.93-17.77-13.49-23.48l1.27-.95c32.85,1.59,33.64,20.15,24.6,25.39h33.48l9.84-13.33s10.95,9.04,17.45,15.23c-.32,1.74-2.06,2.54-4.28,2.54H33.01v36.02Zm51.41,15.71c-1.11,1.43-2.54,1.9-5.87,2.38-2.85,13.65-7.46,26.34-15.39,36.97,11.27,5.71,26.02,7.14,46.18,7.14,9.68,0,31.9,0,42.53-.32v1.9c-6.03,1.43-9.04,7.77-9.04,14.92h-34.28c-24.12,0-40.94-3.33-52.68-15.39-8.25,8.25-19.36,15.07-34.28,19.99l-.95-2.06c13.17-6.82,22.37-15.87,28.88-26.34-4.13-6.82-7.46-15.39-10.16-26.18l1.59-.95c3.33,8.57,7.46,15.23,12.22,20.15,4.6-9.68,7.46-20.31,9.04-32.05h-7.62l-5.4,5.4-14.44-9.68c1.43-1.11,3.65-2.38,5.87-3.17,4.29-7.62,9.68-19.04,13.17-26.98h-16.19l-1.43-4.44h17.46l7.77-7.78,15.39,13.81c-1.43,1.59-4.13,2.38-7.46,2.54-3.33,7.14-9.2,18.09-13.33,25.87h5.08l8.41-8.41,14.92,12.7Zm17.77,29.83v-31.1h-16.82l-1.11-4.44h17.93v-24.28c-7.94,.95-16.03,1.59-23.65,1.9l-.48-2.38c17.77-4.44,39.67-13.17,50.78-19.84l15.87,14.6c-1.59,1.43-4.92,1.59-9.04-.16-4.76,1.27-10.63,2.38-16.82,3.49v26.66h3.17l8.25-11.9s9.36,8.25,14.76,13.81c-.32,1.74-2.06,2.54-4.28,2.54h-21.9v31.1h7.78l8.57-11.59s9.52,7.94,15.39,13.49c-.48,1.74-2.06,2.54-4.28,2.54H79.5l-1.27-4.44h23.96Z"/><path class="cls-1" d="M224.86,30.78c4.92,28.72-28.72,19.68-14.12,1.75,3.97-2.22,6.82-6.98,7.78-13.49-1.27,1.43-3.33,1.9-6.98,1.9-5.24,10-14.6,26.98-22.06,36.97,15.71,10.79,22.37,25.87,22.53,39.04,0,15.71-5.55,24.28-22.53,24.76,0-4.76-.48-10.95-1.74-13.33-1.11-1.59-3.33-2.7-6.51-3.65v39.51c0,1.11-5.24,5.39-13.81,5.39h-3.02V4.92l18.88,7.3h9.36l9.04-8.73,16.82,15.55,.16-1.59h2.06c1.43,3.17,2.38,6.19,3.17,8.89h29.67c-1.59-.48-3.33-1.59-5.08-3.01,.16-7.78-3.17-16.5-7.14-21.9l1.27-.95c29.99,4.92,26.98,22.69,17.14,25.87h25.87l8.41-8.41,15.07,14.28c-1.27,1.11-2.85,1.43-6.03,1.59-4.44,3.65-12.22,8.57-17.46,11.74,3.02,2.7,6.51,5.71,9.21,8.25-.32,1.74-2.06,2.54-4.29,2.54h-71.25l-1.27-4.44h51.1l9.2-12.22,4.92,3.97c1.11-3.49,2.22-8.73,3.17-12.85h-61.57Zm-35.23,71.88c1.43,0,2.38-.16,3.33-.79,2.06-1.43,3.17-4.28,3.17-9.36,0-11.43-2.85-23.49-10.47-34.12,2.7-10.47,6.35-29.2,8.25-41.73h-12.69V102.67h8.41Zm113.62,25.07c4.13,2.06,5.08,4.28,5.08,7.62,0,6.82-5.71,10.63-23.64,10.63h-9.68c-13.17,0-15.07-3.65-15.07-15.07v-49.99h-12.22c-2.06,26.34-8.73,50.94-51.41,67.6l-1.59-2.06c30.78-19.83,33.01-42.53,33.64-65.54h-15.71l-1.27-4.6h69.03l9.36-12.85s10.95,8.73,17.45,14.92c-.47,1.74-2.22,2.54-4.44,2.54h-25.39v45.38c0,1.9,.32,2.54,3.01,2.54h11.59c1.27,0,2.06-.32,3.01-1.75,1.27-2.22,3.65-9.68,6.03-17.45h1.75l.48,18.09Z"/><path class="cls-1" d="M461.27,83.15c-1.27,1.43-2.7,1.59-5.87,1.9-5.55,4.76-14.92,11.43-21.74,15.23l-1.59-1.11c1.59-4.76,3.65-11.9,4.92-17.61h-64.43l18.57,4.28c-.63,1.9-2.7,2.86-7.77,3.02-1.9,2.06-4.13,4.12-6.51,6.19h29.2l9.36-9.04,17.77,14.44c-1.27,1.43-3.65,2.06-7.62,2.22-20.95,26.98-51.73,41.73-104.57,46.81l-.95-2.22c22.06-5.4,40.78-12.22,55.86-21.58-2.22,.64-4.76,.48-7.62-.95-2.06-5.39-6.98-10.95-11.9-15.07-10.16,5.71-21.58,10.63-33.8,13.81l-1.11-1.59c18.73-10.16,35.23-26.98,43.16-40.31h-30.78c1.27,10.32-2.22,17.77-7.14,20.95-5.08,3.17-12.7,1.9-14.6-4.12-1.74-5.71,1.43-10,6.35-12.38,4.76-3.01,10.31-10.32,9.52-17.93h2.22c1.27,3.17,2.22,6.19,2.85,9.05h102.99l9.2-9.36,16.03,15.39ZM312.9,15.39h48.4V0l20.31,1.9c-.32,1.74-1.43,3.01-4.76,3.65V29.36c0,1.11-6.98,3.49-12.69,3.49h-2.85v-13.01h-46.97l-1.43-4.44Zm116,12.54l16.98,12.69c-.95,1.11-3.01,2.38-6.03,3.02v21.9c-.16,1.27-8.73,4.92-14.6,4.92h-3.01v-5.55h-73.16v3.17c0,1.43-7.61,5.08-14.6,5.08h-2.38V29.36l18.09,7.14h70.45l8.25-8.57Zm-79.82,32.37h13.81v-19.2h-13.81v19.2Zm22.38,39.19c-2.85,2.22-5.87,4.28-9.04,6.35,19.04,1.59,21.74,12.22,17.45,17.3,9.84-6.51,18.09-14.28,24.6-23.64h-33Zm6.98-58.39v19.2h14.12v-19.2h-14.12Zm32.37-12.85c0,1.11-6.98,3.49-12.69,3.49h-2.86V0l20.31,1.9c-.32,1.59-1.27,3.01-4.76,3.49V15.39h24.76l9.04-12.54s10.63,8.57,16.5,14.44c-.48,1.74-1.9,2.54-4.12,2.54h-46.18v8.41Zm-2.54,12.85v19.2h13.97v-19.2h-13.97Z"/></g></g></svg>