<?xml version="1.0" encoding="UTF-8"?><svg id="_圖層_2" xmlns="http://www.w3.org/2000/svg" viewBox="0 0 579.12 45.95"><defs><style>.cls-1{fill:#f9d3e3;}.cls-2{fill:#fff;}</style></defs><g id="_主視覺"><g><path class="cls-1" d="M7.55,1.76H27.29l-3.14,8.02H7.55l-1.58,4.2c7.15,.27,12.65,2.05,16.5,5.35,3.17,2.71,4.76,6.09,4.76,10.13,0,2.59-.74,5.12-2.21,7.6-1.47,2.48-3.54,4.38-6.22,5.72-2.67,1.34-5.61,2.01-8.8,2.01-3.44,0-6.08-.64-7.93-1.93-1.28-.91-1.93-1.95-1.93-3.11,0-.89,.34-1.68,1.01-2.36,.67-.68,1.45-1.02,2.35-1.02,.81,0,1.63,.17,2.46,.5,.83,.33,2.25,1.2,4.26,2.61,1.26,.87,2.35,1.47,3.26,1.8,.64,.25,1.37,.37,2.18,.37,1.7,0,3.14-.62,4.34-1.87,1.19-1.24,1.79-2.73,1.79-4.48,0-3.65-1.82-6.61-5.47-8.89-3.65-2.28-8.25-3.42-13.8-3.42-.56,0-1.4,.01-2.52,.03L7.55,1.76Z"/><path class="cls-2" d="M52.8,16.59c1.61,8.5,6.94,16.95,19.8,22.15l-.09,.51c-2.8,.5-4.46,2.2-4.96,5.33-10.71-6.52-14.15-17.69-15.39-26.88-1.38,10.93-5.97,20.31-22.65,26.88l-.41-.69c12.77-7.72,16.36-16.82,17.37-27.29H29.87l-.37-1.33h17.05c.32-4.32,.28-8.92,.28-13.69l7.72,.73c-.14,.69-.55,1.15-1.65,1.33-.09,4-.14,7.9-.46,11.63h10.34l3.4-4.18s3.72,2.8,6.02,4.78c-.14,.51-.64,.74-1.33,.74h-18.06Z"/><path class="cls-2" d="M75.2,44.39l-.51-.37c4.73-7.49,5.19-17,5.19-25.5V4.64l5.01,1.75c8.59-1.1,18.88-3.22,24.54-4.96l5.01,5.1c-.55,.46-1.61,.46-3.03-.14-6.85,.78-17.23,1.19-26.19,1.06v3.22h22.33l2.48-2.71,5.24,3.95c-.28,.32-.87,.74-1.79,.92v5.97c-.05,.37-2.76,1.33-4.55,1.33h-.92v-1.7l-22.79,.04c0,8.18-.6,18.93-10.02,25.91Zm36.71-23.02s2.99,2.25,4.87,3.9c-.14,.51-.64,.74-1.29,.74h-16.54c-.18,1.56-.37,3.08-.74,4.55h8.55l2.71-2.53,4.82,3.95c-.32,.37-.87,.6-1.79,.73-.55,5.51-1.61,8.82-3.72,10.11-1.33,.87-3.12,1.29-5.51,1.29,0-1.42-.14-2.71-.87-3.44-.69-.74-2.2-1.33-4.04-1.7v-.6c1.75,.14,4.64,.32,5.51,.32,.74,0,1.1-.09,1.47-.27,.78-.6,1.38-2.9,1.75-6.52h-9.28c-1.65,4.87-5.51,9.33-15.39,12.54l-.41-.64c9.88-5.42,10.66-11.62,10.89-17.78h-6.62l-.37-1.33h13.65c-.23-.09-.51-.23-.74-.37-.37-1.75-1.61-3.68-2.57-4.78l.37-.28c8.04-.14,7.72,4.37,5.24,5.42h7.44l2.62-3.31Zm-26.69-9.42v5.19h22.79v-5.19h-22.79Z"/><path class="cls-2" d="M132.75,45.95h-1.84V0h1.84V45.95Z"/><path class="cls-2" d="M183.85,6.43s3.58,2.76,5.65,4.59c-.14,.51-.64,.73-1.24,.73h-41.63l-.37-1.29h24.58c1.24-2.71,2.62-6.39,3.35-9l7.58,1.88c-.18,.6-.73,.96-1.79,.96-1.84,1.75-4.87,4.23-7.67,6.16h8.41l3.12-4.04Zm-20.54,7.44l5.1,3.95c-.28,.37-.92,.78-1.89,.92v19.89c0,3.4-.69,5.33-5.97,5.74-.05-1.52-.23-2.66-.69-3.45-.46-.69-1.1-1.24-2.71-1.56v-.6s2.67,.18,3.49,.18c.64,0,.78-.32,.78-.83v-5.97h-6.29c-.46,4.55-2.11,9.19-7.63,12.54l-.41-.41c3.03-4.59,3.12-10.57,3.12-16.49V14.48l5.93,2.11h4.82l2.34-2.71Zm-1.88,16.95v-6.06h-6.11v3.03c0,1.01,0,2.02-.09,3.03h6.2Zm-6.11-12.91v5.51h6.11v-5.51h-6.11Zm.78-16.26c13.05,1.15,8.69,11.12,3.54,7.63-.46-2.66-2.2-5.51-3.9-7.3l.37-.32Zm19.3,33.04c0,.41-2.11,1.19-4,1.19h-.92V15.58l6.62,.6c-.09,.64-.41,1.1-1.7,1.29v17.23Zm4.23-20.54l6.76,.64c-.09,.64-.55,1.06-1.61,1.19v22.47c0,3.59-.83,5.56-6.84,6.07-.09-1.56-.37-2.71-1.1-3.54-.73-.73-1.79-1.29-4.18-1.7v-.6s5.06,.28,6.02,.28c.73,0,.96-.18,.96-.78V14.15Z"/><path class="cls-2" d="M211.31,10.11c1.43,8.32-8.32,5.7-4.09,.51,1.15-.64,1.97-2.02,2.25-3.91-.37,.41-.97,.55-2.02,.55-1.52,2.9-4.23,7.81-6.39,10.71,4.55,3.12,6.48,7.49,6.52,11.3,0,4.55-1.61,7.03-6.52,7.17,0-1.38-.14-3.17-.51-3.86-.32-.46-.96-.78-1.88-1.06v11.44c0,.32-1.52,1.56-4,1.56h-.87V2.62l5.47,2.11h2.71l2.62-2.53,4.87,4.5,.04-.46h.6c.41,.92,.69,1.79,.92,2.57h8.59c-.46-.14-.97-.46-1.47-.87,.04-2.25-.92-4.78-2.07-6.34l.37-.27c8.68,1.42,7.81,6.57,4.96,7.49h7.49l2.43-2.43,4.37,4.13c-.37,.32-.83,.41-1.75,.46-1.29,1.06-3.54,2.48-5.05,3.4,.87,.78,1.88,1.66,2.66,2.39-.09,.51-.6,.74-1.24,.74h-20.63l-.37-1.29h14.79l2.66-3.54,1.43,1.15c.32-1.01,.64-2.53,.92-3.72h-17.83Zm-10.2,20.81c.41,0,.69-.04,.96-.23,.6-.41,.92-1.24,.92-2.71,0-3.31-.83-6.8-3.03-9.88,.78-3.03,1.84-8.45,2.39-12.08h-3.68V30.92h2.44Zm32.9,7.26c1.19,.6,1.47,1.24,1.47,2.2,0,1.98-1.66,3.08-6.85,3.08h-2.8c-3.81,0-4.36-1.06-4.36-4.36v-14.47h-3.54c-.6,7.63-2.53,14.75-14.89,19.57l-.46-.6c8.91-5.74,9.56-12.31,9.74-18.98h-4.55l-.37-1.33h19.99l2.71-3.72s3.17,2.53,5.06,4.32c-.14,.51-.64,.74-1.29,.74h-7.35v13.14c0,.55,.09,.73,.87,.73h3.36c.37,0,.6-.09,.87-.5,.37-.64,1.06-2.8,1.74-5.06h.51l.14,5.24Z"/><path class="cls-2" d="M241.19,12.64c-.96,.87-1.97,1.61-2.99,2.3l-.6-.46c2.34-3.08,4.59-8.09,5.88-13.1l5.01,1.79c-.32-.5-.69-.96-1.06-1.33l.41-.32c9.7,1.01,5.65,8.18,1.93,5.28-.04-.96-.41-2.02-.87-2.94-.32,.28-.83,.46-1.52,.41-.55,1.15-1.2,2.2-1.88,3.26l.83,.27h7.26l2.16-2.53s2.34,1.79,3.86,3.12c-.09,.51-.55,.74-1.19,.74h-5.37v3.9h.6l1.89-2.39s1.47,1.24,2.76,2.39c1.88-3.03,3.59-7.35,4.46-11.67l5.79,1.84c-.19,.6-.78,.97-1.7,.92-.55,1.19-1.15,2.3-1.79,3.31l.87,.37h8.09l2.11-2.57s2.43,1.79,3.95,3.17c-.14,.51-.55,.74-1.2,.74h-5.88v3.9h.87l1.93-2.48s2.21,1.75,3.54,3.08c-.09,.5-.5,.73-1.15,.73h-5.19v4.14h.87l1.97-2.48s2.16,1.74,3.54,3.03c-.14,.5-.55,.73-1.2,.73h-5.19v4.14h1.66l2.25-2.85s2.57,1.98,4.09,3.4c-.09,.51-.55,.73-1.2,.73h-14.43v.41c0,.37-1.43,1.42-3.81,1.42h-.83V12.64c-.83,.78-1.7,1.42-2.57,2.02l-.37-.28h-4.73v4.14h.6l1.89-2.34s2.11,1.65,3.4,2.89c-.14,.5-.55,.73-1.15,.73h-4.73v4.14h1.15l2.11-2.71s2.48,1.84,3.95,3.26c-.09,.51-.55,.73-1.2,.73h-13.32v.64c0,.32-1.42,1.38-3.72,1.38h-.83V12.64Zm34.28,17.32c-.32,.46-.87,.6-2.11,.64-2.25,2.53-4.92,4.69-8.04,6.48,5.05,1.1,10.61,1.61,16.08,1.74v.6c-2.34,.69-3.68,2.48-4.18,5.15-6.52-.87-12.5-2.3-17.51-4.73-6.16,2.53-13.42,4.04-21.32,4.64l-.23-.6c6.48-1.38,12.68-3.4,17.96-6.07-3.26-2.16-6.02-4.87-8.04-8.32h-7.9l-.41-1.33h27.71l3.35-2.8,4.64,4.6Zm-29.73-20.81v3.9h3.03v-3.9h-3.03Zm3.03,5.24h-3.03v4.14h3.03v-4.14Zm0,5.42h-3.03v4.14h3.03v-4.14Zm.46,9.7c2.62,2.71,6.34,4.73,10.66,6.16,2.89-1.84,5.33-3.86,7.21-6.16h-17.87Zm16.13-20.35v3.9h3.26v-3.9h-3.26Zm3.26,5.24h-3.26v4.14h3.26v-4.14Zm0,5.42h-3.26v4.14h3.26v-4.14Zm-.78-18.38c9.74,1.01,5.7,8.18,1.97,5.24-.09-1.79-1.19-3.81-2.34-4.96l.37-.27Z"/><path class="cls-2" d="M320.69,30.83s3.54,2.66,5.79,4.5c-.14,.51-.65,.74-1.33,.74h-17.55v6.85c0,.51-2.39,1.61-4.5,1.61h-1.1v-8.45h-18.06l-.37-1.29h18.43v-5.51h-7.54v1.42c0,.55-2.39,1.75-4.59,1.75h-.83V11.21l5.79,2.25h7.17v-4.64h-16.63l-.37-1.33h17V1.43l7.26,.69c-.09,.64-.41,1.15-1.66,1.33V7.49h8.59l3.17-3.86s3.58,2.62,5.79,4.46c-.14,.51-.65,.73-1.34,.73h-16.22v4.64h7.26l2.57-2.76,5.23,4.04c-.32,.37-.92,.74-1.83,.92v13.92c-.05,.37-2.71,1.52-4.6,1.52h-.92v-1.84h-7.72v5.51h9.88l3.22-3.95Zm-26.23-16.03v5.79h7.54v-5.79h-7.54Zm7.54,13.19v-6.06h-7.54v6.06h7.54Zm5.6-13.19v5.79h7.72v-5.79h-7.72Zm7.72,13.19v-6.06h-7.72v6.06h7.72Z"/><path class="cls-2" d="M339.76,15.07c-.14,.41-.55,.74-1.42,.87v26.97c-.09,.41-2.3,1.61-4.41,1.61h-1.01V20.36c-1.79,2.02-3.72,3.77-5.74,5.33l-.51-.37c3.77-5.74,7.72-14.93,9.69-23.94l7.67,2.39c-.23,.6-.83,.97-1.84,.97-1.33,3.44-2.94,6.66-4.73,9.51l2.3,.83Zm25.46,21.04s3.54,2.85,5.65,4.78c-.14,.5-.6,.73-1.29,.73h-30.05l-.37-1.33h16.03c1.79-7.4,3.49-17.51,4.23-24.63l7.67,1.84c-.18,.64-.69,1.06-1.79,1.1-1.84,5.93-5.33,14.75-9.23,21.69h6.02l3.13-4.18Zm-24.9-23.57h21.23l3.03-3.95s3.4,2.66,5.42,4.5c-.14,.5-.6,.73-1.24,.73h-28.07l-.37-1.29Zm3.72,3.9c14.66,14.1,6.57,25.91,2.99,19.94,0-5.06-.6-13.46-3.58-19.62l.6-.32Zm5.33-14.93c13.55,3.22,8.36,13.42,3.22,9.23-.23-3.17-1.89-6.62-3.59-8.96l.37-.28Z"/><path class="cls-2" d="M386.09,45.95h-1.84V0h1.84V45.95Z"/><path class="cls-2" d="M416.85,4s2.99,2.48,4.69,4.23c-.14,.5-.6,.73-1.24,.73h-7.44l.5,4.04c-.78,1.01-2.75,1.42-5.15,1.38l-.64-5.42h-7.72l-.37-1.33h7.95l-.69-6.02,6.75,.46c-.05,.55-.41,1.06-1.33,1.29l.5,4.27h1.61l2.57-3.63Zm-16.91,27.38c4.27-3.67,9.09-10.11,11.95-17l7.03,3.03c-.23,.55-.87,.92-1.89,.78-1.29,1.84-2.66,3.45-4.09,4.92l2.02,.78c-.14,.41-.55,.74-1.42,.87v18.38c-.05,.37-2.26,1.33-4.28,1.33h-.96V27.25c-2.57,1.93-5.29,3.4-7.95,4.59l-.41-.46Zm40.38,6.25c1.47,.6,1.89,1.19,1.89,2.2,0,2.34-2.16,3.31-9.97,3.31h-4.73c-4.78,0-6.02-1.01-6.02-4.82V15.12l6.85,.64c-.05,.6-.46,1.06-1.56,1.2v8.41h6.29l2.8-3.9s3.17,2.66,5.05,4.5c-.14,.5-.64,.73-1.33,.73h-12.82v10.2c0,.87,.37,1.2,1.93,1.2h4.09c1.52,0,2.8,0,3.49-.09,.51-.05,.87-.19,1.2-.64,.55-.83,1.33-3.26,2.16-6.16h.51l.18,6.43Zm-1.84-33.63s3.03,2.48,4.73,4.23c-.09,.5-.55,.73-1.19,.73h-9.51l-.69,4.41c-.97,.74-3.03,1.06-5.29,.6l.78-5.01h-4.32l-.37-1.33h4.87l.92-6.02,6.61,1.29c-.14,.55-.55,1.01-1.79,1.1l-.55,3.63h3.26l2.53-3.63Z"/><path class="cls-2" d="M487.77,5.97c-.32,.41-.97,.78-1.89,1.01V42.5c-.05,.41-2.57,1.74-4.6,1.74h-.83v-3.49h-27.47v1.75c0,.69-2.11,2.02-4.41,2.02h-.92V2.39l5.79,2.39h26.56l2.62-2.94,5.15,4.14Zm-7.31,33.5V6.07h-27.47V39.47h7.49l-2.34-3.54c1.42-.92,1.65-1.29,1.65-2.02v-2.16c-1.93,.83-4,1.52-6.15,2.11l-.37-.78c3.68-1.61,6.98-3.9,9.19-6.39h-1.43v.18c0,.37-2.02,1.24-3.77,1.24h-.65v-10.15l4.6,1.84h10.89l2.02-2.07,4.23,3.12c-.23,.28-.69,.55-1.33,.69v4.92c0,.09-.18,.19-.41,.32l2.99,2.66c-.28,.37-.69,.46-1.47,.14-.96,.41-2.39,.92-3.81,1.38,7.44,3.77,4.96,8.55,1.93,6.89-1.33-2.16-5.06-5.84-9.83-8.78l.32-.64c2.3,.51,4.23,1.1,5.83,1.75,.83-.92,1.74-1.98,2.53-2.85-.64,.14-1.29,.27-1.84,.27h-.78v-.92h-4.69c-1.06,1.06-2.3,1.98-3.68,2.85v2.48h-.04v2.3c1.74-.5,3.77-1.06,5.74-1.65l.14,.6c-1.66,1.1-5.1,3.4-8.64,5.61-.18,.27-.41,.46-.6,.6h19.76Zm-4.46-26.65s2.66,2.02,4.27,3.45c-.14,.5-.6,.73-1.24,.73h-25.09l-.37-1.29h10.66v-3.36h-8.27l-.37-1.29h8.64V7.03l6.11,.55c-.05,.55-.37,.92-1.29,1.06v2.44h3.13l2.25-2.67s2.57,1.84,4.13,3.22c-.09,.5-.55,.73-1.19,.73h-8.32v3.36h4.6l2.34-2.9Zm-3.54,8.32h-11.44v4.27h11.44v-4.27Z"/><path class="cls-2" d="M510.96,21.78l4.64,3.81c-.32,.41-.87,.69-1.84,.83-.41,10.06-1.33,14.47-3.58,16.17-1.38,1.1-3.12,1.61-5.37,1.61,0-1.47-.14-2.71-.74-3.4-.6-.69-1.74-1.24-3.35-1.61l.05-.64c1.38,.14,3.63,.27,4.5,.27,.69,0,1.06-.09,1.43-.41,1.06-.87,1.7-5.05,2.07-12.82h-7.17c-1.01,7.12-3.31,14.47-10.8,18.98l-.51-.6c5.7-6.11,6.48-15.99,6.66-24.58-.64,.28-1.47,.46-2.48,.46h-.87V2.44l5.46,2.11h8.5l2.39-2.62,5.01,3.81c-.28,.32-.92,.78-1.84,.92v11.21c-.04,.37-2.62,1.24-4.27,1.24h-.83v-1.89h-9.56v.97c0,.18-.28,.5-.83,.83l6.02,.55c-.09,.64-.51,1.1-1.56,1.24-.09,1.15-.23,2.3-.37,3.49h6.57l2.66-2.53Zm-12.5-15.94V15.95h9.56V5.84h-9.56Zm23.39,26.69c0,.41-2.16,1.38-4.09,1.38h-.92V5.29l6.71,.6c-.14,.64-.51,1.15-1.7,1.33v25.32Zm11.16-29.73c-.09,.69-.55,1.1-1.7,1.29V37.91c0,3.77-.83,5.88-7.08,6.48-.18-1.79-.41-3.03-1.15-3.86-.78-.83-1.88-1.42-4.32-1.84v-.64s5.1,.32,6.16,.32c.78,0,1.01-.23,1.01-.83V2.11l7.07,.69Z"/><path class="cls-2" d="M573.6,38.14s3.22,2.53,5.19,4.27c-.14,.5-.64,.73-1.29,.73h-41.44l-.37-1.33h18.75v-6.07h-13.23l-.37-1.29h13.6v-4.5l7.08,.6c-.09,.6-.41,1.06-1.66,1.24v2.67h6.8l2.8-3.58s3.17,2.43,5.05,4.13c-.09,.5-.6,.73-1.24,.73h-13.42v6.07h10.84l2.89-3.68Zm-37.35-11.58c1.93-.09,5.1-.28,8.91-.55v-3.31h-7.49l-.37-1.33h7.86v-4h-2.71v1.15c0,.27-1.38,1.33-3.68,1.33h-.78V2.57l5.05,1.97h9.1l2.25-2.34,4.6,3.45c-.23,.32-.92,.73-1.74,.87v10.98c-.05,.23-1.15,.83-2.34,1.15,.78,.6,2.76,2.11,4.04,3.31-.09,.51-.55,.74-1.2,.74h-7.81v2.94c2.76-.23,5.74-.46,8.73-.74l.09,.69c-4.09,1.38-9.92,3.13-18.66,5.42-.27,.6-.78,.97-1.24,1.06l-2.62-5.51Zm6.2-20.72v4.41h2.71V5.84h-2.71Zm2.71,10.25v-4.5h-2.71v4.5h2.71Zm4.78-10.25v4.41h2.66V5.84h-2.66Zm2.66,5.74h-2.66v4.5h2.66v-4.5Zm-2.66,9.79h2.16l2.07-2.57c-.27,.05-.55,.09-.78,.09h-.78v-1.52h-2.66v4Zm9.14-15.53l-.42-1.29h12.04l2.66-2.57,4.5,4.27c-.41,.37-.92,.51-1.88,.55-1.7,1.01-4.5,2.34-6.89,3.31,1.43,1.38,1.43,3.08,.64,4.04h2.3l2.53-2.57,4.55,4.27c-.37,.37-.87,.51-1.79,.55-1.61,1.66-4.32,3.95-6.39,5.29l-.46-.28c.55-1.61,1.29-4.09,1.74-5.97h-2.98v10.06c0,3.31-.74,5.33-6.11,5.79-.05-1.43-.19-2.57-.74-3.22-.55-.69-1.38-1.19-3.35-1.52v-.64s3.68,.23,4.46,.23c.64,0,.83-.23,.83-.73V15.44h-6.02l-.41-1.29h8.36c-.97-2.2-3.22-4.59-5.06-5.93l.37-.37c2.85,.05,4.87,.6,6.25,1.33,.87-1.06,1.84-2.3,2.57-3.35h-11.3Z"/></g></g></svg>