<?xml version="1.0" encoding="UTF-8"?><svg id="_圖層_2" xmlns="http://www.w3.org/2000/svg" xmlns:xlink="http://www.w3.org/1999/xlink" viewBox="0 0 30 30"><defs><style>.cls-1{fill:none;}.cls-2{fill:#fff;}.cls-3{filter:url(#drop-shadow-1);}</style><filter id="drop-shadow-1" filterUnits="userSpaceOnUse"><feOffset dx="0" dy="0"/><feGaussianBlur result="blur" stdDeviation="5"/><feFlood flood-color="#000" flood-opacity=".5"/><feComposite in2="blur" operator="in"/><feComposite in="SourceGraphic"/></filter></defs><g id="_右側按鈕"><g><g class="cls-3"><path class="cls-2" d="M15,9.59c-1.39,0-2.52,1.13-2.52,2.52s1.13,2.52,2.52,2.52,2.52-1.13,2.52-2.52-1.13-2.52-2.52-2.52Z"/><path class="cls-2" d="M15,4.07c-4.66,0-8.44,3.78-8.44,8.44,0,3.98,6.14,11.17,7.95,13.2,.26,.3,.73,.3,.99,0,1.81-2.03,7.95-9.23,7.95-13.2,0-4.66-3.78-8.44-8.44-8.44Zm0,12.21c-2.3,0-4.17-1.87-4.17-4.17s1.87-4.17,4.17-4.17,4.17,1.87,4.17,4.17-1.87,4.17-4.17,4.17Z"/></g><rect class="cls-1" width="30" height="30"/></g></g></svg>