<?xml version="1.0" encoding="UTF-8"?><svg id="_圖層_2" xmlns="http://www.w3.org/2000/svg" xmlns:xlink="http://www.w3.org/1999/xlink" viewBox="0 0 30 30"><defs><style>.cls-1{fill:none;}.cls-2{fill:#fff;filter:url(#drop-shadow-1);}</style><filter id="drop-shadow-1" filterUnits="userSpaceOnUse"><feOffset dx="0" dy="0"/><feGaussianBlur result="blur" stdDeviation="5"/><feFlood flood-color="#000" flood-opacity=".5"/><feComposite in2="blur" operator="in"/><feComposite in="SourceGraphic"/></filter></defs><g id="_右側按鈕"><g><path class="cls-2" d="M24.17,13.44l-3.15-3.14V5.93c0-.15-.12-.27-.27-.27h-1.94c-.15,0-.27,.12-.27,.27v1.88l-2.87-2.87c-.36-.36-.95-.36-1.32,0L5.83,13.45c-.55,.55-.22,1.49,.55,1.59l1.37,.16v9.21c0,.51,.42,.93,.93,.93h4.01v-6.68c0-.45,.36-.81,.81-.81h2.97c.45,0,.81,.36,.81,.81v6.68h4.01c.51,0,.93-.42,.93-.93V15.18l1.37-.16c.77-.09,1.1-1.03,.55-1.59Z"/><rect class="cls-1" width="30" height="30"/></g></g></svg>