<?xml version="1.0" encoding="UTF-8"?><svg id="_圖層_2" xmlns="http://www.w3.org/2000/svg" xmlns:xlink="http://www.w3.org/1999/xlink" viewBox="0 0 30 30"><defs><style>.cls-1{fill:none;}.cls-2{fill:#fff;filter:url(#drop-shadow-1);}</style><filter id="drop-shadow-1" filterUnits="userSpaceOnUse"><feOffset dx="0" dy="0"/><feGaussianBlur result="blur" stdDeviation="5"/><feFlood flood-color="#000" flood-opacity=".5"/><feComposite in2="blur" operator="in"/><feComposite in="SourceGraphic"/></filter></defs><g id="_右側按鈕"><g><path class="cls-2" d="M12,12.38l.62-.69c.51-.57,.77-1.3,.73-2.06-.04-.76-.37-1.46-.94-1.97l-1.05-.95c-.53-.48-1.21-.74-1.91-.74-.81,0-1.58,.34-2.12,.94l-.62,.69c-.08,.09-.16,.18-.23,.29l-.03,.03c-.59,.5-1.09,1.72-.8,3.22,1.33,6.95,7.19,12.25,14.24,12.88,.92,.08,1.8-.11,2.46-.51,.26-.15,.5-.34,.7-.56l.62-.69c1.06-1.17,.97-2.98-.2-4.03l-1.05-.95c-.53-.48-1.21-.74-1.91-.74-.81,0-1.58,.34-2.12,.94l-.62,.69c-.27,.29-.46,.63-.59,1l-.06,.17-.16-.06c-2.77-1.09-5.03-3.17-6.36-5.83l-.09-.18,.19-.06c.5-.15,.94-.43,1.29-.82Z"/><rect class="cls-1" width="30" height="30"/></g></g></svg>