<?xml version="1.0" encoding="UTF-8"?><svg id="_圖層_2" xmlns="http://www.w3.org/2000/svg" xmlns:xlink="http://www.w3.org/1999/xlink" viewBox="0 0 30 30"><defs><style>.cls-1{fill:none;}.cls-2{fill:#fff;filter:url(#drop-shadow-1);}</style><filter id="drop-shadow-1" filterUnits="userSpaceOnUse"><feOffset dx="0" dy="0"/><feGaussianBlur result="blur" stdDeviation="5"/><feFlood flood-color="#000" flood-opacity=".5"/><feComposite in2="blur" operator="in"/><feComposite in="SourceGraphic"/></filter></defs><g id="_右側按鈕"><g><path class="cls-2" d="M23.21,12.76l-6.94-6.94c-.32-.32-.77-.52-1.26-.52s-.94,.2-1.26,.52l-6.94,6.94c-.7,.7-.7,1.83,0,2.53s1.83,.7,2.53,0l3.9-3.89v11.53c0,.99,.8,1.79,1.79,1.79s1.79-.8,1.79-1.79V11.39l3.89,3.89c.35,.35,.81,.52,1.26,.52s.91-.17,1.26-.52c.7-.7,.7-1.83,0-2.53Z"/><rect class="cls-1" width="30" height="30"/></g></g></svg>