<?xml version="1.0" encoding="UTF-8"?><svg id="_圖層_2" xmlns="http://www.w3.org/2000/svg" viewBox="0 0 499.05 152.35"><defs><style>.cls-1{fill:#fff;}</style></defs><g id="_主視覺"><g><g><g><path class="cls-1" d="M3.81,144.5h6.14v-4.02c0-.72-.04-1.19-.13-1.42-.06-.17-.2-.32-.41-.45-.28-.17-.58-.25-.89-.25h-.47v-.38h5.65v.38h-.47c-.31,0-.61,.08-.89,.24-.21,.11-.35,.28-.42,.5-.07,.22-.11,.68-.11,1.37v9.07c0,.71,.04,1.18,.13,1.41,.06,.17,.2,.32,.4,.45,.28,.17,.58,.25,.9,.25h.47v.38h-5.65v-.38h.47c.54,0,.93-.17,1.18-.51,.16-.22,.24-.75,.24-1.6v-4.28H3.81v4.28c0,.71,.04,1.18,.13,1.41,.07,.17,.2,.32,.41,.45,.28,.17,.57,.25,.89,.25h.48v.38H.05v-.38h.47c.55,0,.94-.17,1.19-.51,.16-.22,.23-.75,.23-1.6v-9.07c0-.72-.04-1.19-.13-1.42-.06-.17-.2-.32-.4-.45-.29-.17-.59-.25-.9-.25H.05v-.38H5.71v.38h-.48c-.31,0-.61,.08-.89,.24-.2,.11-.34,.28-.42,.5-.08,.22-.12,.68-.12,1.37v4.02Z"/><path class="cls-1" d="M71.92,147.33h-5.11l-.9,2.22c-.22,.55-.33,.95-.33,1.22,0,.21,.1,.4,.29,.56,.19,.16,.6,.27,1.24,.32v.38h-4.16v-.38c.55-.1,.91-.24,1.07-.4,.33-.33,.7-1,1.1-2.02l4.65-11.56h.34l4.6,11.69c.37,.94,.71,1.55,1.01,1.83,.3,.28,.72,.44,1.26,.47v.38h-5.21v-.38c.53-.03,.88-.12,1.07-.28,.19-.16,.28-.35,.28-.58,0-.3-.13-.78-.39-1.44l-.8-2.02Zm-.27-.77l-2.24-5.68-2.3,5.68h4.54Z"/><path class="cls-1" d="M129.97,145.45v4.09c0,.88,.09,1.43,.27,1.65,.25,.3,.62,.46,1.12,.46h.51v.38h-5.66v-.38h.5c.56,0,.96-.19,1.2-.58,.13-.21,.2-.72,.2-1.52v-9.08c0-.88-.09-1.43-.26-1.65-.25-.3-.63-.46-1.13-.46h-.5v-.38h4.84c1.18,0,2.11,.13,2.8,.39,.68,.26,1.26,.7,1.72,1.31,.47,.62,.7,1.34,.7,2.19,0,1.15-.36,2.08-1.07,2.8-.71,.72-1.72,1.08-3.02,1.08-.32,0-.66-.02-1.03-.07-.37-.05-.77-.12-1.19-.22Zm0-.59c.34,.07,.65,.12,.91,.16,.27,.03,.49,.05,.68,.05,.68,0,1.26-.28,1.75-.83,.49-.56,.74-1.28,.74-2.16,0-.61-.12-1.17-.35-1.69-.23-.52-.56-.91-.99-1.17-.43-.26-.92-.39-1.46-.39-.33,0-.76,.07-1.28,.2v5.84Z"/><path class="cls-1" d="M189.75,145.45v4.09c0,.88,.09,1.43,.27,1.65,.25,.3,.62,.46,1.12,.46h.51v.38h-5.66v-.38h.5c.56,0,.96-.19,1.2-.58,.13-.21,.2-.72,.2-1.52v-9.08c0-.88-.09-1.43-.26-1.65-.25-.3-.63-.46-1.13-.46h-.5v-.38h4.84c1.18,0,2.11,.13,2.8,.39,.68,.26,1.26,.7,1.72,1.31,.47,.62,.7,1.34,.7,2.19,0,1.15-.36,2.08-1.07,2.8-.71,.72-1.72,1.08-3.02,1.08-.32,0-.66-.02-1.03-.07-.37-.05-.77-.12-1.19-.22Zm0-.59c.34,.07,.65,.12,.92,.16,.27,.03,.49,.05,.68,.05,.68,0,1.26-.28,1.75-.83,.49-.56,.74-1.28,.74-2.16,0-.61-.12-1.17-.35-1.69-.23-.52-.56-.91-.99-1.17-.43-.26-.91-.39-1.46-.39-.33,0-.76,.07-1.28,.2v5.84Z"/><path class="cls-1" d="M251.58,151.65v.38h-5.66v-.38h.47c.54,0,.94-.17,1.19-.51,.16-.22,.23-.75,.23-1.6v-9.08c0-.71-.04-1.18-.13-1.41-.06-.17-.2-.32-.4-.45-.29-.17-.59-.25-.9-.25h-.47v-.38h5.66v.38h-.48c-.54,0-.93,.17-1.18,.51-.16,.22-.24,.75-.24,1.6v9.08c0,.71,.04,1.18,.13,1.41,.07,.17,.2,.32,.41,.45,.28,.17,.58,.25,.89,.25h.48Z"/><path class="cls-1" d="M300.49,137.98h3.58l8.07,10.54v-8.1c0-.86-.09-1.4-.27-1.62-.24-.29-.62-.44-1.14-.44h-.46v-.38h4.6v.38h-.47c-.56,0-.95,.18-1.19,.54-.14,.22-.21,.73-.21,1.51v11.85h-.35l-8.71-11.32v8.65c0,.86,.09,1.4,.26,1.62,.25,.29,.63,.44,1.14,.44h.47v.38h-4.6v-.38h.46c.56,0,.96-.18,1.2-.54,.14-.22,.21-.73,.21-1.51v-9.77c-.38-.48-.67-.79-.87-.94-.2-.15-.49-.29-.87-.42-.19-.06-.47-.09-.86-.09v-.38Z"/><path class="cls-1" d="M368,138.75v5.56h2.9c.75,0,1.26-.12,1.51-.36,.34-.32,.53-.88,.57-1.68h.36v4.89h-.36c-.09-.68-.18-1.12-.27-1.32-.12-.24-.31-.43-.58-.57-.27-.14-.68-.21-1.23-.21h-2.9v4.63c0,.62,.03,1,.08,1.14,.05,.13,.14,.24,.27,.32,.13,.08,.38,.12,.74,.12h2.24c.75,0,1.29-.06,1.63-.17s.66-.33,.97-.65c.4-.43,.81-1.07,1.24-1.94h.39l-1.14,3.52h-10.18v-.38h.47c.31,0,.61-.08,.89-.24,.21-.11,.35-.28,.42-.5,.07-.22,.11-.67,.11-1.36v-9.13c0-.89-.08-1.44-.25-1.65-.23-.28-.62-.41-1.17-.41h-.47v-.38h10.18l.15,3.08h-.38c-.14-.74-.29-1.25-.45-1.52-.17-.28-.41-.49-.74-.63-.26-.1-.72-.16-1.37-.16h-3.62Z"/><path class="cls-1" d="M433.84,137.66v4.86h-.36c-.12-.93-.33-1.68-.63-2.23-.3-.55-.73-.99-1.29-1.32-.56-.33-1.14-.49-1.73-.49-.68,0-1.23,.22-1.68,.66-.44,.44-.66,.94-.66,1.5,0,.43,.14,.82,.42,1.17,.4,.52,1.36,1.21,2.87,2.07,1.23,.7,2.08,1.24,2.53,1.62,.45,.38,.8,.82,1.04,1.33,.24,.51,.36,1.05,.36,1.61,0,1.06-.39,1.98-1.16,2.75-.78,.77-1.78,1.16-3,1.16-.38,0-.74-.03-1.08-.09-.2-.03-.62-.16-1.25-.38-.63-.22-1.03-.33-1.2-.33s-.29,.05-.39,.16c-.09,.1-.16,.32-.21,.64h-.36v-4.82h.36c.17,1.01,.4,1.76,.68,2.26,.29,.5,.72,.92,1.31,1.25,.59,.33,1.23,.5,1.93,.5,.81,0,1.45-.23,1.92-.68,.47-.46,.71-1,.71-1.62,0-.34-.09-.69-.27-1.05-.18-.35-.46-.68-.83-.98-.25-.21-.94-.65-2.07-1.32-1.13-.67-1.93-1.21-2.41-1.61-.48-.4-.84-.84-1.09-1.33-.25-.48-.37-1.02-.37-1.6,0-1.01,.36-1.88,1.09-2.61,.73-.73,1.65-1.09,2.78-1.09,.7,0,1.45,.18,2.23,.55,.36,.17,.62,.26,.77,.26,.17,0,.31-.05,.41-.16,.11-.11,.19-.32,.26-.65h.36Z"/><path class="cls-1" d="M493.62,137.66v4.86h-.36c-.12-.93-.33-1.68-.63-2.23-.3-.55-.73-.99-1.29-1.32-.56-.33-1.14-.49-1.73-.49-.68,0-1.23,.22-1.68,.66-.44,.44-.66,.94-.66,1.5,0,.43,.14,.82,.42,1.17,.4,.52,1.36,1.21,2.87,2.07,1.23,.7,2.08,1.24,2.53,1.62,.45,.38,.8,.82,1.04,1.33,.24,.51,.36,1.05,.36,1.61,0,1.06-.39,1.98-1.16,2.75-.78,.77-1.78,1.16-3,1.16-.38,0-.74-.03-1.08-.09-.2-.03-.62-.16-1.25-.38-.63-.22-1.03-.33-1.2-.33s-.29,.05-.39,.16c-.09,.1-.16,.32-.21,.64h-.36v-4.82h.36c.17,1.01,.4,1.76,.68,2.26,.29,.5,.72,.92,1.31,1.25,.59,.33,1.23,.5,1.93,.5,.81,0,1.45-.23,1.92-.68,.47-.46,.71-1,.71-1.62,0-.34-.09-.69-.27-1.05-.18-.35-.46-.68-.83-.98-.25-.21-.94-.65-2.07-1.32-1.13-.67-1.93-1.21-2.41-1.61-.48-.4-.84-.84-1.09-1.33-.25-.48-.37-1.02-.37-1.6,0-1.01,.36-1.88,1.09-2.61,.73-.73,1.65-1.09,2.78-1.09,.7,0,1.45,.18,2.23,.55,.36,.17,.62,.26,.77,.26,.17,0,.31-.05,.41-.16,.11-.11,.19-.32,.26-.65h.36Z"/></g><g><path class="cls-1" d="M193.64,17.6h20.81l8.32-11.91s9.32,7.17,14.91,12.17c-.25,1.41-1.62,2.05-3.48,2.05h-40.93l.37-2.31Z"/><path class="cls-1" d="M127.6,119.82c13.92-6.15,29.32-17.17,36.4-25.36l16.77,11.14c-1.12,1.41-3.6,1.92-7.45,1.02-10.56,6.15-28.2,12.04-45.23,14.73l-.5-1.54Z"/><path class="cls-1" d="M195.32,97.4c66.1,3.33,42,30.87,29.57,20.11-5.09-5.76-14.91-13.19-29.94-18.45l.37-1.67Z"/><polygon class="cls-1" points="174.49 19.9 132.82 19.9 131.7 17.6 174.62 17.6 174.49 19.9"/><rect class="cls-1" x="165.75" y="47.83" width="37.46" height="2.44"/><rect class="cls-1" x="165.75" y="62.17" width="37.46" height="2.31"/><rect class="cls-1" x="165.75" y="76.39" width="37.46" height="2.44"/><path class="cls-1" d="M176.43,33.1h-12.05l-15.78-7.43V91.38h-21.12l1.12,2.44h111.08c1.74,0,3.11-.64,3.48-2.05-5.59-5.38-13.86-13.07-13.86-13.07l-8.25,12.45V37.07c3.23-.64,4.72-1.41,5.59-2.69l-15.65-11.02-6.58,9.73h-15.41m16.78,58.2h-.01v.09h-42.49v-.09h-.07V35.43h.07v-.03h42.49v.03h.01v55.86Z"/><path class="cls-1" d="M188.98,33.1l3.73-27.15c2.61-.38,4.22-1.79,4.47-3.84L177.67,.18l-1.24,32.92"/></g><g><path class="cls-1" d="M74.92,66.79s8.45,7.43,13.54,12.3c-.37,1.41-1.74,2.05-3.48,2.05H43.36l-.99-2.31h25.1l7.45-12.04Z"/><path class="cls-1" d="M73.06,41.81s8.45,7.17,13.29,12.04c-.25,1.41-1.61,2.05-3.48,2.05H47.59l-.99-2.31h19.26l7.21-11.78Z"/><path class="cls-1" d="M60.56,28.87h32.5c-.99,41.25-2.61,68.4-7.33,72.76-1.37,1.28-2.61,1.79-4.97,1.79-3.23,0-12.55-.64-18.89-1.28v1.79c6.34,1.28,11.43,3.33,13.79,5.76,2.24,2.31,2.98,6.02,2.98,11.14,8.57,0,14.16-2.18,18.76-6.92,7.08-7.81,9.19-32.02,10.44-81.09,2.73-.51,4.47-1.41,5.34-2.56l-13.42-12.3-8.08,8.58h-29.87"/><path class="cls-1" d="M57.4,30.15c-5.02,9.08-11.14,17.63-18.09,24.2v-7.28c5.62-13.48,9.98-30.96,12.26-46.39l20.13,4.74c-.5,1.67-1.99,2.82-4.6,2.95-2.11,5.89-4.72,12.17-7.83,18.19l-1.86,3.59Z"/><path class="cls-1" d="M0,8.63V103.55H2.24c6.3,0,10.23-3.04,10.42-4.14V14.39L0,8.63Z"/><path class="cls-1" d="M28.83,7.09l-9.02,7.3h-5.16v2.44h8.96v31.25H14.65v2.31h8.96v32.28H14.65v2.44h8.96v11.91h2.11c4.6,0,10.81-2.95,11.06-3.84V20.41c2.36-.51,4.1-1.67,4.97-2.69L28.83,7.09Z"/></g><g><path class="cls-1" d="M395.65,7.41V117.58h2.36c6.16,0,11.82-3.66,11.9-5.46V13.52l-14.25-6.11Z"/><rect class="cls-1" x="454.48" y="57.39" width="21.53" height="3.58"/><path class="cls-1" d="M413.09,102.25v3.71h66.25v10.48h2.36c5.33,0,12.15-3.45,12.4-4.6V20.19c2.48-.64,4.09-1.66,4.96-2.81l-13.89-11.5-7.07,8.18h-65.01v3.58h66.25V102.25h-66.25Z"/><rect class="cls-1" x="413.09" y="57.39" width="20.48" height="3.58"/></g><g><path class="cls-1" d="M303.66,109.28v-38.22c1.98-.38,3.47-1.28,4.09-2.17l-12.4-9.71-5.95,6.65h-10.49v3.58h11.61v14.57h-11.61v3.71h11.61v15.08h-11.61v3.58h11.61v6.39h2.23c4.21,0,10.79-2.56,10.91-3.45Z"/><path class="cls-1" d="M264.24,60.33v57.9h1.86c4.99,0,10.09-2.69,10.72-4.08v-48.56l-12.58-5.26Z"/><g><polygon class="cls-1" points="273.53 31.7 273.53 31.7 275.25 31.7 275.25 28.12 256.8 28.12 257.79 31.7 273.53 31.7"/><path class="cls-1" d="M272.78,33.7c-3.99,10.34-10.05,20.71-17.97,28.16l1.24,1.79c7.18-3.87,13.66-8.55,19.19-13.95v-15.99h-2.46Z"/></g><path class="cls-1" d="M331.27,15.21h19.26l7.56-10.48s8.68,7.16,13.89,12.01c-.37,1.41-1.61,2.05-3.47,2.05h-38.85l1.61-3.58Z"/><path class="cls-1" d="M329.33,32.46h21.94v10.48h-21.94v3.71h21.94v10.86h-21.94v3.58h21.94v3.96h2.11c4.22,0,10.41-2.81,10.54-3.71v-26.71c2.48-.64,4.22-1.66,4.96-2.68l-12.77-9.97-5.95,6.77h-20.83v3.71Z"/><path class="cls-1" d="M347.8,99.18c6.32-5.5,11.41-11.63,15.37-18.92,2.98-.26,4.34-.64,5.21-1.92l-12.65-11.37-7.93,7.29h-14.01c-.72,1.21-1.49,2.44-2.32,3.71h16.33c-2.6,6.13-6.32,11.63-10.66,16.62-4.34-2.3-8.46-4.92-12.13-7.93-1.44,1.74-2.96,3.45-4.56,5.1,2.71,3.64,5.71,6.93,9.01,9.99-8.43,7.03-19.09,12.65-31.12,16.74l.62,1.79c14.63-2.56,27.15-6.9,37.57-12.91,7.44,5.24,16.24,9.46,25.91,12.65,1.74-6.77,5.58-11.25,11.16-12.65l.12-1.41c-8.8-1.53-17.73-3.71-25.91-6.77Z"/><path class="cls-1" d="M311.53,31.87c-1.1,3.86-2.37,7.5-3.67,10.79,.58,.87,1.05,1.76,1.37,2.66,1.94-1.83,3.86-3.83,5.59-5.83v26.97h1.86c1.74,0,3.35-.26,4.96-.77-1.12,4.35-2.6,8.82-4.34,13.16-2.36-2.81-4.46-5.88-6.07-9.33l-1.61,1.02c1.61,4.73,3.47,9.2,5.7,13.16-2.73,6.13-5.83,11.63-9.05,15.85l1.36,1.02c.6-.41,1.19-.84,1.78-1.28,.42-.31,.84-.63,1.26-.96,0,0,0,0,.01-.01,.93-.73,1.86-1.51,2.77-2.3,.13-.11,.26-.23,.39-.34,.34-.3,.69-.61,1.03-.92,6.73-6.21,12.58-13.86,16.85-20.51h-.04c1.74-2.56,3.1-5.11,4.46-7.54,3.22,0,4.09-.64,4.46-2.05l-13.27-2.56v-.05h-.02V28.48l-3.82-1.64c1.13-1.95,2.19-3.99,3.23-6.09,2.71-5.82,5.57-13.09,5.57-13.09,2.73,0,4.09-1.28,4.59-2.81l-18.6-4.86c-1.21,9.51-3.26,19.63-5.79,28.57"/><path class="cls-1" d="M310.24,31.59c-.29,.04-.3,.11-.63,.11h-19.46v2.41c-1.21-.21-2.02-.31-2.14-.33l-3.46-.44,2.49,2.45c1.1,1.08,2.14,2.29,3.11,3.58v20.19c0,.77-4.09,3.58-10.66,3.58h-2.23V16.74c-6.57,.77-13.51,1.28-19.84,1.53l-.37-1.79c12.65-3.96,28.64-11.25,36.7-16.49l13.51,13.42c-1.49,1.15-4.09,1.28-7.69-.26-2.73,.64-5.95,1.28-9.42,1.79v13.16h4.22l6.69-9.07s5.78,5,10.24,9.17l-1.05,3.37Z"/><path class="cls-1" d="M308.45,46.88c-.53-2.62-2.43-5.2-4.93-7.08-4.57-3.45-15.66-4.85-15.66-4.85,4.17,4.1,7.77,10.09,9.43,16.17,.21,.66,.53,1.21,.94,1.67,5.55,3.15,10.58-.82,10.22-5.91Z"/></g></g><rect class="cls-1" x="436.77" y="21.06" width="14.53" height="77.65"/></g></g></svg>