<?xml version="1.0" encoding="UTF-8"?><svg xmlns="http://www.w3.org/2000/svg" viewBox="0 0 402.35 411.45"><defs><style>.cls-1{fill:#f9d3e3;}.cls-2{fill:#fff;}.cls-3{fill:#5e318f;}.cls-4{fill:none;stroke:#fff;stroke-miterlimit:10;stroke-width:1.42px;}.cls-5{fill:#231815;mix-blend-mode:multiply;opacity:.6;}.cls-6{isolation:isolate;}</style></defs><g class="cls-6"><g id="_圖層_2"><g id="_預約賞屋"><g><g><g><circle class="cls-5" cx="51.46" cy="51.17" r="50.72" transform="translate(-21.11 51.38) rotate(-45)"/><path class="cls-1" d="M51.46,102.35C23.24,102.35,.29,79.39,.29,51.17S23.24,0,51.46,0s51.17,22.96,51.17,51.17-22.96,51.17-51.17,51.17ZM51.46,.91C23.75,.91,1.2,23.46,1.2,51.17s22.55,50.26,50.26,50.26,50.26-22.55,50.26-50.26S79.17,.91,51.46,.91Z"/></g><g><path class="cls-1" d="M50.81,29.9c-.2,.25-.59,.45-1.2,.56-.28,10.73-.76,16.02-2.35,17.73-1.04,1.04-2.3,1.51-4.23,1.51,0-1.12-.17-1.93-.67-2.44-.53-.53-1.68-.98-3.11-1.26v-.39c1.43,.14,3.53,.28,4.26,.28,.53,0,.81-.11,1.12-.39,1.06-.95,1.43-6.61,1.65-15.63h-8.04c-1.26,2.21-2.83,4.29-4.62,5.77l-.03-.03v8.04c-.06,.2-1.46,.84-2.49,.84h-.48v-2.32h-2.47v2.83c0,.22-.9,.92-2.35,.92h-.5V25.17l3.22,1.26h1.82l1.46-1.6,2.91,2.33c-.2,.22-.59,.48-1.12,.59v7.06c1.54-3.05,2.75-7.51,3.33-11.37l4.54,1.04c-.11,.36-.45,.61-1.04,.64-.48,1.29-1.06,2.66-1.76,3.98h7.31l1.82-1.88,3.03,2.69Zm-22.66-2.66v6.55h2.47v-6.55h-2.47Zm2.47,14.12v-6.78h-2.47v6.78h2.47Zm11.57-3.47s1.9,1.62,3.05,2.69c-.08,.31-.39,.45-.78,.45h-9.38l-.22-.78h5.66l1.68-2.35Zm-.42-5.46s1.9,1.57,3,2.63c-.06,.31-.36,.45-.78,.45h-7.96l-.22-.78h4.34l1.62-2.3Z"/><path class="cls-1" d="M76.74,40.49s2.1,1.68,3.36,2.86c-.08,.31-.39,.45-.78,.45h-25.04l-.25-.81h4.76v-14.09l3.56,1.34h2.72c.03-.76,.08-1.62,.14-2.6h-9.97l-.25-.78h10.25c.06-1.21,.08-2.47,.11-3.53l4.4,.42c-.05,.45-.42,.76-1.01,.84-.08,.67-.2,1.46-.34,2.27h5.24l1.88-2.33s2.1,1.57,3.36,2.66c-.06,.31-.36,.45-.78,.45h-9.81l-.39,2.6h3.47l1.48-1.85,3.53,2.41c-.2,.28-.53,.45-1.26,.59v11.29l1.63-2.18Zm-22.69,8.99c3.14-1.34,6.61-3.75,8.21-5.55l3.78,2.44c-.25,.31-.81,.42-1.68,.22-2.38,1.34-6.36,2.63-10.2,3.22l-.11-.34Zm8.04-18.46v2.44h9.58v-2.44h-9.58Zm9.58,3.25h-9.58v2.33h9.58v-2.33Zm-9.58,3.11v2.33h9.58v-2.33h-9.58Zm0,5.6h9.58v-2.47h-9.58v2.47Zm7.23,1.6c14.9,.73,9.47,6.75,6.67,4.4-1.15-1.26-3.36-2.88-6.75-4.03l.08-.36Z"/><path class="cls-1" d="M34.59,66.67c-.2,.31-.45,.39-1.06,.48-.42,2.86-1.12,5.57-2.52,8.01,3.05,1.65,7.23,2.02,13.03,2.02,1.46,0,4.85,0,6.61-.03v.34c-1.29,.28-1.9,1.43-1.99,2.75h-4.87c-6.5,0-10.9-.67-13.98-3.39-1.32,1.63-3.08,3.08-5.49,4.17l-.2-.34c1.96-1.46,3.36-3.28,4.29-5.32-1.29-1.71-2.3-4.01-3.08-6.97l.31-.17c.9,2.47,2.02,4.23,3.45,5.55,.78-2.19,1.18-4.57,1.4-7.03h-1.68l-.98,1.01-2.75-1.77c.25-.22,.62-.45,1.01-.59,1.01-1.88,2.41-4.99,3.17-6.95h-4.65l-.25-.81h4.87l1.4-1.4,2.8,2.52c-.22,.25-.67,.39-1.2,.45-.76,1.74-2.19,4.76-3.19,6.72h1.23l1.54-1.6,2.8,2.35Zm14.15-7.34s1.54,1.54,2.33,2.52c-.08,.31-.36,.45-.73,.45h-3.14v3.87c-.03,.22-1.54,.76-2.55,.76h-.48v-.95h-2.49v2.86h2.66l1.57-2.07s1.82,1.4,2.89,2.41c-.08,.31-.34,.45-.76,.45h-6.36v2.91h3.36l1.76-2.21s2.02,1.48,3.25,2.58c-.08,.31-.39,.45-.78,.45h-7.59v2.6c0,.25-1.29,.84-2.52,.84h-.62v-3.45h-5.71l-.22-.81h5.94v-2.91h-4.43l-.22-.78h4.65v-2.86h-4.09l-.25-.81h4.34v-2.86h-6.16l-.22-.81h6.39v-2.83h-4.37l-.25-.78h4.62v-3.08l4.17,.39c-.06,.42-.28,.7-1.04,.81v1.88h2.21l1.4-1.51,3,2.24c-.17,.2-.56,.45-1.09,.56v2.32h.2l1.34-2.16Zm-7.06,2.16h2.49v-2.83h-2.49v2.83Zm2.49,.81h-2.49v2.86h2.49v-2.86Z"/><path class="cls-1" d="M63.46,58.38s1.6,1.26,2.58,2.18c-.05,.31-.36,.45-.76,.45h-11.32l-.22-.81h8.32l1.4-1.82Zm6.11,.62c0,2.3-.51,6.08-5.21,8.26,.17,.17,.36,.34,.53,.5-.08,.31-.36,.45-.76,.45h-9.02l-.22-.81h6.16l1.34-1.71s.78,.61,1.57,1.26c2.35-2.44,2.66-5.49,2.66-7.96v-3.47l3.44,1.26h2.38l1.49-1.6,2.72,2.24c-.17,.2-.5,.34-1.01,.42v4.62c0,.28,.08,.39,.45,.39h1.46c.17,0,.45-.03,.59-.03,.17-.03,.45-.08,.64-.11h.25l.11,.03c.67,.34,.93,.62,.93,1.18,0,1.12-.95,1.74-3.64,1.74h-1.34c-2.1,0-2.35-.59-2.35-2.41v-5.69h-3.16v1.43Zm-8.52,4.79l1.34-1.77s1.51,1.23,2.47,2.13c-.08,.31-.36,.45-.76,.45h-8.96l-.22-.81h6.14Zm.22,15.85v-1.51h-3.17v1.68c0,.28-1.23,.92-2.44,.92h-.42v-10.87l2.97,1.21h2.8l1.34-1.43,2.86,2.13c-.17,.2-.53,.42-1.06,.53v6.5c-.03,.22-1.43,.84-2.41,.84h-.48Zm-4.54-24.48c7.39,.36,4.73,5.97,1.76,4-.2-1.4-1.12-2.91-1.96-3.84l.2-.17Zm4.54,22.19v-5.49h-3.17v5.49h3.17Zm17.17-8.74c-.2,.28-.5,.36-1.18,.42-.98,2.38-2.32,4.45-4.12,6.25,2.04,1.15,4.45,1.9,7,2.41l-.03,.31c-1.29,.28-2.24,1.26-2.66,2.77-2.52-.95-4.65-2.1-6.36-3.75-2.38,1.79-5.46,3.11-9.24,3.98l-.17-.36c3.28-1.29,5.97-3.03,8.01-5.21-1.34-1.79-2.35-4.03-3-6.92h-1.34l-.25-.81h8.63l1.79-1.71,2.91,2.63Zm-11.23-.11c.84,2.27,2.13,4.01,3.81,5.35,1.23-1.62,2.16-3.39,2.8-5.35h-6.61Z"/></g></g><g><path class="cls-1" d="M26.84,222.3c0,17.3-1.03,39.66-20.39,54.59l-1.03-.82c8.76-15.86,9.27-35.74,9.27-53.77v-31.31l14.01,5.05h28.43c-.41-.21-.72-.41-1.13-.62-1.13-5.46-5.15-11.54-8.76-15.24l.82-.62c21.32,1.03,21.84,13.08,15.97,16.48h21.73l6.39-8.65s7.11,5.87,11.33,9.89c-.21,1.13-1.34,1.65-2.78,1.65H26.84v23.38Zm33.37,10.2c-.72,.93-1.65,1.24-3.81,1.54-1.85,8.86-4.84,17.1-9.99,24,7.31,3.71,16.89,4.64,29.97,4.64,6.28,0,20.7,0,27.61-.21v1.24c-3.91,.93-5.87,5.05-5.87,9.68h-22.25c-15.66,0-26.58-2.16-34.2-9.99-5.36,5.36-12.57,9.79-22.25,12.98l-.62-1.34c8.55-4.43,14.52-10.3,18.75-17.1-2.68-4.43-4.84-9.99-6.59-17l1.03-.62c2.16,5.56,4.84,9.89,7.93,13.08,2.99-6.28,4.84-13.18,5.87-20.81h-4.94l-3.5,3.5-9.37-6.28c.93-.72,2.37-1.54,3.81-2.06,2.78-4.94,6.28-12.36,8.55-17.51h-10.51l-.93-2.88h11.33l5.05-5.05,9.99,8.96c-.93,1.03-2.68,1.54-4.84,1.65-2.16,4.64-5.97,11.74-8.65,16.79h3.3l5.46-5.46,9.68,8.24Zm11.54,19.36v-20.19h-10.92l-.72-2.88h11.64v-15.76c-5.15,.62-10.4,1.03-15.35,1.24l-.31-1.54c11.54-2.88,25.75-8.55,32.96-12.88l10.3,9.48c-1.03,.93-3.19,1.03-5.87-.1-3.09,.82-6.9,1.55-10.92,2.27v17.3h2.06l5.36-7.72s6.08,5.36,9.58,8.96c-.21,1.13-1.34,1.65-2.78,1.65h-14.22v20.19h5.05l5.56-7.52s6.18,5.15,9.99,8.76c-.31,1.13-1.34,1.65-2.78,1.65H57.02l-.82-2.88h15.55Z"/><path class="cls-1" d="M151.37,199.23c3.19,18.64-18.64,12.77-9.17,1.13,2.57-1.44,4.43-4.53,5.05-8.76-.82,.93-2.16,1.24-4.53,1.24-3.4,6.49-9.48,17.51-14.32,24,10.2,7,14.52,16.79,14.63,25.34,0,10.2-3.61,15.76-14.63,16.07,0-3.09-.31-7.11-1.13-8.65-.72-1.03-2.16-1.75-4.22-2.37v25.65c0,.72-3.4,3.5-8.96,3.5h-1.96v-93.94l12.26,4.74h6.08l5.87-5.67,10.92,10.09,.1-1.03h1.34c.93,2.06,1.55,4.02,2.06,5.77h19.26c-1.03-.31-2.16-1.03-3.3-1.96,.1-5.05-2.06-10.71-4.64-14.21l.82-.62c19.47,3.19,17.51,14.73,11.12,16.79h16.79l5.46-5.46,9.78,9.27c-.82,.72-1.85,.93-3.91,1.03-2.88,2.37-7.93,5.56-11.33,7.62,1.96,1.75,4.22,3.71,5.98,5.36-.21,1.13-1.34,1.65-2.78,1.65h-46.25l-.82-2.88h33.17l5.97-7.93,3.19,2.58c.72-2.27,1.44-5.67,2.06-8.34h-39.97Zm-22.87,46.66c.93,0,1.55-.1,2.16-.52,1.34-.93,2.06-2.78,2.06-6.08,0-7.42-1.85-15.25-6.8-22.15,1.75-6.8,4.12-18.95,5.36-27.09h-8.24v55.83h5.46Zm73.75,16.27c2.68,1.34,3.3,2.78,3.3,4.95,0,4.43-3.71,6.9-15.35,6.9h-6.28c-8.55,0-9.79-2.37-9.79-9.79v-32.45h-7.93c-1.34,17.1-5.67,33.07-33.37,43.88l-1.03-1.34c19.98-12.87,21.43-27.6,21.84-42.54h-10.2l-.82-2.99h44.81l6.08-8.34s7.11,5.67,11.33,9.68c-.31,1.13-1.44,1.65-2.88,1.65h-16.48v29.46c0,1.24,.21,1.65,1.96,1.65h7.52c.82,0,1.34-.21,1.96-1.13,.82-1.44,2.37-6.28,3.91-11.33h1.13l.31,11.74Z"/><path class="cls-1" d="M304.84,233.22c-.82,.93-1.75,1.03-3.81,1.24-3.61,3.09-9.68,7.42-14.11,9.89l-1.03-.72c1.03-3.09,2.37-7.73,3.19-11.43h-41.82l12.05,2.78c-.41,1.24-1.75,1.85-5.05,1.96-1.24,1.34-2.68,2.68-4.22,4.02h18.95l6.08-5.87,11.54,9.37c-.82,.93-2.37,1.34-4.95,1.44-13.6,17.51-33.58,27.09-67.88,30.39l-.62-1.44c14.32-3.5,26.47-7.93,36.26-14.01-1.44,.41-3.09,.31-4.95-.62-1.34-3.5-4.53-7.11-7.72-9.79-6.59,3.71-14.01,6.9-21.94,8.96l-.72-1.03c12.16-6.59,22.87-17.51,28.02-26.16h-19.98c.82,6.7-1.44,11.54-4.63,13.6-3.3,2.06-8.24,1.24-9.48-2.68-1.13-3.71,.93-6.49,4.12-8.03,3.09-1.96,6.69-6.7,6.18-11.64h1.44c.82,2.06,1.44,4.02,1.85,5.87h66.85l5.97-6.08,10.4,9.99Zm-96.31-43.98h31.42v-9.99l13.18,1.24c-.21,1.13-.93,1.96-3.09,2.37v15.45c0,.72-4.53,2.27-8.24,2.27h-1.85v-8.45h-30.49l-.93-2.88Zm75.3,8.14l11.02,8.24c-.62,.72-1.96,1.55-3.91,1.96v14.21c-.1,.82-5.67,3.19-9.48,3.19h-1.96v-3.61h-47.49v2.06c0,.93-4.94,3.3-9.48,3.3h-1.54v-28.43l11.74,4.64h45.73l5.36-5.56Zm-51.81,21.01h8.96v-12.46h-8.96v12.46Zm14.52,25.44c-1.85,1.44-3.81,2.78-5.87,4.12,12.36,1.03,14.11,7.93,11.33,11.23,6.39-4.22,11.74-9.27,15.97-15.35h-21.42Zm4.53-37.91v12.46h9.17v-12.46h-9.17Zm21.01-8.34c0,.72-4.53,2.27-8.24,2.27h-1.86v-20.6l13.18,1.24c-.2,1.03-.82,1.96-3.09,2.27v6.49h16.07l5.87-8.14s6.9,5.56,10.71,9.37c-.31,1.13-1.23,1.65-2.68,1.65h-29.97v5.46Zm-1.65,8.34v12.46h9.07v-12.46h-9.07Z"/></g><g><path class="cls-2" d="M49.61,130.69s3.62,2.7,5.73,4.63c-.09,.5-.55,.73-1.24,.73h-17.59v6.14h7.01l2.43-2.79,5.36,4.03c-.32,.37-.92,.78-1.88,.96v13.56c0,3.53-.78,5.59-6.78,6.14-.09-1.7-.32-2.93-.92-3.76-.64-.73-1.47-1.37-3.48-1.69v-.64s3.71,.23,4.81,.23c.69,0,.92-.28,.92-.83v-13.92h-7.47v25.1c-.05,.37-1.74,1.51-4.63,1.51h-1.05v-26.61h-7.51v18.41c0,.6-2.34,1.79-4.63,1.79h-.78v-23.82l5.77,2.34h7.15v-6.14H12.61l-.37-1.28H46.41l3.21-4.08Zm-21.12-3.76c13.33,.14,9.02,10.26,3.62,6.96-.55-2.47-2.38-5.04-3.94-6.69l.32-.27Z"/><path class="cls-2" d="M99.35,138.39c-.32,.37-.92,.82-1.88,1.01v15.07c-.05,.37-2.89,1.37-4.76,1.37h-.96v-3.85h-10.31v16.03c0,.6-2.47,1.97-4.67,1.97h-1.05v-18h-10.21v2.7c0,.55-2.52,1.83-4.86,1.83h-.82v-21.8l6.09,2.38h9.8v-10.03l7.42,.69c-.09,.64-.46,1.15-1.7,1.33v8.02h9.89l2.56-2.84,5.45,4.12Zm-23.63,12.28v-12.23h-10.21v12.23h10.21Zm16.03,0v-12.23h-10.31v12.23h10.31Z"/><path class="cls-2" d="M107.92,140.81c3.43,8.34,2.11,14.11-.05,17.18-1.47,2.25-4.08,2.52-5.5,1.1-1.05-1.33-.73-2.98,.41-4.26,2.34-2.15,4.63-7.83,4.53-13.97l.6-.05Zm12.23-4.81c-.05,.6-.46,1.1-1.6,1.24v23.73c0,1.15,.55,1.51,2.61,1.51h5.59c2.06,0,3.76-.05,4.58-.09,.78-.09,1.19-.27,1.56-.82,.6-.96,1.47-3.66,2.47-7.15h.5l.18,7.47c1.65,.64,2.06,1.28,2.06,2.34,0,2.56-2.29,3.71-11.86,3.71h-5.86c-5.45,0-7.24-.96-7.24-5.36v-27.25l7.01,.69Zm6.18,4.49c-.87-4.26-3.71-9.21-6.46-12.55l.41-.28c15.99,5.31,11.63,17.09,6.05,12.83Zm13.1,18.14c-.27-4.44-1.51-11.5-5.18-16.44l.41-.37c16.63,10.03,9.11,22.54,4.76,16.81Z"/><path class="cls-2" d="M167.93,137.01c-.32,.41-1.01,.78-1.92,.96v27.3c-.05,.37-2.47,1.51-4.26,1.51h-.78v-3.62h-6.96v3.39c0,.6-1.92,1.74-4.12,1.74h-.82v-34.63l5.13,2.15h.28c.32-2.52,.73-6.09,.96-8.66l7.42,1.79c-.18,.78-.83,1.1-1.88,1.1-1.19,1.6-2.98,3.99-4.44,5.77h3.99l2.43-2.75,4.99,3.94Zm-13.93,.14v11.36h6.96v-11.36h-6.96Zm6.96,24.73v-12.05h-6.96v12.05h6.96Zm29.31-24.87c-.37,.41-.96,.73-2.01,.87-.32,18.46-.96,26.84-3.48,29.54-1.65,1.74-3.66,2.47-6.69,2.47,0-1.74-.23-3.02-1.01-3.76-.83-.87-2.61-1.6-4.86-2.02l.05-.64c2.2,.18,5.36,.41,6.55,.41,.83,0,1.24-.18,1.7-.6,1.7-1.56,2.15-10.67,2.47-26.29h-8.52c-2.2,3.89-4.81,7.15-7.74,9.62l-.6-.37c2.52-4.67,4.99-12.14,6.18-19.15l7.24,2.11c-.18,.6-.73,.92-1.79,.92-.78,1.97-1.6,3.8-2.56,5.54h7.28l2.89-2.98,4.9,4.31Zm-20.25,8.02c13.38,3.94,8.38,13.83,3.53,9.76-.23-3.25-2.06-6.96-3.89-9.48l.37-.28Z"/></g><g><path class="cls-1" d="M11.78,334.22h13.34l-2.12,5.42H11.78l-1.07,2.84c4.83,.18,8.55,1.39,11.16,3.61,2.14,1.84,3.21,4.12,3.21,6.85,0,1.75-.5,3.46-1.49,5.14-.99,1.67-2.4,2.96-4.2,3.86-1.81,.9-3.79,1.36-5.95,1.36-2.33,0-4.11-.43-5.36-1.3-.87-.62-1.3-1.32-1.3-2.1,0-.6,.23-1.13,.68-1.6,.45-.46,.98-.69,1.59-.69,.55,0,1.1,.11,1.66,.34,.56,.22,1.52,.81,2.88,1.77,.85,.59,1.59,.99,2.21,1.22,.43,.17,.92,.25,1.47,.25,1.15,0,2.13-.42,2.93-1.26,.81-.84,1.21-1.85,1.21-3.03,0-2.47-1.23-4.47-3.7-6.01-2.47-1.54-5.57-2.31-9.33-2.31-.38,0-.95,0-1.7,.02l5.11-14.37Z"/><path class="cls-2" d="M42.37,344.24c1.09,5.75,4.69,11.46,13.39,14.97l-.06,.34c-1.89,.34-3.01,1.49-3.35,3.6-7.24-4.41-9.57-11.96-10.4-18.17-.93,7.39-4.04,13.73-15.31,18.17l-.28-.46c8.63-5.22,11.06-11.37,11.74-18.45h-11.21l-.25-.9h11.52c.22-2.92,.19-6.03,.19-9.26l5.22,.5c-.09,.47-.37,.78-1.12,.9-.06,2.7-.09,5.34-.31,7.86h6.99l2.3-2.83s2.52,1.89,4.07,3.23c-.09,.34-.44,.5-.9,.5h-12.21Z"/><path class="cls-2" d="M57.51,363.03l-.34-.25c3.2-5.06,3.51-11.49,3.51-17.24v-9.38l3.38,1.18c5.81-.75,12.77-2.17,16.59-3.35l3.39,3.45c-.37,.31-1.09,.31-2.05-.09-4.63,.53-11.65,.81-17.7,.71v2.17h15.1l1.68-1.83,3.54,2.67c-.19,.22-.59,.5-1.21,.62v4.04c-.03,.25-1.86,.9-3.08,.9h-.62v-1.15l-15.41,.03c0,5.53-.4,12.8-6.77,17.52Zm24.82-15.56s2.02,1.52,3.29,2.64c-.09,.34-.43,.5-.87,.5h-11.18c-.12,1.06-.25,2.08-.5,3.07h5.78l1.83-1.71,3.26,2.67c-.22,.25-.59,.4-1.21,.5-.37,3.73-1.09,5.96-2.52,6.83-.9,.59-2.11,.87-3.73,.87,0-.96-.09-1.83-.59-2.33-.46-.5-1.49-.9-2.73-1.15v-.4c1.18,.09,3.14,.22,3.73,.22,.5,0,.75-.06,.99-.19,.53-.4,.93-1.96,1.18-4.41h-6.27c-1.12,3.29-3.73,6.3-10.4,8.48l-.28-.44c6.68-3.66,7.21-7.86,7.36-12.02h-4.47l-.25-.9h9.23c-.16-.06-.34-.16-.5-.25-.25-1.18-1.09-2.49-1.74-3.23l.25-.19c5.44-.09,5.22,2.95,3.54,3.66h5.03l1.77-2.24Zm-18.05-6.37v3.51h15.41v-3.51h-15.41Z"/><path class="cls-2" d="M96.42,364.09h-1.24v-31.06h1.24v31.06Z"/><path class="cls-2" d="M130.96,337.38s2.42,1.86,3.82,3.11c-.09,.34-.43,.5-.84,.5h-28.14l-.25-.87h16.62c.84-1.83,1.77-4.32,2.27-6.09l5.12,1.27c-.12,.4-.5,.65-1.21,.65-1.24,1.18-3.29,2.86-5.19,4.16h5.68l2.11-2.73Zm-13.88,5.03l3.45,2.67c-.19,.25-.62,.53-1.27,.62v13.45c0,2.3-.47,3.6-4.04,3.88-.03-1.03-.16-1.8-.47-2.33-.31-.47-.74-.84-1.83-1.06v-.4s1.8,.12,2.36,.12c.44,0,.53-.22,.53-.56v-4.04h-4.25c-.31,3.08-1.43,6.21-5.16,8.48l-.28-.28c2.05-3.11,2.11-7.14,2.11-11.15v-9.01l4.01,1.43h3.26l1.58-1.83Zm-1.27,11.46v-4.1h-4.13v2.05c0,.68,0,1.37-.06,2.05h4.19Zm-4.13-8.73v3.73h4.13v-3.73h-4.13Zm.53-10.99c8.82,.78,5.87,7.52,2.39,5.15-.31-1.8-1.49-3.73-2.64-4.94l.25-.22Zm13.05,22.33c0,.28-1.43,.81-2.7,.81h-.62v-13.73l4.47,.4c-.06,.43-.28,.74-1.15,.87v11.65Zm2.86-13.88l4.57,.44c-.06,.43-.37,.71-1.09,.81v15.19c0,2.42-.56,3.76-4.63,4.1-.06-1.06-.25-1.83-.75-2.39-.5-.5-1.21-.87-2.83-1.15v-.4s3.42,.19,4.07,.19c.5,0,.65-.12,.65-.53v-16.24Z"/><path class="cls-2" d="M149.52,339.86c.96,5.62-5.62,3.85-2.76,.34,.78-.44,1.33-1.37,1.52-2.64-.25,.28-.65,.37-1.37,.37-1.03,1.96-2.86,5.28-4.32,7.24,3.07,2.11,4.38,5.06,4.41,7.64,0,3.08-1.09,4.75-4.41,4.84,0-.93-.09-2.14-.34-2.61-.22-.31-.65-.53-1.27-.71v7.73c0,.22-1.03,1.06-2.7,1.06h-.59v-28.33l3.7,1.43h1.83l1.77-1.71,3.29,3.04,.03-.31h.4c.28,.62,.47,1.21,.62,1.74h5.81c-.31-.09-.65-.31-.99-.59,.03-1.52-.62-3.23-1.4-4.29l.25-.19c5.87,.96,5.28,4.44,3.35,5.06h5.06l1.65-1.65,2.95,2.79c-.25,.22-.56,.28-1.18,.31-.87,.71-2.39,1.68-3.42,2.3,.59,.53,1.27,1.12,1.8,1.62-.06,.34-.4,.5-.84,.5h-13.94l-.25-.87h10l1.8-2.39,.96,.78c.22-.68,.43-1.71,.62-2.52h-12.05Zm-6.89,14.07c.28,0,.46-.03,.65-.16,.4-.28,.62-.84,.62-1.83,0-2.24-.56-4.6-2.05-6.68,.53-2.05,1.24-5.71,1.62-8.17h-2.49v16.83h1.65Zm22.24,4.91c.81,.4,.99,.84,.99,1.49,0,1.34-1.12,2.08-4.63,2.08h-1.89c-2.58,0-2.95-.71-2.95-2.95v-9.78h-2.39c-.4,5.16-1.71,9.97-10.06,13.23l-.31-.4c6.03-3.88,6.46-8.32,6.58-12.83h-3.07l-.25-.9h13.51l1.83-2.52s2.14,1.71,3.42,2.92c-.09,.34-.44,.5-.87,.5h-4.97v8.88c0,.37,.06,.5,.59,.5h2.27c.25,0,.4-.06,.59-.34,.25-.44,.71-1.9,1.18-3.42h.34l.09,3.54Z"/><path class="cls-2" d="M169.72,341.57c-.65,.59-1.33,1.09-2.02,1.55l-.4-.31c1.58-2.08,3.11-5.47,3.98-8.85l3.39,1.21c-.22-.34-.47-.65-.71-.9l.28-.22c6.55,.68,3.82,5.53,1.3,3.57-.03-.65-.28-1.37-.59-1.99-.22,.19-.56,.31-1.02,.28-.37,.78-.81,1.49-1.27,2.2l.56,.19h4.91l1.46-1.71s1.58,1.21,2.61,2.11c-.06,.34-.37,.5-.81,.5h-3.63v2.64h.4l1.27-1.62s.99,.84,1.86,1.62c1.27-2.05,2.42-4.97,3.01-7.89l3.91,1.24c-.13,.4-.53,.65-1.15,.62-.37,.81-.78,1.55-1.21,2.24l.59,.25h5.47l1.43-1.74s1.65,1.21,2.67,2.14c-.09,.34-.37,.5-.81,.5h-3.98v2.64h.59l1.3-1.68s1.49,1.18,2.39,2.08c-.06,.34-.34,.5-.78,.5h-3.51v2.8h.59l1.33-1.68s1.46,1.18,2.39,2.05c-.09,.34-.37,.5-.81,.5h-3.51v2.8h1.12l1.52-1.93s1.74,1.34,2.76,2.3c-.06,.34-.37,.5-.81,.5h-9.75v.28c0,.25-.96,.96-2.58,.96h-.56v-9.75c-.56,.53-1.15,.96-1.74,1.37l-.25-.19h-3.2v2.8h.4l1.27-1.58s1.43,1.12,2.3,1.96c-.09,.34-.37,.5-.78,.5h-3.2v2.8h.78l1.43-1.83s1.68,1.24,2.67,2.2c-.06,.34-.37,.5-.81,.5h-9.01v.44c0,.22-.96,.93-2.52,.93h-.56v-9.88Zm23.17,11.71c-.22,.31-.59,.4-1.43,.43-1.52,1.71-3.32,3.17-5.44,4.38,3.42,.74,7.17,1.09,10.87,1.18v.4c-1.58,.47-2.49,1.68-2.83,3.48-4.41-.59-8.45-1.55-11.83-3.2-4.16,1.71-9.07,2.73-14.41,3.14l-.16-.4c4.38-.93,8.57-2.3,12.14-4.1-2.2-1.46-4.07-3.29-5.44-5.62h-5.34l-.28-.9h18.73l2.27-1.89,3.14,3.11Zm-20.09-14.07v2.64h2.05v-2.64h-2.05Zm2.05,3.54h-2.05v2.8h2.05v-2.8Zm0,3.66h-2.05v2.8h2.05v-2.8Zm.31,6.55c1.77,1.83,4.29,3.2,7.21,4.16,1.96-1.24,3.6-2.61,4.88-4.16h-12.08Zm10.9-13.76v2.64h2.21v-2.64h-2.21Zm2.21,3.54h-2.21v2.8h2.21v-2.8Zm0,3.66h-2.21v2.8h2.21v-2.8Zm-.53-12.42c6.58,.68,3.85,5.53,1.33,3.54-.06-1.21-.81-2.58-1.58-3.36l.25-.19Z"/><path class="cls-2" d="M223.46,353.87s2.39,1.8,3.91,3.04c-.09,.34-.44,.5-.9,.5h-11.87v4.63c0,.34-1.61,1.09-3.04,1.09h-.74v-5.71h-12.21l-.25-.87h12.46v-3.73h-5.09v.96c0,.37-1.62,1.18-3.11,1.18h-.56v-14.35l3.91,1.52h4.85v-3.14h-11.24l-.25-.9h11.49v-4.1l4.91,.47c-.06,.43-.28,.78-1.12,.9v2.73h5.81l2.14-2.61s2.42,1.77,3.91,3.01c-.09,.34-.44,.5-.9,.5h-10.96v3.14h4.91l1.74-1.86,3.54,2.73c-.22,.25-.62,.5-1.24,.62v9.41c-.03,.25-1.83,1.02-3.11,1.02h-.62v-1.24h-5.22v3.73h6.68l2.17-2.67Zm-17.73-10.84v3.91h5.09v-3.91h-5.09Zm5.09,8.91v-4.1h-5.09v4.1h5.09Zm3.79-8.91v3.91h5.22v-3.91h-5.22Zm5.22,8.91v-4.1h-5.22v4.1h5.22Z"/><path class="cls-2" d="M236.35,343.22c-.09,.28-.37,.5-.96,.59v18.23c-.06,.28-1.55,1.09-2.98,1.09h-.68v-16.34c-1.21,1.37-2.51,2.55-3.88,3.6l-.34-.25c2.55-3.88,5.22-10.09,6.55-16.18l5.19,1.62c-.16,.4-.56,.65-1.24,.65-.9,2.33-1.99,4.5-3.2,6.43l1.55,.56Zm17.21,14.22s2.39,1.93,3.82,3.23c-.09,.34-.41,.5-.87,.5h-20.31l-.25-.9h10.84c1.21-5,2.36-11.83,2.86-16.65l5.19,1.24c-.12,.43-.47,.71-1.21,.75-1.24,4.01-3.6,9.97-6.24,14.66h4.07l2.11-2.83Zm-16.83-15.93h14.35l2.05-2.67s2.3,1.8,3.66,3.04c-.09,.34-.41,.5-.84,.5h-18.98l-.25-.87Zm2.51,2.64c9.91,9.53,4.44,17.52,2.02,13.48,0-3.42-.4-9.1-2.42-13.26l.4-.22Zm3.6-10.09c9.16,2.17,5.65,9.07,2.17,6.24-.16-2.14-1.27-4.47-2.42-6.06l.25-.19Z"/><path class="cls-2" d="M267.67,364.09h-1.24v-31.06h1.24v31.06Z"/><path class="cls-2" d="M288.46,335.73s2.02,1.68,3.17,2.86c-.09,.34-.4,.5-.84,.5h-5.03l.34,2.73c-.53,.68-1.86,.96-3.48,.93l-.43-3.66h-5.22l-.25-.9h5.37l-.47-4.07,4.57,.31c-.03,.37-.28,.71-.9,.87l.34,2.89h1.09l1.74-2.45Zm-11.43,18.51c2.89-2.48,6.15-6.83,8.07-11.49l4.75,2.05c-.16,.37-.59,.62-1.27,.53-.87,1.24-1.8,2.33-2.76,3.32l1.37,.53c-.09,.28-.37,.5-.96,.59v12.42c-.03,.25-1.52,.9-2.89,.9h-.65v-11.65c-1.74,1.3-3.57,2.3-5.37,3.11l-.28-.31Zm27.3,4.22c1,.4,1.27,.81,1.27,1.49,0,1.58-1.46,2.24-6.74,2.24h-3.2c-3.23,0-4.07-.68-4.07-3.26v-15.68l4.63,.43c-.03,.4-.31,.71-1.06,.81v5.68h4.25l1.9-2.64s2.14,1.8,3.41,3.04c-.09,.34-.43,.5-.9,.5h-8.66v6.9c0,.59,.25,.81,1.3,.81h2.76c1.03,0,1.9,0,2.36-.06,.34-.03,.59-.13,.81-.44,.37-.56,.9-2.21,1.46-4.16h.34l.12,4.35Zm-1.24-22.74s2.05,1.68,3.2,2.86c-.06,.34-.37,.5-.81,.5h-6.43l-.47,2.98c-.65,.5-2.05,.71-3.57,.4l.53-3.39h-2.92l-.25-.9h3.29l.62-4.07,4.47,.87c-.09,.37-.37,.68-1.21,.74l-.37,2.45h2.2l1.71-2.45Z"/><path class="cls-2" d="M336.4,337.07c-.22,.28-.65,.53-1.27,.68v24.01c-.03,.28-1.74,1.18-3.11,1.18h-.56v-2.36h-18.57v1.18c0,.47-1.43,1.37-2.98,1.37h-.62v-28.48l3.91,1.62h17.95l1.77-1.99,3.48,2.8Zm-4.94,22.64v-22.58h-18.57v22.58h5.06l-1.58-2.39c.96-.62,1.12-.87,1.12-1.37v-1.46c-1.3,.56-2.7,1.02-4.16,1.43l-.25-.53c2.49-1.09,4.72-2.64,6.21-4.32h-.96v.12c0,.25-1.37,.84-2.55,.84h-.44v-6.86l3.11,1.24h7.36l1.37-1.4,2.86,2.11c-.16,.19-.47,.37-.9,.47v3.32c0,.06-.12,.13-.28,.22l2.02,1.8c-.19,.25-.47,.31-1,.09-.65,.28-1.61,.62-2.58,.93,5.03,2.55,3.35,5.78,1.31,4.66-.9-1.46-3.42-3.95-6.65-5.93l.22-.43c1.55,.34,2.86,.75,3.94,1.18,.56-.62,1.18-1.34,1.71-1.93-.43,.09-.87,.19-1.24,.19h-.53v-.62h-3.17c-.71,.71-1.55,1.34-2.49,1.93v1.68h-.03v1.55c1.18-.34,2.55-.71,3.88-1.12l.09,.4c-1.12,.75-3.45,2.3-5.84,3.79-.12,.19-.28,.31-.41,.4h13.36Zm-3.01-18.01s1.8,1.37,2.89,2.33c-.09,.34-.4,.5-.84,.5h-16.96l-.25-.87h7.21v-2.27h-5.59l-.25-.87h5.84v-2.73l4.13,.37c-.03,.37-.25,.62-.87,.71v1.65h2.11l1.52-1.8s1.74,1.24,2.79,2.17c-.06,.34-.37,.5-.81,.5h-5.62v2.27h3.11l1.58-1.96Zm-2.39,5.62h-7.73v2.89h7.73v-2.89Z"/><path class="cls-2" d="M352.08,347.75l3.14,2.58c-.22,.28-.59,.47-1.24,.56-.28,6.8-.9,9.78-2.42,10.93-.93,.75-2.11,1.09-3.63,1.09,0-.99-.09-1.83-.5-2.3-.4-.47-1.18-.84-2.27-1.09l.03-.43c.93,.09,2.45,.19,3.04,.19,.47,0,.71-.06,.96-.28,.71-.59,1.15-3.42,1.4-8.67h-4.85c-.68,4.81-2.24,9.78-7.3,12.83l-.34-.4c3.85-4.13,4.38-10.81,4.5-16.62-.43,.19-1,.31-1.68,.31h-.59v-11.77l3.69,1.43h5.75l1.61-1.77,3.39,2.58c-.19,.22-.62,.53-1.24,.62v7.58c-.03,.25-1.77,.84-2.89,.84h-.56v-1.27h-6.46v.65c0,.12-.19,.34-.56,.56l4.07,.37c-.06,.44-.34,.75-1.06,.84-.06,.78-.16,1.55-.25,2.36h4.44l1.8-1.71Zm-8.45-10.78v6.83h6.46v-6.83h-6.46Zm15.81,18.05c0,.28-1.46,.93-2.76,.93h-.62v-19.35l4.53,.4c-.09,.44-.34,.78-1.15,.9v17.11Zm7.55-20.09c-.06,.47-.37,.75-1.15,.87v22.86c0,2.55-.56,3.98-4.78,4.38-.12-1.21-.28-2.05-.78-2.61-.53-.56-1.27-.96-2.92-1.24v-.43s3.45,.22,4.16,.22c.53,0,.68-.16,.68-.56v-23.95l4.78,.47Z"/><path class="cls-2" d="M394.42,358.81s2.17,1.71,3.51,2.89c-.09,.34-.43,.5-.87,.5h-28.02l-.25-.9h12.67v-4.1h-8.94l-.25-.87h9.19v-3.04l4.78,.4c-.06,.4-.28,.71-1.12,.84v1.8h4.6l1.9-2.42s2.14,1.65,3.41,2.79c-.06,.34-.4,.5-.84,.5h-9.07v4.1h7.33l1.96-2.49Zm-25.25-7.83c1.3-.06,3.45-.19,6.02-.37v-2.24h-5.06l-.25-.9h5.31v-2.7h-1.83v.78c0,.19-.93,.9-2.49,.9h-.53v-11.68l3.41,1.33h6.15l1.52-1.58,3.11,2.33c-.16,.22-.62,.5-1.18,.59v7.42c-.03,.16-.78,.56-1.58,.78,.53,.4,1.86,1.43,2.73,2.24-.06,.34-.37,.5-.81,.5h-5.28v1.99c1.86-.16,3.88-.31,5.9-.5l.06,.47c-2.76,.93-6.71,2.11-12.61,3.66-.18,.4-.53,.65-.84,.71l-1.77-3.73Zm4.19-14.01v2.98h1.83v-2.98h-1.83Zm1.83,6.93v-3.04h-1.83v3.04h1.83Zm3.23-6.93v2.98h1.8v-2.98h-1.8Zm1.8,3.88h-1.8v3.04h1.8v-3.04Zm-1.8,6.62h1.46l1.4-1.74c-.18,.03-.37,.06-.53,.06h-.53v-1.03h-1.8v2.7Zm6.18-10.5l-.28-.87h8.14l1.8-1.74,3.04,2.89c-.28,.25-.62,.34-1.27,.37-1.15,.68-3.04,1.59-4.66,2.24,.96,.93,.96,2.08,.43,2.73h1.55l1.71-1.74,3.08,2.89c-.25,.25-.59,.34-1.21,.37-1.09,1.12-2.92,2.67-4.32,3.57l-.31-.19c.37-1.09,.87-2.76,1.18-4.04h-2.02v6.8c0,2.24-.5,3.6-4.13,3.91-.03-.96-.13-1.74-.5-2.17-.37-.47-.93-.81-2.27-1.02v-.44s2.49,.16,3.01,.16c.43,0,.56-.16,.56-.5v-6.74h-4.07l-.28-.87h5.65c-.65-1.49-2.17-3.11-3.42-4.01l.25-.25c1.92,.03,3.29,.4,4.22,.9,.59-.71,1.24-1.55,1.74-2.27h-7.64Z"/></g><g><g><path class="cls-1" d="M151.01,395.03c0-3.06,.46-5.7,1.38-7.91,.92-2.21,2.15-3.86,3.68-4.94,1.19-.86,2.41-1.29,3.68-1.29,2.06,0,3.91,1.05,5.54,3.15,2.04,2.6,3.07,6.12,3.07,10.57,0,3.11-.45,5.76-1.35,7.94-.9,2.18-2.04,3.76-3.43,4.74-1.39,.98-2.73,1.47-4.03,1.47-2.56,0-4.69-1.51-6.39-4.53-1.44-2.55-2.16-5.61-2.16-9.2Zm3.88,.49c0,3.7,.46,6.71,1.37,9.04,.75,1.97,1.87,2.95,3.36,2.95,.71,0,1.45-.32,2.22-.96,.76-.64,1.35-1.71,1.74-3.22,.61-2.27,.91-5.47,.91-9.6,0-3.06-.32-5.61-.95-7.66-.48-1.52-1.09-2.59-1.84-3.23-.54-.44-1.2-.65-1.96-.65-.9,0-1.7,.4-2.39,1.21-.95,1.1-1.6,2.82-1.94,5.17-.34,2.35-.51,4.66-.51,6.95Z"/><path class="cls-1" d="M170.76,386.56c.76-1.81,1.73-3.2,2.9-4.19,1.17-.98,2.62-1.47,4.36-1.47,2.15,0,3.8,.7,4.95,2.1,.87,1.04,1.31,2.16,1.31,3.34,0,1.95-1.23,3.97-3.68,6.06,1.65,.65,2.9,1.57,3.74,2.77,.84,1.2,1.27,2.61,1.27,4.23,0,2.32-.74,4.33-2.22,6.04-1.93,2.22-4.72,3.33-8.37,3.33-1.81,0-3.04-.23-3.69-.67-.65-.45-.98-.93-.98-1.45,0-.38,.16-.72,.46-1.01,.31-.29,.68-.43,1.12-.43,.33,0,.67,.05,1.01,.16,.23,.07,.73,.31,1.52,.72,.79,.41,1.34,.66,1.64,.74,.49,.15,1.01,.22,1.56,.22,1.35,0,2.52-.52,3.51-1.56,1-1.04,1.49-2.28,1.49-3.7,0-1.04-.23-2.06-.69-3.05-.34-.74-.72-1.3-1.13-1.68-.57-.53-1.35-1.01-2.34-1.43-.99-.43-2-.64-3.03-.64h-.63v-.59c1.04-.13,2.09-.51,3.14-1.13,1.05-.62,1.81-1.37,2.29-2.24,.48-.87,.71-1.83,.71-2.87,0-1.36-.43-2.46-1.28-3.29-.85-.84-1.91-1.26-3.18-1.26-2.05,0-3.75,1.1-5.13,3.29l-.65-.32Z"/><path class="cls-1" d="M190.64,397.7h10.23v2.99h-10.23v-2.99Z"/><path class="cls-1" d="M225.21,403.76l-2.56,7.04h-21.59v-1c6.35-5.79,10.82-10.52,13.41-14.19,2.59-3.67,3.89-7.03,3.89-10.07,0-2.32-.71-4.23-2.13-5.72-1.42-1.49-3.12-2.24-5.1-2.24-1.8,0-3.41,.53-4.84,1.58-1.43,1.05-2.49,2.6-3.17,4.63h-1c.45-3.33,1.61-5.88,3.47-7.66,1.86-1.78,4.19-2.67,6.97-2.67,2.97,0,5.45,.95,7.43,2.86,1.99,1.91,2.98,4.16,2.98,6.75,0,1.85-.43,3.71-1.3,5.56-1.33,2.91-3.49,6-6.48,9.26-4.48,4.89-7.28,7.84-8.39,8.85h9.55c1.94,0,3.31-.07,4.09-.22,.78-.14,1.49-.44,2.12-.88,.63-.44,1.18-1.07,1.65-1.87h1Z"/><path class="cls-1" d="M236.84,392.37c-2.9-2.37-4.76-4.28-5.6-5.72-.84-1.44-1.26-2.93-1.26-4.48,0-2.37,.92-4.42,2.75-6.14,1.84-1.72,4.27-2.58,7.31-2.58s5.32,.8,7.12,2.4c1.8,1.6,2.7,3.43,2.7,5.48,0,1.37-.49,2.76-1.46,4.18-.97,1.42-3,3.09-6.07,5.02,3.17,2.45,5.26,4.37,6.29,5.78,1.37,1.83,2.05,3.77,2.05,5.8,0,2.57-.98,4.77-2.94,6.6-1.96,1.83-4.53,2.74-7.72,2.74-3.47,0-6.18-1.09-8.12-3.26-1.55-1.75-2.32-3.65-2.32-5.72,0-1.62,.54-3.23,1.63-4.82,1.09-1.59,2.96-3.35,5.63-5.27Zm1.27,1.03c-1.5,1.26-2.6,2.63-3.32,4.11-.72,1.48-1.08,3.09-1.08,4.82,0,2.32,.63,4.18,1.9,5.57,1.27,1.4,2.88,2.09,4.84,2.09s3.5-.55,4.67-1.65c1.17-1.1,1.75-2.43,1.75-3.99,0-1.3-.34-2.46-1.03-3.48-1.28-1.91-3.86-4.4-7.74-7.47Zm2.97-3.91c2.16-1.94,3.53-3.48,4.1-4.6,.58-1.12,.86-2.4,.86-3.82,0-1.89-.53-3.37-1.59-4.44-1.06-1.07-2.51-1.61-4.34-1.61s-3.33,.53-4.48,1.59c-1.15,1.06-1.73,2.3-1.73,3.72,0,.94,.24,1.87,.71,2.81,.48,.94,1.16,1.83,2.04,2.67l4.43,3.67Z"/><path class="cls-1" d="M277.56,403.76l-2.56,7.04h-21.59v-1c6.35-5.79,10.82-10.52,13.41-14.19,2.59-3.67,3.89-7.03,3.89-10.07,0-2.32-.71-4.23-2.13-5.72-1.42-1.49-3.12-2.24-5.1-2.24-1.8,0-3.41,.53-4.84,1.58-1.43,1.05-2.49,2.6-3.17,4.63h-1c.45-3.33,1.61-5.88,3.47-7.66,1.86-1.78,4.19-2.67,6.98-2.67,2.97,0,5.44,.95,7.43,2.86,1.99,1.91,2.98,4.16,2.98,6.75,0,1.85-.43,3.71-1.3,5.56-1.33,2.91-3.49,6-6.48,9.26-4.48,4.89-7.28,7.84-8.39,8.85h9.55c1.94,0,3.31-.07,4.09-.22,.78-.14,1.49-.44,2.12-.88,.63-.44,1.18-1.07,1.65-1.87h1Z"/><path class="cls-1" d="M281.21,396.37h13.95v4.07h-13.95v-4.07Z"/><path class="cls-1" d="M300.42,392.72c0-4.17,.63-7.77,1.89-10.78,1.26-3.01,2.93-5.26,5.02-6.73,1.62-1.17,3.29-1.75,5.02-1.75,2.81,0,5.32,1.43,7.56,4.29,2.79,3.54,4.18,8.35,4.18,14.41,0,4.25-.61,7.85-1.83,10.82-1.22,2.97-2.78,5.12-4.68,6.46-1.9,1.34-3.73,2.01-5.49,2.01-3.49,0-6.39-2.06-8.72-6.18-1.96-3.47-2.94-7.65-2.94-12.55Zm5.29,.68c0,5.04,.62,9.15,1.86,12.33,1.03,2.68,2.56,4.02,4.59,4.02,.97,0,1.98-.44,3.02-1.31,1.04-.87,1.84-2.33,2.37-4.38,.83-3.09,1.24-7.46,1.24-13.09,0-4.17-.43-7.65-1.3-10.44-.65-2.07-1.48-3.53-2.51-4.4-.74-.59-1.63-.89-2.67-.89-1.22,0-2.31,.55-3.26,1.65-1.3,1.49-2.18,3.84-2.64,7.04-.47,3.2-.7,6.36-.7,9.47Z"/><path class="cls-1" d="M328.36,392.72c0-4.17,.63-7.77,1.89-10.78,1.26-3.01,2.93-5.26,5.02-6.73,1.62-1.17,3.29-1.75,5.02-1.75,2.81,0,5.33,1.43,7.56,4.29,2.79,3.54,4.18,8.35,4.18,14.41,0,4.25-.61,7.85-1.84,10.82-1.22,2.97-2.79,5.12-4.68,6.46-1.9,1.34-3.73,2.01-5.49,2.01-3.49,0-6.4-2.06-8.72-6.18-1.96-3.47-2.94-7.65-2.94-12.55Zm5.29,.68c0,5.04,.62,9.15,1.86,12.33,1.02,2.68,2.55,4.02,4.59,4.02,.97,0,1.98-.44,3.02-1.31,1.05-.87,1.84-2.33,2.37-4.38,.83-3.09,1.24-7.46,1.24-13.09,0-4.17-.43-7.65-1.3-10.44-.65-2.07-1.48-3.53-2.51-4.4-.74-.59-1.63-.89-2.67-.89-1.22,0-2.31,.55-3.26,1.65-1.3,1.49-2.18,3.84-2.65,7.04-.47,3.2-.7,6.36-.7,9.47Z"/><path class="cls-1" d="M363.8,392.37c-2.9-2.37-4.76-4.28-5.6-5.72-.84-1.44-1.26-2.93-1.26-4.48,0-2.37,.92-4.42,2.75-6.14,1.83-1.72,4.27-2.58,7.31-2.58s5.32,.8,7.12,2.4c1.8,1.6,2.7,3.43,2.7,5.48,0,1.37-.49,2.76-1.46,4.18-.97,1.42-3,3.09-6.07,5.02,3.17,2.45,5.26,4.37,6.29,5.78,1.37,1.83,2.05,3.77,2.05,5.8,0,2.57-.98,4.77-2.94,6.6-1.96,1.83-4.53,2.74-7.72,2.74-3.47,0-6.18-1.09-8.12-3.26-1.55-1.75-2.32-3.65-2.32-5.72,0-1.62,.54-3.23,1.63-4.82,1.09-1.59,2.96-3.35,5.63-5.27Zm1.27,1.03c-1.5,1.26-2.6,2.63-3.32,4.11-.72,1.48-1.08,3.09-1.08,4.82,0,2.32,.63,4.18,1.9,5.57,1.27,1.4,2.88,2.09,4.84,2.09s3.5-.55,4.67-1.65c1.17-1.1,1.75-2.43,1.75-3.99,0-1.3-.34-2.46-1.03-3.48-1.28-1.91-3.86-4.4-7.74-7.47Zm2.97-3.91c2.16-1.94,3.53-3.48,4.1-4.6,.58-1.12,.86-2.4,.86-3.82,0-1.89-.53-3.37-1.59-4.44-1.06-1.07-2.51-1.61-4.34-1.61s-3.33,.53-4.48,1.59c-1.15,1.06-1.73,2.3-1.73,3.72,0,.94,.24,1.87,.71,2.81,.48,.94,1.16,1.83,2.04,2.67l4.43,3.67Z"/><path class="cls-1" d="M383.22,377.8l8.9-4.35h.89v30.9c0,2.05,.09,3.33,.26,3.83,.17,.5,.53,.89,1.07,1.16,.54,.27,1.63,.42,3.29,.46v1h-13.76v-1c1.73-.04,2.84-.18,3.35-.45,.5-.26,.85-.61,1.05-1.05,.2-.44,.3-1.76,.3-3.95v-19.75c0-2.66-.09-4.37-.27-5.13-.13-.58-.36-1-.69-1.27-.33-.27-.73-.4-1.2-.4-.67,0-1.59,.28-2.78,.84l-.4-.84Z"/></g><rect class="cls-1" x="5.41" y="379.99" width="139.66" height="29.28"/><g><path class="cls-3" d="M33.74,402.92s2.09,1.57,3.38,2.69c-.08,.28-.36,.41-.75,.41H13.09l-.21-.75h3.72v-13.47l4.21,.36c-.05,.36-.26,.62-.95,.75v12.36h3.92v-18.74H14.4l-.21-.75H30.95l1.83-2.32s2.04,1.57,3.3,2.66c-.08,.28-.33,.41-.72,.41h-8.29v8.34h3.07l1.78-2.3s2.01,1.55,3.2,2.61c-.08,.26-.36,.39-.72,.39h-7.33v9.71h4.8l1.86-2.35Z"/><path class="cls-3" d="M60.6,390.09s1.86,1.52,2.94,2.58c-.05,.28-.34,.41-.7,.41h-2.22v13.5c0,.18-.9,.8-2.45,.8h-.52v-14.3h-2.48v.93c0,4.62-.44,9.99-6.2,13.37l-.28-.28c3.2-3.72,3.56-8.44,3.56-13.14v-.72c-.13,.13-.34,.18-.57,.18h-4.9v3.07h1.21l1.34-1.83s1.5,1.27,2.37,2.14c-.08,.28-.31,.41-.67,.41h-4.26v9.5c0,.15-.88,.65-2.37,.65h-.52v-7.49h-.08c-.96,1.83-2.45,4.16-4.44,5.71l-.26-.28c1.21-2.06,1.99-5.21,2.3-7.28l2.48,1.08v-1.88h-4.18l-.21-.72h4.39v-3.07h-4.67l-.21-.75h6.92c.46-1.47,.93-3.41,1.16-4.85h-5.47c5.27,2.35,2.58,6.27,.65,4.28,.03-1.42-.54-3.07-1.06-4.23l.15-.05h-1.76l-.21-.75h5.42c-.21-.08-.41-.21-.62-.36-.08-1.21-.75-2.58-1.37-3.46l.21-.13c4.67,.67,4.44,3.33,3.02,3.95h1.65l1.32-1.83s1.55,1.27,2.48,2.17c-.08,.28-.34,.41-.7,.41h-3.28l3.1,.95c-.1,.31-.41,.52-.95,.46-.75,1.01-1.86,2.32-3.02,3.43h1.78l1.42-1.91s1.45,1.21,2.4,2.12v-7.59l3.02,.96c1.76-.93,3.59-2.17,4.6-3.07l3.18,2.53c-.28,.26-.8,.31-1.58,.08-1.57,.52-3.98,1.03-6.3,1.34v5.21h3.77l1.65-2.25Zm-13.45,8.26c5.76,2.43,3.2,6.89,1.11,4.88,.03-1.63-.65-3.49-1.37-4.75l.26-.13Z"/><path class="cls-3" d="M88.39,394.66c-.18,.26-.46,.36-1.08,.41-.88,2.53-2.12,4.75-3.87,6.63,1.78,1.29,3.87,2.22,6.12,2.89l-.05,.28c-1.26,.23-2.22,1.11-2.71,2.56-2.09-1.08-3.82-2.37-5.21-4.05-2.25,1.76-5.14,3.07-8.88,3.92l-.16-.34c3.28-1.24,5.86-3.02,7.82-5.27-1.16-1.91-2.01-4.26-2.56-7.18h-1.11c-.23,4.26-1.5,9.53-7.23,12.86l-.23-.26c2.58-2.76,3.74-5.96,4.26-9.16-1.52,1.24-3.77,2.92-6.87,4.93-.05,.34-.31,.62-.59,.75l-1.65-3.38c.7-.18,1.83-.52,3.23-.93v-8.08h-2.56l-.21-.75h2.76v-6.79l3.92,.34c-.08,.36-.26,.62-.96,.72v5.73h.23l1.29-2.14s.98,1.01,1.75,1.91v-3.87l3.36,1.5h2.4v-4.44l3.87,.34c-.03,.36-.23,.62-.93,.75v3.36h2.56l1.57-1.58,2.76,2.61c-.21,.21-.46,.26-1.03,.28-1.03,.93-2.84,2.25-4.16,2.94l-.23-.18c.39-.88,.88-2.27,1.19-3.33h-2.66v5.14h1.47l1.65-1.6,2.71,2.48Zm-17.81,3.72c.98-.31,1.99-.65,2.99-.98,.23-1.65,.28-3.28,.28-4.83v-1.34c-.05,.03-.13,.03-.18,.03h-3.1v7.12Zm6.17-5.81c0,.39,0,.8-.03,1.21h2.89v-5.14h-2.86v3.92Zm1.55,1.96c.7,2.3,1.83,4.13,3.28,5.58,1.13-1.65,1.99-3.54,2.56-5.58h-5.83Z"/><path class="cls-3" d="M114.71,385.63c-.18,.23-.54,.44-1.06,.57v20.14c-.05,.23-1.34,.93-2.43,.93h-.44v-1.86h-16.11v.95c0,.36-1.14,1.06-2.32,1.06h-.46v-23.72l3.02,1.27h15.62l1.39-1.55,2.79,2.22Zm-3.92,19.02v-18.95h-16.11v18.95h16.11Zm-8-6.14c-1.16,.75-2.97,1.83-5.5,3.18-.13,.31-.36,.54-.65,.62l-1.47-2.97c1.37-.13,4.47-.59,7.56-1.13l.05,.31Zm7.64-5.96c-.13,.31-.46,.49-1.06,.41-.75,2.07-1.68,3.8-2.79,5.27,.39,.75,.83,1.45,1.39,2.01,.28,.34,.41,.31,.62-.08,.31-.54,.75-1.65,1.06-2.56l.28,.05-.41,3.54c.7,1.16,.83,1.78,.46,2.17-.9,.93-2.58,.08-3.41-.8-.67-.72-1.24-1.52-1.73-2.4-1.68,1.63-3.66,2.79-5.91,3.67l-.23-.31c1.99-1.24,3.82-2.94,5.32-5.11-.67-1.73-1.08-3.64-1.34-5.68-.1,.13-.39,.28-.72,.34v3.82c-.03,.18-1.03,.7-1.78,.7h-.34v-.8h-1.57v.62c0,.15-.93,.65-1.76,.65h-.31v-6.79l2.17,.9h1.29l.98-1.01,2.04,1.52c-.1-.77-.16-1.57-.21-2.37h-7l-.21-.75h7.15c-.05-1.11-.08-2.27-.1-3.43l3.43,.6c-.08,.31-.31,.59-.9,.65,0,.72,0,1.47,.03,2.19h2.04l.57-.75-.1-.05c-.26-.88-.98-1.89-1.6-2.45l.23-.18c3.43,.16,3.72,1.86,2.94,2.58,.44,.36,.98,.8,1.37,1.19-.08,.28-.34,.41-.7,.41h-4.7c.08,1.86,.28,3.69,.7,5.32,.65-1.37,1.19-2.84,1.55-4.44l3.25,1.37Zm-10.58,3.51v-3.18h-1.57v3.18h1.57Z"/><path class="cls-3" d="M125.39,390.76c-.1,.31-.34,.49-1.01,.49-1.39,3.66-3.85,8.41-7.85,11.46l-.26-.23c2.56-3.74,4.18-9.4,4.8-13.22l4.31,1.5Zm5.76-6.82c-.08,.39-.31,.62-.96,.72v18.92c0,2.17-.54,3.43-4.41,3.8-.1-1.06-.28-1.78-.83-2.25-.52-.52-1.21-.88-2.81-1.14v-.36s3.51,.21,4.21,.21c.49,0,.65-.16,.65-.52v-19.8l4.16,.41Zm5.89,17.17c-.41-3.72-2.48-8-4.54-11.18l.34-.16c10.51,6.01,7.87,14.58,4.21,11.33Z"/></g></g><line class="cls-4" y1="305.55" x2="402.35" y2="305.55"/></g></g></g></g></svg>